0
SECTION
2
HEADER
9
$ACADVER
1
AC1009
9
$INSUNITS
70
2
0
ENDSEC
0
SECTION
2
TABLES
0
TABLE
2
LAYER
70
12
0
LAYER
2
A-WALL
70
0
62
7
6
CONTINUOUS
0
LAYER
2
A-WALL-CAP
70
0
62
7
6
CONTINUOUS
0
LAYER
2
A-DOOR
70
0
62
1
6
CONTINUOUS
0
LAYER
2
A-DOOR-JAMB
70
0
62
8
6
CONTINUOUS
0
LAYER
2
A-GLAZ
70
0
62
8
6
CONTINUOUS
0
LAYER
2
A-STAIR
70
0
62
8
6
CONTINUOUS
0
LAYER
2
A-DETAIL
70
0
62
8
6
CONTINUOUS
0
LAYER
2
A-REF-DIMS
70
0
62
9
6
CONTINUOUS
0
LAYER
2
A-TEXT
70
0
62
7
6
CONTINUOUS
0
LAYER
2
A-ANNO
70
0
62
8
6
CONTINUOUS
0
LAYER
2
A-SHEET
70
0
62
8
6
CONTINUOUS
0
LAYER
2
0
70
0
62
7
6
CONTINUOUS
0
ENDTAB
0
ENDSEC
0
SECTION
2
ENTITIES
0
LINE
8
A-WALL
10
0.0000
20
44.2100
30
0
11
20.3287
21
44.2100
31
0
0
LINE
8
A-WALL
10
0.0000
20
43.8500
30
0
11
20.3287
21
43.8500
31
0
0
LINE
8
A-WALL
10
23.8886
20
44.2100
30
0
11
28.7600
21
44.2100
31
0
0
LINE
8
A-WALL
10
23.8886
20
43.8500
30
0
11
28.7600
21
43.8500
31
0
0
LINE
8
A-WALL
10
32.0389
20
44.2100
30
0
11
44.6858
21
44.2100
31
0
0
LINE
8
A-WALL
10
32.0389
20
43.8500
30
0
11
44.6858
21
43.8500
31
0
0
LINE
8
A-WALL
10
48.4330
20
44.2100
30
0
11
62.0167
21
44.2100
31
0
0
LINE
8
A-WALL
10
48.4330
20
43.8500
30
0
11
62.0167
21
43.8500
31
0
0
LINE
8
A-WALL
10
67.1692
20
44.2100
30
0
11
73.3521
21
44.2100
31
0
0
LINE
8
A-WALL
10
67.1692
20
43.8500
30
0
11
73.3521
21
43.8500
31
0
0
LINE
8
A-WALL
10
73.5321
20
44.0300
30
0
11
73.5321
21
0.0000
31
0
0
LINE
8
A-WALL
10
73.1721
20
44.0300
30
0
11
73.1721
21
0.0000
31
0
0
LINE
8
A-WALL
10
0.0000
20
0.1800
30
0
11
27.3548
21
0.1800
31
0
0
LINE
8
A-WALL
10
0.0000
20
-0.1800
30
0
11
27.3548
21
-0.1800
31
0
0
LINE
8
A-WALL
10
31.2894
20
0.1800
30
0
11
59.6747
21
0.1800
31
0
0
LINE
8
A-WALL
10
31.2894
20
-0.1800
30
0
11
59.6747
21
-0.1800
31
0
0
LINE
8
A-WALL
10
64.3587
20
0.1800
30
0
11
67.4502
21
0.1800
31
0
0
LINE
8
A-WALL
10
64.3587
20
-0.1800
30
0
11
67.4502
21
-0.1800
31
0
0
LINE
8
A-WALL
10
72.5090
20
0.1800
30
0
11
73.3521
21
0.1800
31
0
0
LINE
8
A-WALL
10
72.5090
20
-0.1800
30
0
11
73.3521
21
-0.1800
31
0
0
LINE
8
A-WALL
10
0.1800
20
44.0300
30
0
11
0.1800
21
19.9540
31
0
0
LINE
8
A-WALL
10
-0.1800
20
44.0300
30
0
11
-0.1800
21
19.9540
31
0
0
LINE
8
A-WALL
10
0.1800
20
19.9540
30
0
11
0.1800
21
17.6120
31
0
0
LINE
8
A-WALL
10
-0.1800
20
19.9540
30
0
11
-0.1800
21
17.6120
31
0
0
LINE
8
A-WALL
10
0.1800
20
15.4573
30
0
11
0.1800
21
0.0000
31
0
0
LINE
8
A-WALL
10
-0.1800
20
15.4573
30
0
11
-0.1800
21
0.0000
31
0
0
LINE
8
A-WALL
10
6.7377
20
44.0300
30
0
11
6.7377
21
19.9540
31
0
0
LINE
8
A-WALL
10
6.3777
20
44.0300
30
0
11
6.3777
21
19.9540
31
0
0
LINE
8
A-WALL
10
0.0000
20
34.4672
30
0
11
6.5577
21
34.4672
31
0
0
LINE
8
A-WALL
10
0.0000
20
34.1072
30
0
11
6.5577
21
34.1072
31
0
0
LINE
8
A-WALL
10
0.0000
20
20.1340
30
0
11
6.5577
21
20.1340
31
0
0
LINE
8
A-WALL
10
0.0000
20
19.7740
30
0
11
6.5577
21
19.7740
31
0
0
LINE
8
A-WALL
10
0.0000
20
15.6373
30
0
11
21.7340
21
15.6373
31
0
0
LINE
8
A-WALL
10
0.0000
20
15.2773
30
0
11
21.7340
21
15.2773
31
0
0
LINE
8
A-WALL
10
0.0000
20
6.7377
30
0
11
21.7340
21
6.7377
31
0
0
LINE
8
A-WALL
10
0.0000
20
6.3777
30
0
11
21.7340
21
6.3777
31
0
0
LINE
8
A-WALL
10
21.9140
20
15.4573
30
0
11
21.9140
21
6.5577
31
0
0
LINE
8
A-WALL
10
21.5540
20
15.4573
30
0
11
21.5540
21
6.5577
31
0
0
LINE
8
A-WALL
10
0.0000
20
6.7377
30
0
11
27.3548
21
6.7377
31
0
0
LINE
8
A-WALL
10
0.0000
20
6.3777
30
0
11
27.3548
21
6.3777
31
0
0
LINE
8
A-WALL
10
6.5577
20
36.0598
30
0
11
18.9235
21
36.0598
31
0
0
LINE
8
A-WALL
10
6.5577
20
35.6998
30
0
11
18.9235
21
35.6998
31
0
0
LINE
8
A-WALL
10
19.1035
20
44.0300
30
0
11
19.1035
21
35.8798
31
0
0
LINE
8
A-WALL
10
18.7435
20
44.0300
30
0
11
18.7435
21
35.8798
31
0
0
LINE
8
A-WALL
10
26.5980
20
44.0300
30
0
11
26.5980
21
35.8798
31
0
0
LINE
8
A-WALL
10
26.2380
20
44.0300
30
0
11
26.2380
21
35.8798
31
0
0
LINE
8
A-WALL
10
18.9235
20
36.0598
30
0
11
21.5466
21
36.0598
31
0
0
LINE
8
A-WALL
10
18.9235
20
35.6998
30
0
11
21.5466
21
35.6998
31
0
0
LINE
8
A-WALL
10
24.0760
20
36.0598
30
0
11
26.4180
21
36.0598
31
0
0
LINE
8
A-WALL
10
24.0760
20
35.6998
30
0
11
26.4180
21
35.6998
31
0
0
LINE
8
A-WALL
10
27.0664
20
44.0300
30
0
11
27.0664
21
34.6619
31
0
0
LINE
8
A-WALL
10
26.7064
20
44.0300
30
0
11
26.7064
21
34.6619
31
0
0
LINE
8
A-WALL
10
26.8864
20
41.0249
30
0
11
33.9125
21
41.0249
31
0
0
LINE
8
A-WALL
10
26.8864
20
40.6649
30
0
11
33.9125
21
40.6649
31
0
0
LINE
8
A-WALL
10
34.0925
20
40.8449
30
0
11
34.0925
21
34.6619
31
0
0
LINE
8
A-WALL
10
33.7325
20
40.8449
30
0
11
33.7325
21
34.6619
31
0
0
LINE
8
A-WALL
10
26.8864
20
34.8419
30
0
11
28.9474
21
34.8419
31
0
0
LINE
8
A-WALL
10
26.8864
20
34.4819
30
0
11
28.9474
21
34.4819
31
0
0
LINE
8
A-WALL
10
31.3831
20
34.8419
30
0
11
33.9125
21
34.8419
31
0
0
LINE
8
A-WALL
10
31.3831
20
34.4819
30
0
11
33.9125
21
34.4819
31
0
0
LINE
8
A-WALL
10
42.0553
20
44.0300
30
0
11
42.0553
21
34.6619
31
0
0
LINE
8
A-WALL
10
41.6953
20
44.0300
30
0
11
41.6953
21
34.6619
31
0
0
LINE
8
A-WALL
10
33.9125
20
34.8419
30
0
11
41.8753
21
34.8419
31
0
0
LINE
8
A-WALL
10
33.9125
20
34.4819
30
0
11
41.8753
21
34.4819
31
0
0
LINE
8
A-WALL
10
58.9179
20
44.0300
30
0
11
58.9179
21
34.6619
31
0
0
LINE
8
A-WALL
10
58.5579
20
44.0300
30
0
11
58.5579
21
34.6619
31
0
0
LINE
8
A-WALL
10
62.8525
20
44.0300
30
0
11
62.8525
21
34.6619
31
0
0
LINE
8
A-WALL
10
62.4925
20
44.0300
30
0
11
62.4925
21
34.6619
31
0
0
LINE
8
A-WALL
10
67.6302
20
44.0300
30
0
11
67.6302
21
34.6619
31
0
0
LINE
8
A-WALL
10
67.2702
20
44.0300
30
0
11
67.2702
21
34.6619
31
0
0
LINE
8
A-WALL
10
62.6725
20
34.8419
30
0
11
73.3521
21
34.8419
31
0
0
LINE
8
A-WALL
10
62.6725
20
34.4819
30
0
11
73.3521
21
34.4819
31
0
0
LINE
8
A-WALL
10
63.6956
20
34.6619
30
0
11
63.6956
21
29.3221
31
0
0
LINE
8
A-WALL
10
63.3356
20
34.6619
30
0
11
63.3356
21
29.3221
31
0
0
LINE
8
A-WALL
10
63.5156
20
29.5021
30
0
11
73.3521
21
29.5021
31
0
0
LINE
8
A-WALL
10
63.5156
20
29.1421
30
0
11
73.3521
21
29.1421
31
0
0
LINE
8
A-WALL
10
63.6956
20
29.3221
30
0
11
63.6956
21
18.7362
31
0
0
LINE
8
A-WALL
10
63.3356
20
29.3221
30
0
11
63.3356
21
18.7362
31
0
0
LINE
8
A-WALL
10
63.5156
20
18.9162
30
0
11
73.3521
21
18.9162
31
0
0
LINE
8
A-WALL
10
63.5156
20
18.5562
30
0
11
73.3521
21
18.5562
31
0
0
LINE
8
A-WALL
10
63.6956
20
18.7362
30
0
11
63.6956
21
9.6491
31
0
0
LINE
8
A-WALL
10
63.3356
20
18.7362
30
0
11
63.3356
21
9.6491
31
0
0
LINE
8
A-WALL
10
63.5156
20
9.8291
30
0
11
73.3521
21
9.8291
31
0
0
LINE
8
A-WALL
10
63.5156
20
9.4691
30
0
11
73.3521
21
9.4691
31
0
0
LINE
8
A-WALL
10
6.5577
20
32.3125
30
0
11
18.9235
21
32.3125
31
0
0
LINE
8
A-WALL
10
6.5577
20
31.9525
30
0
11
18.9235
21
31.9525
31
0
0
LINE
8
A-WALL
10
6.5577
20
26.6917
30
0
11
18.9235
21
26.6917
31
0
0
LINE
8
A-WALL
10
6.5577
20
26.3317
30
0
11
18.9235
21
26.3317
31
0
0
LINE
8
A-WALL
10
12.3585
20
32.1325
30
0
11
12.3585
21
26.5117
31
0
0
LINE
8
A-WALL
10
11.9985
20
32.1325
30
0
11
11.9985
21
26.5117
31
0
0
LINE
8
A-WALL
10
19.1035
20
32.1325
30
0
11
19.1035
21
26.5117
31
0
0
LINE
8
A-WALL
10
18.7435
20
32.1325
30
0
11
18.7435
21
26.5117
31
0
0
LINE
8
A-WALL
10
6.5577
20
21.7266
30
0
11
20.2351
21
21.7266
31
0
0
LINE
8
A-WALL
10
6.5577
20
21.3666
30
0
11
20.2351
21
21.3666
31
0
0
LINE
8
A-WALL
10
20.4151
20
26.5117
30
0
11
20.4151
21
21.5466
31
0
0
LINE
8
A-WALL
10
20.0551
20
26.5117
30
0
11
20.0551
21
21.5466
31
0
0
LINE
8
A-WALL
10
20.2351
20
26.6917
30
0
11
27.1674
21
26.6917
31
0
0
LINE
8
A-WALL
10
20.2351
20
26.3317
30
0
11
27.1674
21
26.3317
31
0
0
LINE
8
A-WALL
10
20.2351
20
21.7266
30
0
11
30.1652
21
21.7266
31
0
0
LINE
8
A-WALL
10
20.2351
20
21.3666
30
0
11
30.1652
21
21.3666
31
0
0
LINE
8
A-WALL
10
30.3452
20
21.5466
30
0
11
30.3452
21
17.6120
31
0
0
LINE
8
A-WALL
10
29.9852
20
21.5466
30
0
11
29.9852
21
17.6120
31
0
0
LINE
8
A-WALL
10
30.1652
20
17.7920
30
0
11
41.4069
21
17.7920
31
0
0
LINE
8
A-WALL
10
30.1652
20
17.4320
30
0
11
41.4069
21
17.4320
31
0
0
LINE
8
A-WALL
10
47.4962
20
17.7920
30
0
11
52.1802
21
17.7920
31
0
0
LINE
8
A-WALL
10
47.4962
20
17.4320
30
0
11
52.1802
21
17.4320
31
0
0
LINE
8
A-WALL
10
55.4591
20
17.7920
30
0
11
60.8926
21
17.7920
31
0
0
LINE
8
A-WALL
10
55.4591
20
17.4320
30
0
11
60.8926
21
17.4320
31
0
0
LINE
8
A-WALL
10
19.1035
20
15.4573
30
0
11
19.1035
21
6.5577
31
0
0
LINE
8
A-WALL
10
18.7435
20
15.4573
30
0
11
18.7435
21
6.5577
31
0
0
LINE
8
A-WALL
10
18.9235
20
15.6373
30
0
11
27.3548
21
15.6373
31
0
0
LINE
8
A-WALL
10
18.9235
20
15.2773
30
0
11
27.3548
21
15.2773
31
0
0
LINE
8
A-WALL
10
27.5348
20
15.4573
30
0
11
27.5348
21
6.5577
31
0
0
LINE
8
A-WALL
10
27.1748
20
15.4573
30
0
11
27.1748
21
6.5577
31
0
0
LINE
8
A-WALL
10
27.5348
20
15.4573
30
0
11
27.5348
21
2.1547
31
0
0
LINE
8
A-WALL
10
27.1748
20
15.4573
30
0
11
27.1748
21
2.1547
31
0
0
LINE
8
A-WALL
10
27.3548
20
15.6373
30
0
11
40.4701
21
15.6373
31
0
0
LINE
8
A-WALL
10
27.3548
20
15.2773
30
0
11
40.4701
21
15.2773
31
0
0
LINE
8
A-WALL
10
40.6501
20
15.4573
30
0
11
40.6501
21
2.1547
31
0
0
LINE
8
A-WALL
10
40.2901
20
15.4573
30
0
11
40.2901
21
2.1547
31
0
0
LINE
8
A-WALL
10
40.6501
20
15.4573
30
0
11
40.6501
21
2.1547
31
0
0
LINE
8
A-WALL
10
40.2901
20
15.4573
30
0
11
40.2901
21
2.1547
31
0
0
LINE
8
A-WALL
10
46.4583
20
15.4573
30
0
11
46.4583
21
2.1547
31
0
0
LINE
8
A-WALL
10
46.0983
20
15.4573
30
0
11
46.0983
21
2.1547
31
0
0
LINE
8
A-WALL
10
40.4701
20
15.6373
30
0
11
46.2783
21
15.6373
31
0
0
LINE
8
A-WALL
10
40.4701
20
15.2773
30
0
11
46.2783
21
15.2773
31
0
0
LINE
8
A-WALL
10
48.8940
20
15.4573
30
0
11
48.8940
21
0.0000
31
0
0
LINE
8
A-WALL
10
48.5340
20
15.4573
30
0
11
48.5340
21
0.0000
31
0
0
LINE
8
A-WALL
10
48.7140
20
15.6373
30
0
11
52.2739
21
15.6373
31
0
0
LINE
8
A-WALL
10
48.7140
20
15.2773
30
0
11
52.2739
21
15.2773
31
0
0
LINE
8
A-WALL
10
55.4591
20
15.6373
30
0
11
60.8926
21
15.6373
31
0
0
LINE
8
A-WALL
10
55.4591
20
15.2773
30
0
11
60.8926
21
15.2773
31
0
0
LINE
8
A-WALL
10
61.0726
20
15.4573
30
0
11
61.0726
21
0.0000
31
0
0
LINE
8
A-WALL
10
60.7126
20
15.4573
30
0
11
60.7126
21
0.0000
31
0
0
LINE
8
A-WALL
10
48.7140
20
9.8291
30
0
11
60.8926
21
9.8291
31
0
0
LINE
8
A-WALL
10
48.7140
20
9.4691
30
0
11
60.8926
21
9.4691
31
0
0
LINE
8
A-WALL-CAP
10
0.0000
20
44.2100
30
0
11
0.0000
21
43.8500
31
0
0
LINE
8
A-WALL-CAP
10
20.3287
20
44.2100
30
0
11
20.3287
21
43.8500
31
0
0
LINE
8
A-WALL-CAP
10
23.8886
20
44.2100
30
0
11
23.8886
21
43.8500
31
0
0
LINE
8
A-WALL-CAP
10
28.7600
20
44.2100
30
0
11
28.7600
21
43.8500
31
0
0
LINE
8
A-WALL-CAP
10
32.0389
20
44.2100
30
0
11
32.0389
21
43.8500
31
0
0
LINE
8
A-WALL-CAP
10
44.6858
20
44.2100
30
0
11
44.6858
21
43.8500
31
0
0
LINE
8
A-WALL-CAP
10
48.4330
20
44.2100
30
0
11
48.4330
21
43.8500
31
0
0
LINE
8
A-WALL-CAP
10
62.0167
20
44.2100
30
0
11
62.0167
21
43.8500
31
0
0
LINE
8
A-WALL-CAP
10
67.1692
20
44.2100
30
0
11
67.1692
21
43.8500
31
0
0
LINE
8
A-WALL-CAP
10
73.3521
20
44.2100
30
0
11
73.3521
21
43.8500
31
0
0
LINE
8
A-WALL-CAP
10
73.5321
20
44.0300
30
0
11
73.1721
21
44.0300
31
0
0
LINE
8
A-WALL-CAP
10
73.5321
20
0.0000
30
0
11
73.1721
21
0.0000
31
0
0
LINE
8
A-WALL-CAP
10
0.0000
20
0.1800
30
0
11
0.0000
21
-0.1800
31
0
0
LINE
8
A-WALL-CAP
10
27.3548
20
0.1800
30
0
11
27.3548
21
-0.1800
31
0
0
LINE
8
A-WALL-CAP
10
31.2894
20
0.1800
30
0
11
31.2894
21
-0.1800
31
0
0
LINE
8
A-WALL-CAP
10
59.6747
20
0.1800
30
0
11
59.6747
21
-0.1800
31
0
0
LINE
8
A-WALL-CAP
10
64.3587
20
0.1800
30
0
11
64.3587
21
-0.1800
31
0
0
LINE
8
A-WALL-CAP
10
67.4502
20
0.1800
30
0
11
67.4502
21
-0.1800
31
0
0
LINE
8
A-WALL-CAP
10
72.5090
20
0.1800
30
0
11
72.5090
21
-0.1800
31
0
0
LINE
8
A-WALL-CAP
10
73.3521
20
0.1800
30
0
11
73.3521
21
-0.1800
31
0
0
LINE
8
A-WALL-CAP
10
0.1800
20
44.0300
30
0
11
-0.1800
21
44.0300
31
0
0
LINE
8
A-WALL-CAP
10
0.1800
20
19.9540
30
0
11
-0.1800
21
19.9540
31
0
0
LINE
8
A-WALL-CAP
10
0.1800
20
19.9540
30
0
11
-0.1800
21
19.9540
31
0
0
LINE
8
A-WALL-CAP
10
0.1800
20
17.6120
30
0
11
-0.1800
21
17.6120
31
0
0
LINE
8
A-WALL-CAP
10
0.1800
20
15.4573
30
0
11
-0.1800
21
15.4573
31
0
0
LINE
8
A-WALL-CAP
10
0.1800
20
0.0000
30
0
11
-0.1800
21
0.0000
31
0
0
LINE
8
A-WALL-CAP
10
6.7377
20
44.0300
30
0
11
6.3777
21
44.0300
31
0
0
LINE
8
A-WALL-CAP
10
6.7377
20
19.9540
30
0
11
6.3777
21
19.9540
31
0
0
LINE
8
A-WALL-CAP
10
0.0000
20
34.4672
30
0
11
0.0000
21
34.1072
31
0
0
LINE
8
A-WALL-CAP
10
6.5577
20
34.4672
30
0
11
6.5577
21
34.1072
31
0
0
LINE
8
A-WALL-CAP
10
0.0000
20
20.1340
30
0
11
0.0000
21
19.7740
31
0
0
LINE
8
A-WALL-CAP
10
6.5577
20
20.1340
30
0
11
6.5577
21
19.7740
31
0
0
LINE
8
A-WALL-CAP
10
0.0000
20
15.6373
30
0
11
0.0000
21
15.2773
31
0
0
LINE
8
A-WALL-CAP
10
21.7340
20
15.6373
30
0
11
21.7340
21
15.2773
31
0
0
LINE
8
A-WALL-CAP
10
0.0000
20
6.7377
30
0
11
0.0000
21
6.3777
31
0
0
LINE
8
A-WALL-CAP
10
21.7340
20
6.7377
30
0
11
21.7340
21
6.3777
31
0
0
LINE
8
A-WALL-CAP
10
21.9140
20
15.4573
30
0
11
21.5540
21
15.4573
31
0
0
LINE
8
A-WALL-CAP
10
21.9140
20
6.5577
30
0
11
21.5540
21
6.5577
31
0
0
LINE
8
A-WALL-CAP
10
0.0000
20
6.7377
30
0
11
0.0000
21
6.3777
31
0
0
LINE
8
A-WALL-CAP
10
27.3548
20
6.7377
30
0
11
27.3548
21
6.3777
31
0
0
LINE
8
A-WALL-CAP
10
6.5577
20
36.0598
30
0
11
6.5577
21
35.6998
31
0
0
LINE
8
A-WALL-CAP
10
18.9235
20
36.0598
30
0
11
18.9235
21
35.6998
31
0
0
LINE
8
A-WALL-CAP
10
19.1035
20
44.0300
30
0
11
18.7435
21
44.0300
31
0
0
LINE
8
A-WALL-CAP
10
19.1035
20
35.8798
30
0
11
18.7435
21
35.8798
31
0
0
LINE
8
A-WALL-CAP
10
26.5980
20
44.0300
30
0
11
26.2380
21
44.0300
31
0
0
LINE
8
A-WALL-CAP
10
26.5980
20
35.8798
30
0
11
26.2380
21
35.8798
31
0
0
LINE
8
A-WALL-CAP
10
18.9235
20
36.0598
30
0
11
18.9235
21
35.6998
31
0
0
LINE
8
A-WALL-CAP
10
21.5466
20
36.0598
30
0
11
21.5466
21
35.6998
31
0
0
LINE
8
A-WALL-CAP
10
24.0760
20
36.0598
30
0
11
24.0760
21
35.6998
31
0
0
LINE
8
A-WALL-CAP
10
26.4180
20
36.0598
30
0
11
26.4180
21
35.6998
31
0
0
LINE
8
A-WALL-CAP
10
27.0664
20
44.0300
30
0
11
26.7064
21
44.0300
31
0
0
LINE
8
A-WALL-CAP
10
27.0664
20
34.6619
30
0
11
26.7064
21
34.6619
31
0
0
LINE
8
A-WALL-CAP
10
26.8864
20
41.0249
30
0
11
26.8864
21
40.6649
31
0
0
LINE
8
A-WALL-CAP
10
33.9125
20
41.0249
30
0
11
33.9125
21
40.6649
31
0
0
LINE
8
A-WALL-CAP
10
34.0925
20
40.8449
30
0
11
33.7325
21
40.8449
31
0
0
LINE
8
A-WALL-CAP
10
34.0925
20
34.6619
30
0
11
33.7325
21
34.6619
31
0
0
LINE
8
A-WALL-CAP
10
26.8864
20
34.8419
30
0
11
26.8864
21
34.4819
31
0
0
LINE
8
A-WALL-CAP
10
28.9474
20
34.8419
30
0
11
28.9474
21
34.4819
31
0
0
LINE
8
A-WALL-CAP
10
31.3831
20
34.8419
30
0
11
31.3831
21
34.4819
31
0
0
LINE
8
A-WALL-CAP
10
33.9125
20
34.8419
30
0
11
33.9125
21
34.4819
31
0
0
LINE
8
A-WALL-CAP
10
42.0553
20
44.0300
30
0
11
41.6953
21
44.0300
31
0
0
LINE
8
A-WALL-CAP
10
42.0553
20
34.6619
30
0
11
41.6953
21
34.6619
31
0
0
LINE
8
A-WALL-CAP
10
33.9125
20
34.8419
30
0
11
33.9125
21
34.4819
31
0
0
LINE
8
A-WALL-CAP
10
41.8753
20
34.8419
30
0
11
41.8753
21
34.4819
31
0
0
LINE
8
A-WALL-CAP
10
58.9179
20
44.0300
30
0
11
58.5579
21
44.0300
31
0
0
LINE
8
A-WALL-CAP
10
58.9179
20
34.6619
30
0
11
58.5579
21
34.6619
31
0
0
LINE
8
A-WALL-CAP
10
62.8525
20
44.0300
30
0
11
62.4925
21
44.0300
31
0
0
LINE
8
A-WALL-CAP
10
62.8525
20
34.6619
30
0
11
62.4925
21
34.6619
31
0
0
LINE
8
A-WALL-CAP
10
67.6302
20
44.0300
30
0
11
67.2702
21
44.0300
31
0
0
LINE
8
A-WALL-CAP
10
67.6302
20
34.6619
30
0
11
67.2702
21
34.6619
31
0
0
LINE
8
A-WALL-CAP
10
62.6725
20
34.8419
30
0
11
62.6725
21
34.4819
31
0
0
LINE
8
A-WALL-CAP
10
73.3521
20
34.8419
30
0
11
73.3521
21
34.4819
31
0
0
LINE
8
A-WALL-CAP
10
63.6956
20
34.6619
30
0
11
63.3356
21
34.6619
31
0
0
LINE
8
A-WALL-CAP
10
63.6956
20
29.3221
30
0
11
63.3356
21
29.3221
31
0
0
LINE
8
A-WALL-CAP
10
63.5156
20
29.5021
30
0
11
63.5156
21
29.1421
31
0
0
LINE
8
A-WALL-CAP
10
73.3521
20
29.5021
30
0
11
73.3521
21
29.1421
31
0
0
LINE
8
A-WALL-CAP
10
63.6956
20
29.3221
30
0
11
63.3356
21
29.3221
31
0
0
LINE
8
A-WALL-CAP
10
63.6956
20
18.7362
30
0
11
63.3356
21
18.7362
31
0
0
LINE
8
A-WALL-CAP
10
63.5156
20
18.9162
30
0
11
63.5156
21
18.5562
31
0
0
LINE
8
A-WALL-CAP
10
73.3521
20
18.9162
30
0
11
73.3521
21
18.5562
31
0
0
LINE
8
A-WALL-CAP
10
63.6956
20
18.7362
30
0
11
63.3356
21
18.7362
31
0
0
LINE
8
A-WALL-CAP
10
63.6956
20
9.6491
30
0
11
63.3356
21
9.6491
31
0
0
LINE
8
A-WALL-CAP
10
63.5156
20
9.8291
30
0
11
63.5156
21
9.4691
31
0
0
LINE
8
A-WALL-CAP
10
73.3521
20
9.8291
30
0
11
73.3521
21
9.4691
31
0
0
LINE
8
A-WALL-CAP
10
6.5577
20
32.3125
30
0
11
6.5577
21
31.9525
31
0
0
LINE
8
A-WALL-CAP
10
18.9235
20
32.3125
30
0
11
18.9235
21
31.9525
31
0
0
LINE
8
A-WALL-CAP
10
6.5577
20
26.6917
30
0
11
6.5577
21
26.3317
31
0
0
LINE
8
A-WALL-CAP
10
18.9235
20
26.6917
30
0
11
18.9235
21
26.3317
31
0
0
LINE
8
A-WALL-CAP
10
12.3585
20
32.1325
30
0
11
11.9985
21
32.1325
31
0
0
LINE
8
A-WALL-CAP
10
12.3585
20
26.5117
30
0
11
11.9985
21
26.5117
31
0
0
LINE
8
A-WALL-CAP
10
19.1035
20
32.1325
30
0
11
18.7435
21
32.1325
31
0
0
LINE
8
A-WALL-CAP
10
19.1035
20
26.5117
30
0
11
18.7435
21
26.5117
31
0
0
LINE
8
A-WALL-CAP
10
6.5577
20
21.7266
30
0
11
6.5577
21
21.3666
31
0
0
LINE
8
A-WALL-CAP
10
20.2351
20
21.7266
30
0
11
20.2351
21
21.3666
31
0
0
LINE
8
A-WALL-CAP
10
20.4151
20
26.5117
30
0
11
20.0551
21
26.5117
31
0
0
LINE
8
A-WALL-CAP
10
20.4151
20
21.5466
30
0
11
20.0551
21
21.5466
31
0
0
LINE
8
A-WALL-CAP
10
20.2351
20
26.6917
30
0
11
20.2351
21
26.3317
31
0
0
LINE
8
A-WALL-CAP
10
27.1674
20
26.6917
30
0
11
27.1674
21
26.3317
31
0
0
LINE
8
A-WALL-CAP
10
20.2351
20
21.7266
30
0
11
20.2351
21
21.3666
31
0
0
LINE
8
A-WALL-CAP
10
30.1652
20
21.7266
30
0
11
30.1652
21
21.3666
31
0
0
LINE
8
A-WALL-CAP
10
30.3452
20
21.5466
30
0
11
29.9852
21
21.5466
31
0
0
LINE
8
A-WALL-CAP
10
30.3452
20
17.6120
30
0
11
29.9852
21
17.6120
31
0
0
LINE
8
A-WALL-CAP
10
30.1652
20
17.7920
30
0
11
30.1652
21
17.4320
31
0
0
LINE
8
A-WALL-CAP
10
41.4069
20
17.7920
30
0
11
41.4069
21
17.4320
31
0
0
LINE
8
A-WALL-CAP
10
47.4962
20
17.7920
30
0
11
47.4962
21
17.4320
31
0
0
LINE
8
A-WALL-CAP
10
52.1802
20
17.7920
30
0
11
52.1802
21
17.4320
31
0
0
LINE
8
A-WALL-CAP
10
55.4591
20
17.7920
30
0
11
55.4591
21
17.4320
31
0
0
LINE
8
A-WALL-CAP
10
60.8926
20
17.7920
30
0
11
60.8926
21
17.4320
31
0
0
LINE
8
A-WALL-CAP
10
19.1035
20
15.4573
30
0
11
18.7435
21
15.4573
31
0
0
LINE
8
A-WALL-CAP
10
19.1035
20
6.5577
30
0
11
18.7435
21
6.5577
31
0
0
LINE
8
A-WALL-CAP
10
18.9235
20
15.6373
30
0
11
18.9235
21
15.2773
31
0
0
LINE
8
A-WALL-CAP
10
27.3548
20
15.6373
30
0
11
27.3548
21
15.2773
31
0
0
LINE
8
A-WALL-CAP
10
27.5348
20
15.4573
30
0
11
27.1748
21
15.4573
31
0
0
LINE
8
A-WALL-CAP
10
27.5348
20
6.5577
30
0
11
27.1748
21
6.5577
31
0
0
LINE
8
A-WALL-CAP
10
27.5348
20
15.4573
30
0
11
27.1748
21
15.4573
31
0
0
LINE
8
A-WALL-CAP
10
27.5348
20
2.1547
30
0
11
27.1748
21
2.1547
31
0
0
LINE
8
A-WALL-CAP
10
27.3548
20
15.6373
30
0
11
27.3548
21
15.2773
31
0
0
LINE
8
A-WALL-CAP
10
40.4701
20
15.6373
30
0
11
40.4701
21
15.2773
31
0
0
LINE
8
A-WALL-CAP
10
40.6501
20
15.4573
30
0
11
40.2901
21
15.4573
31
0
0
LINE
8
A-WALL-CAP
10
40.6501
20
2.1547
30
0
11
40.2901
21
2.1547
31
0
0
LINE
8
A-WALL-CAP
10
40.6501
20
15.4573
30
0
11
40.2901
21
15.4573
31
0
0
LINE
8
A-WALL-CAP
10
40.6501
20
2.1547
30
0
11
40.2901
21
2.1547
31
0
0
LINE
8
A-WALL-CAP
10
46.4583
20
15.4573
30
0
11
46.0983
21
15.4573
31
0
0
LINE
8
A-WALL-CAP
10
46.4583
20
2.1547
30
0
11
46.0983
21
2.1547
31
0
0
LINE
8
A-WALL-CAP
10
40.4701
20
15.6373
30
0
11
40.4701
21
15.2773
31
0
0
LINE
8
A-WALL-CAP
10
46.2783
20
15.6373
30
0
11
46.2783
21
15.2773
31
0
0
LINE
8
A-WALL-CAP
10
48.8940
20
15.4573
30
0
11
48.5340
21
15.4573
31
0
0
LINE
8
A-WALL-CAP
10
48.8940
20
0.0000
30
0
11
48.5340
21
0.0000
31
0
0
LINE
8
A-WALL-CAP
10
48.7140
20
15.6373
30
0
11
48.7140
21
15.2773
31
0
0
LINE
8
A-WALL-CAP
10
52.2739
20
15.6373
30
0
11
52.2739
21
15.2773
31
0
0
LINE
8
A-WALL-CAP
10
55.4591
20
15.6373
30
0
11
55.4591
21
15.2773
31
0
0
LINE
8
A-WALL-CAP
10
60.8926
20
15.6373
30
0
11
60.8926
21
15.2773
31
0
0
LINE
8
A-WALL-CAP
10
61.0726
20
15.4573
30
0
11
60.7126
21
15.4573
31
0
0
LINE
8
A-WALL-CAP
10
61.0726
20
0.0000
30
0
11
60.7126
21
0.0000
31
0
0
LINE
8
A-WALL-CAP
10
48.7140
20
9.8291
30
0
11
48.7140
21
9.4691
31
0
0
LINE
8
A-WALL-CAP
10
60.8926
20
9.8291
30
0
11
60.8926
21
9.4691
31
0
0
LINE
8
A-GLAZ
10
12.8343
20
17.6120
30
0
11
30.1652
21
17.6120
31
0
0
LINE
8
A-GLAZ
10
12.8343
20
21.5466
30
0
11
20.2351
21
21.5466
31
0
0
LINE
8
A-REF-DIMS
10
0.0000
20
45.5289
30
0
11
73.3521
21
45.5289
31
0
0
LINE
8
A-REF-DIMS
10
0.0000
20
46.2783
30
0
11
73.3521
21
46.2783
31
0
0
LINE
8
A-REF-DIMS
10
-1.3115
20
44.0300
30
0
11
-1.3115
21
0.0000
31
0
0
LINE
8
A-REF-DIMS
10
74.6636
20
44.0300
30
0
11
74.6636
21
0.0000
31
0
0
LINE
8
A-REF-DIMS
10
0.0000
20
44.0300
30
0
11
-1.3115
21
44.0300
31
0
0
LINE
8
A-REF-DIMS
10
0.0000
20
0.0000
30
0
11
-1.3115
21
0.0000
31
0
0
LINE
8
A-REF-DIMS
10
73.3521
20
44.0300
30
0
11
74.6636
21
44.0300
31
0
0
LINE
8
A-REF-DIMS
10
73.3521
20
0.0000
30
0
11
74.6636
21
0.0000
31
0
0
LINE
8
A-GLAZ
10
20.3287
20
44.0300
30
0
11
23.8886
21
44.0300
31
0
0
LINE
8
A-GLAZ
10
20.3287
20
44.1100
30
0
11
23.8886
21
44.1100
31
0
0
LINE
8
A-GLAZ
10
20.3287
20
43.9500
30
0
11
23.8886
21
43.9500
31
0
0
LINE
8
A-GLAZ
10
20.1487
20
44.0300
30
0
11
20.3287
21
44.3300
31
0
0
LINE
8
A-GLAZ
10
24.0686
20
44.0300
30
0
11
23.8886
21
44.3300
31
0
0
LINE
8
A-GLAZ
10
20.3287
20
43.7300
30
0
11
23.8886
21
43.7300
31
0
0
LINE
8
A-GLAZ
10
28.7600
20
44.0300
30
0
11
32.0389
21
44.0300
31
0
0
LINE
8
A-GLAZ
10
28.7600
20
44.1100
30
0
11
32.0389
21
44.1100
31
0
0
LINE
8
A-GLAZ
10
28.7600
20
43.9500
30
0
11
32.0389
21
43.9500
31
0
0
LINE
8
A-GLAZ
10
28.5800
20
44.0300
30
0
11
28.7600
21
44.3300
31
0
0
LINE
8
A-GLAZ
10
32.2189
20
44.0300
30
0
11
32.0389
21
44.3300
31
0
0
LINE
8
A-GLAZ
10
28.7600
20
43.7300
30
0
11
32.0389
21
43.7300
31
0
0
LINE
8
A-GLAZ
10
44.6858
20
44.0300
30
0
11
48.4330
21
44.0300
31
0
0
LINE
8
A-GLAZ
10
44.6858
20
44.1100
30
0
11
48.4330
21
44.1100
31
0
0
LINE
8
A-GLAZ
10
44.6858
20
43.9500
30
0
11
48.4330
21
43.9500
31
0
0
LINE
8
A-GLAZ
10
44.5058
20
44.0300
30
0
11
44.6858
21
44.3300
31
0
0
LINE
8
A-GLAZ
10
48.6130
20
44.0300
30
0
11
48.4330
21
44.3300
31
0
0
LINE
8
A-GLAZ
10
44.6858
20
43.7300
30
0
11
48.4330
21
43.7300
31
0
0
LINE
8
A-GLAZ
10
62.0167
20
44.0300
30
0
11
67.1692
21
44.0300
31
0
0
LINE
8
A-GLAZ
10
62.0167
20
44.1100
30
0
11
67.1692
21
44.1100
31
0
0
LINE
8
A-GLAZ
10
62.0167
20
43.9500
30
0
11
67.1692
21
43.9500
31
0
0
LINE
8
A-GLAZ
10
61.8367
20
44.0300
30
0
11
62.0167
21
44.3300
31
0
0
LINE
8
A-GLAZ
10
67.3492
20
44.0300
30
0
11
67.1692
21
44.3300
31
0
0
LINE
8
A-GLAZ
10
62.0167
20
43.7300
30
0
11
67.1692
21
43.7300
31
0
0
LINE
8
A-GLAZ
10
27.3548
20
0.0000
30
0
11
31.2894
21
0.0000
31
0
0
LINE
8
A-GLAZ
10
27.3548
20
0.0800
30
0
11
31.2894
21
0.0800
31
0
0
LINE
8
A-GLAZ
10
27.3548
20
-0.0800
30
0
11
31.2894
21
-0.0800
31
0
0
LINE
8
A-GLAZ
10
27.1748
20
0.0000
30
0
11
27.3548
21
0.3000
31
0
0
LINE
8
A-GLAZ
10
31.4694
20
0.0000
30
0
11
31.2894
21
0.3000
31
0
0
LINE
8
A-GLAZ
10
27.3548
20
-0.3000
30
0
11
31.2894
21
-0.3000
31
0
0
LINE
8
A-GLAZ
10
59.6747
20
0.0000
30
0
11
64.3587
21
0.0000
31
0
0
LINE
8
A-GLAZ
10
59.6747
20
0.0800
30
0
11
64.3587
21
0.0800
31
0
0
LINE
8
A-GLAZ
10
59.6747
20
-0.0800
30
0
11
64.3587
21
-0.0800
31
0
0
LINE
8
A-GLAZ
10
59.4947
20
0.0000
30
0
11
59.6747
21
0.3000
31
0
0
LINE
8
A-GLAZ
10
64.5387
20
0.0000
30
0
11
64.3587
21
0.3000
31
0
0
LINE
8
A-GLAZ
10
59.6747
20
-0.3000
30
0
11
64.3587
21
-0.3000
31
0
0
LINE
8
A-GLAZ
10
67.4502
20
0.0000
30
0
11
72.5090
21
0.0000
31
0
0
LINE
8
A-GLAZ
10
67.4502
20
0.0800
30
0
11
72.5090
21
0.0800
31
0
0
LINE
8
A-GLAZ
10
67.4502
20
-0.0800
30
0
11
72.5090
21
-0.0800
31
0
0
LINE
8
A-GLAZ
10
67.2702
20
0.0000
30
0
11
67.4502
21
0.3000
31
0
0
LINE
8
A-GLAZ
10
72.6890
20
0.0000
30
0
11
72.5090
21
0.3000
31
0
0
LINE
8
A-GLAZ
10
67.4502
20
-0.3000
30
0
11
72.5090
21
-0.3000
31
0
0
LINE
8
A-GLAZ
10
0.0000
20
42.9058
30
0
11
0.0000
21
35.8798
31
0
0
LINE
8
A-GLAZ
10
0.0800
20
42.9058
30
0
11
0.0800
21
35.8798
31
0
0
LINE
8
A-GLAZ
10
-0.0800
20
42.9058
30
0
11
-0.0800
21
35.8798
31
0
0
LINE
8
A-GLAZ
10
0.0000
20
43.0858
30
0
11
0.3000
21
42.9058
31
0
0
LINE
8
A-GLAZ
10
0.0000
20
35.6998
30
0
11
0.3000
21
35.8798
31
0
0
LINE
8
A-GLAZ
10
-0.3000
20
42.9058
30
0
11
-0.3000
21
35.8798
31
0
0
LINE
8
A-GLAZ
10
0.0000
20
32.1325
30
0
11
0.0000
21
21.5466
31
0
0
LINE
8
A-GLAZ
10
0.0800
20
32.1325
30
0
11
0.0800
21
21.5466
31
0
0
LINE
8
A-GLAZ
10
-0.0800
20
32.1325
30
0
11
-0.0800
21
21.5466
31
0
0
LINE
8
A-GLAZ
10
0.0000
20
32.3125
30
0
11
0.3000
21
32.1325
31
0
0
LINE
8
A-GLAZ
10
0.0000
20
21.3666
30
0
11
0.3000
21
21.5466
31
0
0
LINE
8
A-GLAZ
10
-0.3000
20
32.1325
30
0
11
-0.3000
21
21.5466
31
0
0
LINE
8
A-GLAZ
10
73.3521
20
29.3221
30
0
11
73.3521
21
18.7362
31
0
0
LINE
8
A-GLAZ
10
73.4321
20
29.3221
30
0
11
73.4321
21
18.7362
31
0
0
LINE
8
A-GLAZ
10
73.2721
20
29.3221
30
0
11
73.2721
21
18.7362
31
0
0
LINE
8
A-GLAZ
10
73.3521
20
29.5021
30
0
11
73.6521
21
29.3221
31
0
0
LINE
8
A-GLAZ
10
73.3521
20
18.5562
30
0
11
73.6521
21
18.7362
31
0
0
LINE
8
A-GLAZ
10
73.0521
20
29.3221
30
0
11
73.0521
21
18.7362
31
0
0
LINE
8
A-GLAZ
10
73.3521
20
9.6491
30
0
11
73.3521
21
2.1547
31
0
0
LINE
8
A-GLAZ
10
73.4321
20
9.6491
30
0
11
73.4321
21
2.1547
31
0
0
LINE
8
A-GLAZ
10
73.2721
20
9.6491
30
0
11
73.2721
21
2.1547
31
0
0
LINE
8
A-GLAZ
10
73.3521
20
9.8291
30
0
11
73.6521
21
9.6491
31
0
0
LINE
8
A-GLAZ
10
73.3521
20
1.9747
30
0
11
73.6521
21
2.1547
31
0
0
LINE
8
A-GLAZ
10
73.0521
20
9.6491
30
0
11
73.0521
21
2.1547
31
0
0
LINE
8
A-DOOR
10
6.5577
20
35.5987
30
0
11
6.5577
21
38.1487
31
0
0
LINE
8
A-DOOR
10
6.5577
20
35.5987
30
0
11
4.0077
21
35.5987
31
0
0
ARC
8
A-DOOR
10
6.5577
20
35.5987
30
0
40
2.5500
50
90.00
51
180.00
0
LINE
8
A-DOOR-JAMB
10
6.5577
20
35.7687
30
0
11
6.5577
21
35.4287
31
0
0
LINE
8
A-DOOR-JAMB
10
4.0077
20
35.7687
30
0
11
4.0077
21
35.4287
31
0
0
LINE
8
A-DOOR
10
0.0000
20
19.9540
30
0
11
0.0000
21
22.8040
31
0
0
LINE
8
A-DOOR
10
0.0000
20
19.9540
30
0
11
2.8500
21
19.9540
31
0
0
ARC
8
A-DOOR
10
0.0000
20
19.9540
30
0
40
2.8500
50
0.00
51
90.00
0
LINE
8
A-DOOR-JAMB
10
0.0000
20
19.7840
30
0
11
0.0000
21
20.1240
31
0
0
LINE
8
A-DOOR-JAMB
10
2.8500
20
19.7840
30
0
11
2.8500
21
20.1240
31
0
0
LINE
8
A-DOOR
10
6.5577
20
19.9540
30
0
11
6.5577
21
22.7040
31
0
0
LINE
8
A-DOOR
10
6.5577
20
19.9540
30
0
11
3.8077
21
19.9540
31
0
0
ARC
8
A-DOOR
10
6.5577
20
19.9540
30
0
40
2.7500
50
90.00
51
180.00
0
LINE
8
A-DOOR-JAMB
10
6.5577
20
20.1240
30
0
11
6.5577
21
19.7840
31
0
0
LINE
8
A-DOOR-JAMB
10
3.8077
20
20.1240
30
0
11
3.8077
21
19.7840
31
0
0
LINE
8
A-DOOR
10
18.9235
20
37.0039
30
0
11
18.9235
21
39.8539
31
0
0
LINE
8
A-DOOR
10
18.9235
20
37.0039
30
0
11
16.0735
21
37.0039
31
0
0
ARC
8
A-DOOR
10
18.9235
20
37.0039
30
0
40
2.8500
50
90.00
51
180.00
0
LINE
8
A-DOOR-JAMB
10
18.9235
20
37.1739
30
0
11
18.9235
21
36.8339
31
0
0
LINE
8
A-DOOR-JAMB
10
16.0735
20
37.1739
30
0
11
16.0735
21
36.8339
31
0
0
LINE
8
A-DOOR
10
12.1785
20
32.1325
30
0
11
14.5285
21
32.1325
31
0
0
LINE
8
A-DOOR
10
12.1785
20
32.1325
30
0
11
12.1785
21
34.4825
31
0
0
ARC
8
A-DOOR
10
12.1785
20
32.1325
30
0
40
2.3500
50
0.00
51
90.00
0
LINE
8
A-DOOR-JAMB
10
12.3485
20
32.1325
30
0
11
12.0085
21
32.1325
31
0
0
LINE
8
A-DOOR-JAMB
10
12.3485
20
34.4825
30
0
11
12.0085
21
34.4825
31
0
0
LINE
8
A-DOOR
10
14.0521
20
32.1325
30
0
11
11.7021
21
32.1325
31
0
0
LINE
8
A-DOOR
10
14.0521
20
32.1325
30
0
11
14.0521
21
34.4825
31
0
0
ARC
8
A-DOOR
10
14.0521
20
32.1325
30
0
40
2.3500
50
90.00
51
180.00
0
LINE
8
A-DOOR-JAMB
10
14.2221
20
32.1325
30
0
11
13.8821
21
32.1325
31
0
0
LINE
8
A-DOOR-JAMB
10
14.2221
20
34.4825
30
0
11
13.8821
21
34.4825
31
0
0
LINE
8
A-DOOR
10
26.8864
20
40.8449
30
0
11
24.8364
21
40.8449
31
0
0
LINE
8
A-DOOR
10
26.8864
20
40.8449
30
0
11
26.8864
21
38.7949
31
0
0
ARC
8
A-DOOR
10
26.8864
20
40.8449
30
0
40
2.0500
50
180.00
51
270.00
0
LINE
8
A-DOOR-JAMB
10
26.7164
20
40.8449
30
0
11
27.0564
21
40.8449
31
0
0
LINE
8
A-DOOR-JAMB
10
26.7164
20
38.7949
30
0
11
27.0564
21
38.7949
31
0
0
LINE
8
A-DOOR
10
28.9474
20
34.6619
30
0
11
30.8974
21
34.6619
31
0
0
LINE
8
A-DOOR
10
28.9474
20
34.6619
30
0
11
28.9474
21
36.6119
31
0
0
ARC
8
A-DOOR
10
28.9474
20
34.6619
30
0
40
1.9500
50
0.00
51
90.00
0
LINE
8
A-DOOR-JAMB
10
29.1174
20
34.6619
30
0
11
28.7774
21
34.6619
31
0
0
LINE
8
A-DOOR-JAMB
10
29.1174
20
36.6119
30
0
11
28.7774
21
36.6119
31
0
0
LINE
8
A-DOOR
10
31.3831
20
34.6619
30
0
11
29.4331
21
34.6619
31
0
0
LINE
8
A-DOOR
10
31.3831
20
34.6619
30
0
11
31.3831
21
36.6119
31
0
0
ARC
8
A-DOOR
10
31.3831
20
34.6619
30
0
40
1.9500
50
90.00
51
180.00
0
LINE
8
A-DOOR-JAMB
10
31.5531
20
34.6619
30
0
11
31.2131
21
34.6619
31
0
0
LINE
8
A-DOOR-JAMB
10
31.5531
20
36.6119
30
0
11
31.2131
21
36.6119
31
0
0
LINE
8
A-DOOR
10
41.8753
20
34.6619
30
0
11
41.8753
21
37.3119
31
0
0
LINE
8
A-DOOR
10
41.8753
20
34.6619
30
0
11
39.2253
21
34.6619
31
0
0
ARC
8
A-DOOR
10
41.8753
20
34.6619
30
0
40
2.6500
50
90.00
51
180.00
0
LINE
8
A-DOOR-JAMB
10
41.8753
20
34.8319
30
0
11
41.8753
21
34.4919
31
0
0
LINE
8
A-DOOR-JAMB
10
39.2253
20
34.8319
30
0
11
39.2253
21
34.4919
31
0
0
LINE
8
A-DOOR
10
62.6725
20
34.6619
30
0
11
62.6725
21
32.3119
31
0
0
LINE
8
A-DOOR
10
62.6725
20
34.6619
30
0
11
65.0225
21
34.6619
31
0
0
ARC
8
A-DOOR
10
62.6725
20
34.6619
30
0
40
2.3500
50
0.00
51
270.00
0
LINE
8
A-DOOR-JAMB
10
62.6725
20
34.4919
30
0
11
62.6725
21
34.8319
31
0
0
LINE
8
A-DOOR-JAMB
10
65.0225
20
34.4919
30
0
11
65.0225
21
34.8319
31
0
0
LINE
8
A-DOOR
10
67.4502
20
34.6619
30
0
11
69.8002
21
34.6619
31
0
0
LINE
8
A-DOOR
10
67.4502
20
34.6619
30
0
11
67.4502
21
37.0119
31
0
0
ARC
8
A-DOOR
10
67.4502
20
34.6619
30
0
40
2.3500
50
0.00
51
90.00
0
LINE
8
A-DOOR-JAMB
10
67.6202
20
34.6619
30
0
11
67.2802
21
34.6619
31
0
0
LINE
8
A-DOOR-JAMB
10
67.6202
20
37.0119
30
0
11
67.2802
21
37.0119
31
0
0
LINE
8
A-DOOR
10
63.5156
20
32.1325
30
0
11
63.5156
21
34.7825
31
0
0
LINE
8
A-DOOR
10
63.5156
20
32.1325
30
0
11
60.8656
21
32.1325
31
0
0
ARC
8
A-DOOR
10
63.5156
20
32.1325
30
0
40
2.6500
50
90.00
51
180.00
0
LINE
8
A-DOOR-JAMB
10
63.5156
20
32.3025
30
0
11
63.5156
21
31.9625
31
0
0
LINE
8
A-DOOR-JAMB
10
60.8656
20
32.3025
30
0
11
60.8656
21
31.9625
31
0
0
LINE
8
A-DOOR
10
63.5156
20
23.7013
30
0
11
63.5156
21
26.3513
31
0
0
LINE
8
A-DOOR
10
63.5156
20
23.7013
30
0
11
60.8656
21
23.7013
31
0
0
ARC
8
A-DOOR
10
63.5156
20
23.7013
30
0
40
2.6500
50
90.00
51
180.00
0
LINE
8
A-DOOR-JAMB
10
63.5156
20
23.8713
30
0
11
63.5156
21
23.5313
31
0
0
LINE
8
A-DOOR-JAMB
10
60.8656
20
23.8713
30
0
11
60.8656
21
23.5313
31
0
0
LINE
8
A-DOOR
10
30.1652
20
17.6120
30
0
11
30.1652
21
20.6620
31
0
0
LINE
8
A-DOOR
10
30.1652
20
17.6120
30
0
11
27.1152
21
17.6120
31
0
0
ARC
8
A-DOOR
10
30.1652
20
17.6120
30
0
40
3.0500
50
90.00
51
180.00
0
LINE
8
A-DOOR-JAMB
10
30.1652
20
17.7820
30
0
11
30.1652
21
17.4420
31
0
0
LINE
8
A-DOOR-JAMB
10
27.1152
20
17.7820
30
0
11
27.1152
21
17.4420
31
0
0
LINE
8
A-DOOR
10
20.7971
20
15.4573
30
0
11
22.2471
21
15.4573
31
0
0
LINE
8
A-DOOR
10
20.7971
20
15.4573
30
0
11
20.7971
21
16.9073
31
0
0
ARC
8
A-DOOR
10
20.7971
20
15.4573
30
0
40
1.4500
50
0.00
51
90.00
0
LINE
8
A-DOOR-JAMB
10
20.9671
20
15.4573
30
0
11
20.6271
21
15.4573
31
0
0
LINE
8
A-DOOR-JAMB
10
20.9671
20
16.9073
30
0
11
20.6271
21
16.9073
31
0
0
LINE
8
A-DOOR
10
22.6708
20
15.4573
30
0
11
21.2208
21
15.4573
31
0
0
LINE
8
A-DOOR
10
22.6708
20
15.4573
30
0
11
22.6708
21
16.9073
31
0
0
ARC
8
A-DOOR
10
22.6708
20
15.4573
30
0
40
1.4500
50
90.00
51
180.00
0
LINE
8
A-DOOR-JAMB
10
22.8408
20
15.4573
30
0
11
22.5008
21
15.4573
31
0
0
LINE
8
A-DOOR-JAMB
10
22.8408
20
16.9073
30
0
11
22.5008
21
16.9073
31
0
0
LINE
8
A-DOOR
10
40.4701
20
15.4573
30
0
11
43.1201
21
15.4573
31
0
0
LINE
8
A-DOOR
10
40.4701
20
15.4573
30
0
11
40.4701
21
18.1073
31
0
0
ARC
8
A-DOOR
10
40.4701
20
15.4573
30
0
40
2.6500
50
0.00
51
90.00
0
LINE
8
A-DOOR-JAMB
10
40.6401
20
15.4573
30
0
11
40.3001
21
15.4573
31
0
0
LINE
8
A-DOOR-JAMB
10
40.6401
20
18.1073
30
0
11
40.3001
21
18.1073
31
0
0
LINE
8
A-DOOR
10
46.2783
20
15.4573
30
0
11
44.1283
21
15.4573
31
0
0
LINE
8
A-DOOR
10
46.2783
20
15.4573
30
0
11
46.2783
21
17.6073
31
0
0
ARC
8
A-DOOR
10
46.2783
20
15.4573
30
0
40
2.1500
50
90.00
51
180.00
0
LINE
8
A-DOOR-JAMB
10
46.4483
20
15.4573
30
0
11
46.1083
21
15.4573
31
0
0
LINE
8
A-DOOR-JAMB
10
46.4483
20
17.6073
30
0
11
46.1083
21
17.6073
31
0
0
LINE
8
A-DOOR
10
52.2739
20
15.4573
30
0
11
54.9239
21
15.4573
31
0
0
LINE
8
A-DOOR
10
52.2739
20
15.4573
30
0
11
52.2739
21
18.1073
31
0
0
ARC
8
A-DOOR
10
52.2739
20
15.4573
30
0
40
2.6500
50
0.00
51
90.00
0
LINE
8
A-DOOR-JAMB
10
52.4439
20
15.4573
30
0
11
52.1039
21
15.4573
31
0
0
LINE
8
A-DOOR-JAMB
10
52.4439
20
18.1073
30
0
11
52.1039
21
18.1073
31
0
0
LINE
8
A-STAIR
10
2.9978
20
14.3332
30
0
11
14.2395
21
14.3332
31
0
0
LINE
8
A-STAIR
10
14.2395
20
14.3332
30
0
11
14.2395
21
6.5577
31
0
0
LINE
8
A-STAIR
10
14.2395
20
6.5577
30
0
11
2.9978
21
6.5577
31
0
0
LINE
8
A-STAIR
10
2.9978
20
6.5577
30
0
11
2.9978
21
14.3332
31
0
0
LINE
8
A-STAIR
10
3.8625
20
6.5577
30
0
11
3.8625
21
14.3332
31
0
0
LINE
8
A-STAIR
10
4.7273
20
6.5577
30
0
11
4.7273
21
14.3332
31
0
0
LINE
8
A-STAIR
10
5.5920
20
6.5577
30
0
11
5.5920
21
14.3332
31
0
0
LINE
8
A-STAIR
10
6.4568
20
6.5577
30
0
11
6.4568
21
14.3332
31
0
0
LINE
8
A-STAIR
10
7.3215
20
6.5577
30
0
11
7.3215
21
14.3332
31
0
0
LINE
8
A-STAIR
10
8.1863
20
6.5577
30
0
11
8.1863
21
14.3332
31
0
0
LINE
8
A-STAIR
10
9.0510
20
6.5577
30
0
11
9.0510
21
14.3332
31
0
0
LINE
8
A-STAIR
10
9.9158
20
6.5577
30
0
11
9.9158
21
14.3332
31
0
0
LINE
8
A-STAIR
10
10.7805
20
6.5577
30
0
11
10.7805
21
14.3332
31
0
0
LINE
8
A-STAIR
10
11.6453
20
6.5577
30
0
11
11.6453
21
14.3332
31
0
0
LINE
8
A-STAIR
10
12.5100
20
6.5577
30
0
11
12.5100
21
14.3332
31
0
0
LINE
8
A-STAIR
10
13.3747
20
6.5577
30
0
11
13.3747
21
14.3332
31
0
0
LINE
8
A-STAIR
10
2.9978
20
10.4454
30
0
11
14.2395
21
10.4454
31
0
0
LINE
8
A-STAIR
10
13.3395
20
10.7954
30
0
11
13.9895
21
10.4454
31
0
0
LINE
8
A-STAIR
10
13.3395
20
10.0954
30
0
11
13.9895
21
10.4454
31
0
0
POLYLINE
8
A-DETAIL
66
1
70
1
0
VERTEX
8
A-DETAIL
10
46.2783
20
2.4357
30
0
0
VERTEX
8
A-DETAIL
10
47.4962
20
2.4357
30
0
0
VERTEX
8
A-DETAIL
10
47.4962
20
1.2179
30
0
0
VERTEX
8
A-DETAIL
10
46.2783
20
1.2179
30
0
0
SEQEND
0
POLYLINE
8
A-DETAIL
66
1
70
1
0
VERTEX
8
A-DETAIL
10
18.4551
20
15.5510
30
0
0
VERTEX
8
A-DETAIL
10
19.3919
20
15.5510
30
0
0
VERTEX
8
A-DETAIL
10
19.3919
20
13.3964
30
0
0
VERTEX
8
A-DETAIL
10
18.4551
20
13.3964
30
0
0
SEQEND
0
POLYLINE
8
A-DETAIL
66
1
70
1
0
VERTEX
8
A-DETAIL
10
47.9646
20
15.4573
30
0
0
VERTEX
8
A-DETAIL
10
48.9014
20
15.4573
30
0
0
VERTEX
8
A-DETAIL
10
48.9014
20
14.5205
30
0
0
VERTEX
8
A-DETAIL
10
47.9646
20
14.5205
30
0
0
SEQEND
0
TEXT
8
A-TEXT
10
2.8104
20
38.9712
30
0
40
0.5800
1
PANTRY
50
0.00
0
TEXT
8
A-TEXT
10
30.1652
20
41.9690
30
0
40
0.3800
1
washroom U
50
0.00
0
TEXT
8
A-TEXT
10
64.8271
20
39.8144
30
0
40
0.4200
1
Washroom M
50
-90.00
0
TEXT
8
A-TEXT
10
69.9796
20
39.8144
30
0
40
0.4200
1
Washroom F
50
-90.00
0
LINE
8
A-SHEET
10
-2.0000
20
-2.2000
30
0
11
75.5521
21
-2.2000
31
0
0
LINE
8
A-SHEET
10
75.5521
20
-2.2000
30
0
11
75.5521
21
46.0300
31
0
0
LINE
8
A-SHEET
10
75.5521
20
46.0300
30
0
11
-2.0000
21
46.0300
31
0
0
LINE
8
A-SHEET
10
-2.0000
20
46.0300
30
0
11
-2.0000
21
-2.2000
31
0
0
TEXT
8
A-SHEET
10
0.0000
20
-2.9000
30
0
40
0.4200
1
PROFESSIONAL ARCHITECTURAL OFFICE FLOORPLAN
50
0.00
0
TEXT
8
A-SHEET
10
0.0000
20
-3.5000
30
0
40
0.3000
1
UNITS: FEET | SOURCE SCALE APPROX. | RIGHT WALL REF: 44.03 FT | CAD-READY DXF
50
0.00
0
TEXT
8
A-ANNO
10
0.0000
20
-4.2000
30
0
40
0.3600
1
ARCHITECTURAL DOUBLE-LINE WALLS, SWING DOORS, WINDOW BREAKS, STAIR DETAIL, AND REFERENCE EXTENTS.
50
0.00
0
ENDSEC
0
EOF
