0
SECTION
2
HEADER
9
$ACADVER
1
AC1009
9
$INSUNITS
70
2
0
ENDSEC
0
SECTION
2
TABLES
0
TABLE
2
LAYER
70
6
0
LAYER
2
A-WALL
70
0
62
7
6
CONTINUOUS
0
LAYER
2
A-DOOR
70
0
62
1
6
CONTINUOUS
0
LAYER
2
A-GLAZ
70
0
62
4
6
CONTINUOUS
0
LAYER
2
A-TEXT
70
0
62
2
6
CONTINUOUS
0
LAYER
2
A-ANNO
70
0
62
6
6
CONTINUOUS
0
LAYER
2
0
70
0
62
7
6
CONTINUOUS
0
ENDTAB
0
ENDSEC
0
SECTION
2
ENTITIES
0
POLYLINE
8
A-WALL
66
1
70
1
0
VERTEX
8
A-WALL
10
0.0000
20
44.2900
30
0.0
0
VERTEX
8
A-WALL
10
20.4224
20
44.2900
30
0.0
0
VERTEX
8
A-WALL
10
20.4224
20
43.7700
30
0.0
0
VERTEX
8
A-WALL
10
0.0000
20
43.7700
30
0.0
0
SEQEND
0
POLYLINE
8
A-WALL
66
1
70
1
0
VERTEX
8
A-WALL
10
24.1697
20
44.2900
30
0.0
0
VERTEX
8
A-WALL
10
28.5727
20
44.2900
30
0.0
0
VERTEX
8
A-WALL
10
28.5727
20
43.7700
30
0.0
0
VERTEX
8
A-WALL
10
24.1697
20
43.7700
30
0.0
0
SEQEND
0
POLYLINE
8
A-WALL
66
1
70
1
0
VERTEX
8
A-WALL
10
32.0389
20
44.2900
30
0.0
0
VERTEX
8
A-WALL
10
44.6858
20
44.2900
30
0.0
0
VERTEX
8
A-WALL
10
44.6858
20
43.7700
30
0.0
0
VERTEX
8
A-WALL
10
32.0389
20
43.7700
30
0.0
0
SEQEND
0
POLYLINE
8
A-WALL
66
1
70
1
0
VERTEX
8
A-WALL
10
48.7140
20
44.2900
30
0.0
0
VERTEX
8
A-WALL
10
62.0167
20
44.2900
30
0.0
0
VERTEX
8
A-WALL
10
62.0167
20
43.7700
30
0.0
0
VERTEX
8
A-WALL
10
48.7140
20
43.7700
30
0.0
0
SEQEND
0
POLYLINE
8
A-WALL
66
1
70
1
0
VERTEX
8
A-WALL
10
66.8881
20
44.2900
30
0.0
0
VERTEX
8
A-WALL
10
73.3521
20
44.2900
30
0.0
0
VERTEX
8
A-WALL
10
73.3521
20
43.7700
30
0.0
0
VERTEX
8
A-WALL
10
66.8881
20
43.7700
30
0.0
0
SEQEND
0
POLYLINE
8
A-WALL
66
1
70
1
0
VERTEX
8
A-WALL
10
73.6121
20
44.0300
30
0.0
0
VERTEX
8
A-WALL
10
73.6121
20
0.0000
30
0.0
0
VERTEX
8
A-WALL
10
73.0921
20
0.0000
30
0.0
0
VERTEX
8
A-WALL
10
73.0921
20
44.0300
30
0.0
0
SEQEND
0
POLYLINE
8
A-WALL
66
1
70
1
0
VERTEX
8
A-WALL
10
0.0000
20
0.2600
30
0.0
0
VERTEX
8
A-WALL
10
27.6359
20
0.2600
30
0.0
0
VERTEX
8
A-WALL
10
27.6359
20
-0.2600
30
0.0
0
VERTEX
8
A-WALL
10
0.0000
20
-0.2600
30
0.0
0
SEQEND
0
POLYLINE
8
A-WALL
66
1
70
1
0
VERTEX
8
A-WALL
10
31.5704
20
0.2600
30
0.0
0
VERTEX
8
A-WALL
10
58.2695
20
0.2600
30
0.0
0
VERTEX
8
A-WALL
10
58.2695
20
-0.2600
30
0.0
0
VERTEX
8
A-WALL
10
31.5704
20
-0.2600
30
0.0
0
SEQEND
0
POLYLINE
8
A-WALL
66
1
70
1
0
VERTEX
8
A-WALL
10
64.4524
20
0.2600
30
0.0
0
VERTEX
8
A-WALL
10
73.3521
20
0.2600
30
0.0
0
VERTEX
8
A-WALL
10
73.3521
20
-0.2600
30
0.0
0
VERTEX
8
A-WALL
10
64.4524
20
-0.2600
30
0.0
0
SEQEND
0
POLYLINE
8
A-WALL
66
1
70
1
0
VERTEX
8
A-WALL
10
0.2600
20
44.0300
30
0.0
0
VERTEX
8
A-WALL
10
0.2600
20
20.4224
30
0.0
0
VERTEX
8
A-WALL
10
-0.2600
20
20.4224
30
0.0
0
VERTEX
8
A-WALL
10
-0.2600
20
44.0300
30
0.0
0
SEQEND
0
POLYLINE
8
A-WALL
66
1
70
1
0
VERTEX
8
A-WALL
10
0.2600
20
20.4224
30
0.0
0
VERTEX
8
A-WALL
10
0.2600
20
18.0804
30
0.0
0
VERTEX
8
A-WALL
10
-0.2600
20
18.0804
30
0.0
0
VERTEX
8
A-WALL
10
-0.2600
20
20.4224
30
0.0
0
SEQEND
0
POLYLINE
8
A-WALL
66
1
70
1
0
VERTEX
8
A-WALL
10
0.2600
20
15.4573
30
0.0
0
VERTEX
8
A-WALL
10
0.2600
20
0.0000
30
0.0
0
VERTEX
8
A-WALL
10
-0.2600
20
0.0000
30
0.0
0
VERTEX
8
A-WALL
10
-0.2600
20
15.4573
30
0.0
0
SEQEND
0
POLYLINE
8
A-WALL
66
1
70
1
0
VERTEX
8
A-WALL
10
6.7277
20
44.0300
30
0.0
0
VERTEX
8
A-WALL
10
6.7277
20
18.0804
30
0.0
0
VERTEX
8
A-WALL
10
6.3877
20
18.0804
30
0.0
0
VERTEX
8
A-WALL
10
6.3877
20
44.0300
30
0.0
0
SEQEND
0
POLYLINE
8
A-WALL
66
1
70
1
0
VERTEX
8
A-WALL
10
0.0000
20
33.5204
30
0.0
0
VERTEX
8
A-WALL
10
6.5577
20
33.5204
30
0.0
0
VERTEX
8
A-WALL
10
6.5577
20
33.1804
30
0.0
0
VERTEX
8
A-WALL
10
0.0000
20
33.1804
30
0.0
0
SEQEND
0
POLYLINE
8
A-WALL
66
1
70
1
0
VERTEX
8
A-WALL
10
0.0000
20
18.2504
30
0.0
0
VERTEX
8
A-WALL
10
6.5577
20
18.2504
30
0.0
0
VERTEX
8
A-WALL
10
6.5577
20
17.9104
30
0.0
0
VERTEX
8
A-WALL
10
0.0000
20
17.9104
30
0.0
0
SEQEND
0
POLYLINE
8
A-WALL
66
1
70
1
0
VERTEX
8
A-WALL
10
0.0000
20
6.7277
30
0.0
0
VERTEX
8
A-WALL
10
21.4529
20
6.7277
30
0.0
0
VERTEX
8
A-WALL
10
21.4529
20
6.3877
30
0.0
0
VERTEX
8
A-WALL
10
0.0000
20
6.3877
30
0.0
0
SEQEND
0
POLYLINE
8
A-WALL
66
1
70
1
0
VERTEX
8
A-WALL
10
21.6229
20
14.3332
30
0.0
0
VERTEX
8
A-WALL
10
21.6229
20
6.5577
30
0.0
0
VERTEX
8
A-WALL
10
21.2829
20
6.5577
30
0.0
0
VERTEX
8
A-WALL
10
21.2829
20
14.3332
30
0.0
0
SEQEND
0
POLYLINE
8
A-WALL
66
1
70
1
0
VERTEX
8
A-WALL
10
0.0000
20
14.5032
30
0.0
0
VERTEX
8
A-WALL
10
21.4529
20
14.5032
30
0.0
0
VERTEX
8
A-WALL
10
21.4529
20
14.1632
30
0.0
0
VERTEX
8
A-WALL
10
0.0000
20
14.1632
30
0.0
0
SEQEND
0
POLYLINE
8
A-WALL
66
1
70
1
0
VERTEX
8
A-WALL
10
21.4529
20
14.5032
30
0.0
0
VERTEX
8
A-WALL
10
28.1979
20
14.5032
30
0.0
0
VERTEX
8
A-WALL
10
28.1979
20
14.1632
30
0.0
0
VERTEX
8
A-WALL
10
21.4529
20
14.1632
30
0.0
0
SEQEND
0
POLYLINE
8
A-WALL
66
1
70
1
0
VERTEX
8
A-WALL
10
28.3679
20
14.3332
30
0.0
0
VERTEX
8
A-WALL
10
28.3679
20
6.5577
30
0.0
0
VERTEX
8
A-WALL
10
28.0279
20
6.5577
30
0.0
0
VERTEX
8
A-WALL
10
28.0279
20
14.3332
30
0.0
0
SEQEND
0
POLYLINE
8
A-WALL
66
1
70
1
0
VERTEX
8
A-WALL
10
21.4529
20
6.7277
30
0.0
0
VERTEX
8
A-WALL
10
28.1979
20
6.7277
30
0.0
0
VERTEX
8
A-WALL
10
28.1979
20
6.3877
30
0.0
0
VERTEX
8
A-WALL
10
21.4529
20
6.3877
30
0.0
0
SEQEND
0
POLYLINE
8
A-WALL
66
1
70
1
0
VERTEX
8
A-WALL
10
62.8425
20
44.0300
30
0.0
0
VERTEX
8
A-WALL
10
62.8425
20
33.5377
30
0.0
0
VERTEX
8
A-WALL
10
62.5025
20
33.5377
30
0.0
0
VERTEX
8
A-WALL
10
62.5025
20
44.0300
30
0.0
0
SEQEND
0
POLYLINE
8
A-WALL
66
1
70
1
0
VERTEX
8
A-WALL
10
70.4306
20
44.0300
30
0.0
0
VERTEX
8
A-WALL
10
70.4306
20
33.5377
30
0.0
0
VERTEX
8
A-WALL
10
70.0906
20
33.5377
30
0.0
0
VERTEX
8
A-WALL
10
70.0906
20
44.0300
30
0.0
0
SEQEND
0
POLYLINE
8
A-WALL
66
1
70
1
0
VERTEX
8
A-WALL
10
62.6725
20
33.7077
30
0.0
0
VERTEX
8
A-WALL
10
73.3521
20
33.7077
30
0.0
0
VERTEX
8
A-WALL
10
73.3521
20
33.3677
30
0.0
0
VERTEX
8
A-WALL
10
62.6725
20
33.3677
30
0.0
0
SEQEND
0
LINE
8
A-GLAZ
10
20.4224
20
44.0300
30
0.0
11
24.1697
21
44.0300
31
0.0
0
LINE
8
A-GLAZ
10
20.4224
20
44.2100
30
0.0
11
24.1697
21
44.2100
31
0.0
0
LINE
8
A-GLAZ
10
20.4224
20
43.8500
30
0.0
11
24.1697
21
43.8500
31
0.0
0
LINE
8
A-GLAZ
10
28.5727
20
44.0300
30
0.0
11
32.0389
21
44.0300
31
0.0
0
LINE
8
A-GLAZ
10
28.5727
20
44.2100
30
0.0
11
32.0389
21
44.2100
31
0.0
0
LINE
8
A-GLAZ
10
28.5727
20
43.8500
30
0.0
11
32.0389
21
43.8500
31
0.0
0
LINE
8
A-GLAZ
10
44.6858
20
44.0300
30
0.0
11
48.7140
21
44.0300
31
0.0
0
LINE
8
A-GLAZ
10
44.6858
20
44.2100
30
0.0
11
48.7140
21
44.2100
31
0.0
0
LINE
8
A-GLAZ
10
44.6858
20
43.8500
30
0.0
11
48.7140
21
43.8500
31
0.0
0
LINE
8
A-GLAZ
10
62.0167
20
44.0300
30
0.0
11
66.8881
21
44.0300
31
0.0
0
LINE
8
A-GLAZ
10
62.0167
20
44.2100
30
0.0
11
66.8881
21
44.2100
31
0.0
0
LINE
8
A-GLAZ
10
62.0167
20
43.8500
30
0.0
11
66.8881
21
43.8500
31
0.0
0
LINE
8
A-GLAZ
10
27.6359
20
0.0000
30
0.0
11
31.5704
21
0.0000
31
0.0
0
LINE
8
A-GLAZ
10
27.6359
20
0.1800
30
0.0
11
31.5704
21
0.1800
31
0.0
0
LINE
8
A-GLAZ
10
27.6359
20
-0.1800
30
0.0
11
31.5704
21
-0.1800
31
0.0
0
LINE
8
A-GLAZ
10
58.2695
20
0.0000
30
0.0
11
64.4524
21
0.0000
31
0.0
0
LINE
8
A-GLAZ
10
58.2695
20
0.1800
30
0.0
11
64.4524
21
0.1800
31
0.0
0
LINE
8
A-GLAZ
10
58.2695
20
-0.1800
30
0.0
11
64.4524
21
-0.1800
31
0.0
0
LINE
8
A-GLAZ
10
67.4502
20
0.0000
30
0.0
11
72.5090
21
0.0000
31
0.0
0
LINE
8
A-GLAZ
10
67.4502
20
0.1800
30
0.0
11
72.5090
21
0.1800
31
0.0
0
LINE
8
A-GLAZ
10
67.4502
20
-0.1800
30
0.0
11
72.5090
21
-0.1800
31
0.0
0
LINE
8
A-GLAZ
10
73.3521
20
27.6359
30
0.0
11
73.3521
21
22.2960
31
0.0
0
LINE
8
A-GLAZ
10
73.5321
20
27.6359
30
0.0
11
73.5321
21
22.2960
31
0.0
0
LINE
8
A-GLAZ
10
73.1721
20
27.6359
30
0.0
11
73.1721
21
22.2960
31
0.0
0
LINE
8
A-GLAZ
10
73.3521
20
15.4573
30
0.0
11
73.3521
21
9.1807
31
0.0
0
LINE
8
A-GLAZ
10
73.5321
20
15.4573
30
0.0
11
73.5321
21
9.1807
31
0.0
0
LINE
8
A-GLAZ
10
73.1721
20
15.4573
30
0.0
11
73.1721
21
9.1807
31
0.0
0
LINE
8
A-DOOR
10
0.0000
20
18.0804
30
0.0
11
0.0000
21
14.4804
31
0.0
0
LINE
8
A-DOOR
10
0.0000
20
18.0804
30
0.0
11
3.6000
21
18.0804
31
0.0
0
ARC
8
A-DOOR
10
0.0000
20
18.0804
30
0.0
40
3.6000
50
0.00
51
270.00
0
LINE
8
A-DOOR
10
6.5577
20
34.2872
30
0.0
11
6.5577
21
37.2872
31
0.0
0
LINE
8
A-DOOR
10
6.5577
20
34.2872
30
0.0
11
3.5577
21
34.2872
31
0.0
0
ARC
8
A-DOOR
10
6.5577
20
34.2872
30
0.0
40
3.0000
50
90.00
51
180.00
0
LINE
8
A-DOOR
10
6.5577
20
18.0804
30
0.0
11
6.5577
21
21.2804
31
0.0
0
LINE
8
A-DOOR
10
6.5577
20
18.0804
30
0.0
11
3.3577
21
18.0804
31
0.0
0
ARC
8
A-DOOR
10
6.5577
20
18.0804
30
0.0
40
3.2000
50
90.00
51
180.00
0
LINE
8
A-DOOR
10
28.1979
20
14.3332
30
0.0
11
28.1979
21
17.8332
31
0.0
0
LINE
8
A-DOOR
10
28.1979
20
14.3332
30
0.0
11
24.6979
21
14.3332
31
0.0
0
ARC
8
A-DOOR
10
28.1979
20
14.3332
30
0.0
40
3.5000
50
90.00
51
180.00
0
LINE
8
A-DOOR
10
62.6725
20
35.0366
30
0.0
11
62.6725
21
32.3366
31
0.0
0
LINE
8
A-DOOR
10
62.6725
20
35.0366
30
0.0
11
65.3725
21
35.0366
31
0.0
0
ARC
8
A-DOOR
10
62.6725
20
35.0366
30
0.0
40
2.7000
50
0.00
51
270.00
0
LINE
8
A-DOOR
10
70.2606
20
33.5377
30
0.0
11
72.9606
21
33.5377
31
0.0
0
LINE
8
A-DOOR
10
70.2606
20
33.5377
30
0.0
11
70.2606
21
36.2377
31
0.0
0
ARC
8
A-DOOR
10
70.2606
20
33.5377
30
0.0
40
2.7000
50
0.00
51
90.00
0
TEXT
8
A-TEXT
10
2.8104
20
38.8776
30
0.0
40
0.7200
1
PANTRY
50
0.00
0
TEXT
8
A-TEXT
10
3.2788
20
26.0433
30
0.0
40
0.4200
1
BALCONY / SITTING
50
0.00
0
TEXT
8
A-TEXT
10
2.0610
20
17.1436
30
0.0
40
0.5000
1
SIDE ENTRY
50
0.00
0
TEXT
8
A-TEXT
10
10.6796
20
10.3049
30
0.0
40
0.6000
1
STAIR / SERVICE
50
0.00
0
TEXT
8
A-TEXT
10
24.7317
20
10.3049
30
0.0
40
0.4200
1
ENTRANCE BAY
50
0.00
0
TEXT
8
A-TEXT
10
65.7640
20
39.6270
30
0.0
40
0.4000
1
WASH M
50
0.00
0
TEXT
8
A-TEXT
10
71.6659
20
39.6270
30
0.0
40
0.4000
1
WASH F
50
0.00
0
TEXT
8
A-ANNO
10
0.0000
20
-4.2000
30
0.0
40
0.5000
1
EXTERIOR SHELL TRACE ONLY - INTERIOR FIT-OUT REMOVED PER REVISION.
50
0.00
0
TEXT
8
A-ANNO
10
0.0000
20
-5.0000
30
0.0
40
0.5000
1
SCALE: RIGHT EXTERIOR WALL FIXED AT 44.03 FT / 13.420 M.
50
0.00
0
LINE
8
A-ANNO
10
76.3521
20
44.0300
30
0.0
11
76.3521
21
0.0000
31
0.0
0
LINE
8
A-ANNO
10
73.3521
20
44.0300
30
0.0
11
76.3521
21
44.0300
31
0.0
0
LINE
8
A-ANNO
10
73.3521
20
0.0000
30
0.0
11
76.3521
21
0.0000
31
0.0
0
TEXT
8
A-ANNO
10
70.9521
20
22.2650
30
0.0
40
0.4400
1
RIGHT EXTERIOR WALL = 44.03 ft / 13.420 m
50
-90.00
0
LINE
8
A-ANNO
10
0.0000
20
-3.0000
30
0.0
11
73.3521
21
-3.0000
31
0.0
0
LINE
8
A-ANNO
10
0.0000
20
0.0000
30
0.0
11
0.0000
21
-3.0000
31
0.0
0
LINE
8
A-ANNO
10
73.3521
20
0.0000
30
0.0
11
73.3521
21
-3.0000
31
0.0
0
TEXT
8
A-ANNO
10
31.2761
20
-2.7500
30
0.0
40
0.4400
1
DERIVED OVERALL WIDTH = 73.35 ft
50
0.00
0
ENDSEC
0
EOF
