<svg xmlns="http://www.w3.org/2000/svg" width="1800" height="1150" viewBox="-3 -48.030 81.352 52.030">
<rect x="-100" y="-100" width="300" height="300" fill="white"/>
<style>text{font-family:Arial,Helvetica,sans-serif}.sheet{stroke:#aaa;stroke-width:.045;fill:none}.ref{stroke:#9a9a9a;stroke-width:.045;fill:none}.detail{stroke:#555;stroke-width:.065;fill:none}.wall{stroke:#111;stroke-width:.105;fill:none;stroke-linecap:square}.cap{stroke:#111;stroke-width:.085;fill:none}.gray{stroke:#8a8a8a;stroke-width:.085;fill:none}.door{stroke:#5f5f5f;stroke-width:.075;fill:none}.jamb{stroke:#6f6f6f;stroke-width:.06;fill:none}.window{stroke:#777;stroke-width:.075;fill:none}.stair{stroke:#555;stroke-width:.055;fill:none}.label{font-size:.50px;fill:#333}.anno{font-size:.38px;fill:#777}</style>
<rect class="sheet" x="-2.000" y="-46.030" width="77.552" height="48.230"/>
<line class="wall" x1="0.000" y1="-44.210" x2="20.329" y2="-44.210"/>
<line class="wall" x1="0.000" y1="-43.850" x2="20.329" y2="-43.850"/>
<line class="wall" x1="23.889" y1="-44.210" x2="28.760" y2="-44.210"/>
<line class="wall" x1="23.889" y1="-43.850" x2="28.760" y2="-43.850"/>
<line class="wall" x1="32.039" y1="-44.210" x2="44.686" y2="-44.210"/>
<line class="wall" x1="32.039" y1="-43.850" x2="44.686" y2="-43.850"/>
<line class="wall" x1="48.433" y1="-44.210" x2="62.017" y2="-44.210"/>
<line class="wall" x1="48.433" y1="-43.850" x2="62.017" y2="-43.850"/>
<line class="wall" x1="67.169" y1="-44.210" x2="73.352" y2="-44.210"/>
<line class="wall" x1="67.169" y1="-43.850" x2="73.352" y2="-43.850"/>
<line class="wall" x1="73.532" y1="-44.030" x2="73.532" y2="-0.000"/>
<line class="wall" x1="73.172" y1="-44.030" x2="73.172" y2="-0.000"/>
<line class="wall" x1="0.000" y1="-0.180" x2="27.355" y2="-0.180"/>
<line class="wall" x1="0.000" y1="0.180" x2="27.355" y2="0.180"/>
<line class="wall" x1="31.289" y1="-0.180" x2="59.675" y2="-0.180"/>
<line class="wall" x1="31.289" y1="0.180" x2="59.675" y2="0.180"/>
<line class="wall" x1="64.359" y1="-0.180" x2="67.450" y2="-0.180"/>
<line class="wall" x1="64.359" y1="0.180" x2="67.450" y2="0.180"/>
<line class="wall" x1="72.509" y1="-0.180" x2="73.352" y2="-0.180"/>
<line class="wall" x1="72.509" y1="0.180" x2="73.352" y2="0.180"/>
<line class="wall" x1="0.180" y1="-44.030" x2="0.180" y2="-19.954"/>
<line class="wall" x1="-0.180" y1="-44.030" x2="-0.180" y2="-19.954"/>
<line class="wall" x1="0.180" y1="-19.954" x2="0.180" y2="-17.612"/>
<line class="wall" x1="-0.180" y1="-19.954" x2="-0.180" y2="-17.612"/>
<line class="wall" x1="0.180" y1="-15.457" x2="0.180" y2="-0.000"/>
<line class="wall" x1="-0.180" y1="-15.457" x2="-0.180" y2="-0.000"/>
<line class="wall" x1="6.738" y1="-44.030" x2="6.738" y2="-19.954"/>
<line class="wall" x1="6.378" y1="-44.030" x2="6.378" y2="-19.954"/>
<line class="wall" x1="0.000" y1="-34.467" x2="6.558" y2="-34.467"/>
<line class="wall" x1="0.000" y1="-34.107" x2="6.558" y2="-34.107"/>
<line class="wall" x1="0.000" y1="-20.134" x2="6.558" y2="-20.134"/>
<line class="wall" x1="0.000" y1="-19.774" x2="6.558" y2="-19.774"/>
<line class="wall" x1="0.000" y1="-15.637" x2="21.734" y2="-15.637"/>
<line class="wall" x1="0.000" y1="-15.277" x2="21.734" y2="-15.277"/>
<line class="wall" x1="0.000" y1="-6.738" x2="21.734" y2="-6.738"/>
<line class="wall" x1="0.000" y1="-6.378" x2="21.734" y2="-6.378"/>
<line class="wall" x1="21.914" y1="-15.457" x2="21.914" y2="-6.558"/>
<line class="wall" x1="21.554" y1="-15.457" x2="21.554" y2="-6.558"/>
<line class="wall" x1="0.000" y1="-6.738" x2="27.355" y2="-6.738"/>
<line class="wall" x1="0.000" y1="-6.378" x2="27.355" y2="-6.378"/>
<line class="wall" x1="6.558" y1="-36.060" x2="18.924" y2="-36.060"/>
<line class="wall" x1="6.558" y1="-35.700" x2="18.924" y2="-35.700"/>
<line class="wall" x1="19.104" y1="-44.030" x2="19.104" y2="-35.880"/>
<line class="wall" x1="18.744" y1="-44.030" x2="18.744" y2="-35.880"/>
<line class="wall" x1="26.598" y1="-44.030" x2="26.598" y2="-35.880"/>
<line class="wall" x1="26.238" y1="-44.030" x2="26.238" y2="-35.880"/>
<line class="wall" x1="18.924" y1="-36.060" x2="21.547" y2="-36.060"/>
<line class="wall" x1="18.924" y1="-35.700" x2="21.547" y2="-35.700"/>
<line class="wall" x1="24.076" y1="-36.060" x2="26.418" y2="-36.060"/>
<line class="wall" x1="24.076" y1="-35.700" x2="26.418" y2="-35.700"/>
<line class="wall" x1="27.066" y1="-44.030" x2="27.066" y2="-34.662"/>
<line class="wall" x1="26.706" y1="-44.030" x2="26.706" y2="-34.662"/>
<line class="wall" x1="26.886" y1="-41.025" x2="33.912" y2="-41.025"/>
<line class="wall" x1="26.886" y1="-40.665" x2="33.912" y2="-40.665"/>
<line class="wall" x1="34.092" y1="-40.845" x2="34.092" y2="-34.662"/>
<line class="wall" x1="33.732" y1="-40.845" x2="33.732" y2="-34.662"/>
<line class="wall" x1="26.886" y1="-34.842" x2="28.947" y2="-34.842"/>
<line class="wall" x1="26.886" y1="-34.482" x2="28.947" y2="-34.482"/>
<line class="wall" x1="31.383" y1="-34.842" x2="33.912" y2="-34.842"/>
<line class="wall" x1="31.383" y1="-34.482" x2="33.912" y2="-34.482"/>
<line class="wall" x1="42.055" y1="-44.030" x2="42.055" y2="-34.662"/>
<line class="wall" x1="41.695" y1="-44.030" x2="41.695" y2="-34.662"/>
<line class="wall" x1="33.912" y1="-34.842" x2="41.875" y2="-34.842"/>
<line class="wall" x1="33.912" y1="-34.482" x2="41.875" y2="-34.482"/>
<line class="wall" x1="58.918" y1="-44.030" x2="58.918" y2="-34.662"/>
<line class="wall" x1="58.558" y1="-44.030" x2="58.558" y2="-34.662"/>
<line class="wall" x1="62.852" y1="-44.030" x2="62.852" y2="-34.662"/>
<line class="wall" x1="62.492" y1="-44.030" x2="62.492" y2="-34.662"/>
<line class="wall" x1="67.630" y1="-44.030" x2="67.630" y2="-34.662"/>
<line class="wall" x1="67.270" y1="-44.030" x2="67.270" y2="-34.662"/>
<line class="wall" x1="62.672" y1="-34.842" x2="73.352" y2="-34.842"/>
<line class="wall" x1="62.672" y1="-34.482" x2="73.352" y2="-34.482"/>
<line class="wall" x1="63.696" y1="-34.662" x2="63.696" y2="-29.322"/>
<line class="wall" x1="63.336" y1="-34.662" x2="63.336" y2="-29.322"/>
<line class="wall" x1="63.516" y1="-29.502" x2="73.352" y2="-29.502"/>
<line class="wall" x1="63.516" y1="-29.142" x2="73.352" y2="-29.142"/>
<line class="wall" x1="63.696" y1="-29.322" x2="63.696" y2="-18.736"/>
<line class="wall" x1="63.336" y1="-29.322" x2="63.336" y2="-18.736"/>
<line class="wall" x1="63.516" y1="-18.916" x2="73.352" y2="-18.916"/>
<line class="wall" x1="63.516" y1="-18.556" x2="73.352" y2="-18.556"/>
<line class="wall" x1="63.696" y1="-18.736" x2="63.696" y2="-9.649"/>
<line class="wall" x1="63.336" y1="-18.736" x2="63.336" y2="-9.649"/>
<line class="wall" x1="63.516" y1="-9.829" x2="73.352" y2="-9.829"/>
<line class="wall" x1="63.516" y1="-9.469" x2="73.352" y2="-9.469"/>
<line class="wall" x1="6.558" y1="-32.313" x2="18.924" y2="-32.313"/>
<line class="wall" x1="6.558" y1="-31.953" x2="18.924" y2="-31.953"/>
<line class="wall" x1="6.558" y1="-26.692" x2="18.924" y2="-26.692"/>
<line class="wall" x1="6.558" y1="-26.332" x2="18.924" y2="-26.332"/>
<line class="wall" x1="12.359" y1="-32.133" x2="12.359" y2="-26.512"/>
<line class="wall" x1="11.999" y1="-32.133" x2="11.999" y2="-26.512"/>
<line class="wall" x1="19.104" y1="-32.133" x2="19.104" y2="-26.512"/>
<line class="wall" x1="18.744" y1="-32.133" x2="18.744" y2="-26.512"/>
<line class="wall" x1="6.558" y1="-21.727" x2="20.235" y2="-21.727"/>
<line class="wall" x1="6.558" y1="-21.367" x2="20.235" y2="-21.367"/>
<line class="wall" x1="20.415" y1="-26.512" x2="20.415" y2="-21.547"/>
<line class="wall" x1="20.055" y1="-26.512" x2="20.055" y2="-21.547"/>
<line class="wall" x1="20.235" y1="-26.692" x2="27.167" y2="-26.692"/>
<line class="wall" x1="20.235" y1="-26.332" x2="27.167" y2="-26.332"/>
<line class="wall" x1="20.235" y1="-21.727" x2="30.165" y2="-21.727"/>
<line class="wall" x1="20.235" y1="-21.367" x2="30.165" y2="-21.367"/>
<line class="wall" x1="30.345" y1="-21.547" x2="30.345" y2="-17.612"/>
<line class="wall" x1="29.985" y1="-21.547" x2="29.985" y2="-17.612"/>
<line class="wall" x1="30.165" y1="-17.792" x2="41.407" y2="-17.792"/>
<line class="wall" x1="30.165" y1="-17.432" x2="41.407" y2="-17.432"/>
<line class="wall" x1="47.496" y1="-17.792" x2="52.180" y2="-17.792"/>
<line class="wall" x1="47.496" y1="-17.432" x2="52.180" y2="-17.432"/>
<line class="wall" x1="55.459" y1="-17.792" x2="60.893" y2="-17.792"/>
<line class="wall" x1="55.459" y1="-17.432" x2="60.893" y2="-17.432"/>
<line class="wall" x1="19.104" y1="-15.457" x2="19.104" y2="-6.558"/>
<line class="wall" x1="18.744" y1="-15.457" x2="18.744" y2="-6.558"/>
<line class="wall" x1="18.924" y1="-15.637" x2="27.355" y2="-15.637"/>
<line class="wall" x1="18.924" y1="-15.277" x2="27.355" y2="-15.277"/>
<line class="wall" x1="27.535" y1="-15.457" x2="27.535" y2="-6.558"/>
<line class="wall" x1="27.175" y1="-15.457" x2="27.175" y2="-6.558"/>
<line class="wall" x1="27.535" y1="-15.457" x2="27.535" y2="-2.155"/>
<line class="wall" x1="27.175" y1="-15.457" x2="27.175" y2="-2.155"/>
<line class="wall" x1="27.355" y1="-15.637" x2="40.470" y2="-15.637"/>
<line class="wall" x1="27.355" y1="-15.277" x2="40.470" y2="-15.277"/>
<line class="wall" x1="40.650" y1="-15.457" x2="40.650" y2="-2.155"/>
<line class="wall" x1="40.290" y1="-15.457" x2="40.290" y2="-2.155"/>
<line class="wall" x1="40.650" y1="-15.457" x2="40.650" y2="-2.155"/>
<line class="wall" x1="40.290" y1="-15.457" x2="40.290" y2="-2.155"/>
<line class="wall" x1="46.458" y1="-15.457" x2="46.458" y2="-2.155"/>
<line class="wall" x1="46.098" y1="-15.457" x2="46.098" y2="-2.155"/>
<line class="wall" x1="40.470" y1="-15.637" x2="46.278" y2="-15.637"/>
<line class="wall" x1="40.470" y1="-15.277" x2="46.278" y2="-15.277"/>
<line class="wall" x1="48.894" y1="-15.457" x2="48.894" y2="-0.000"/>
<line class="wall" x1="48.534" y1="-15.457" x2="48.534" y2="-0.000"/>
<line class="wall" x1="48.714" y1="-15.637" x2="52.274" y2="-15.637"/>
<line class="wall" x1="48.714" y1="-15.277" x2="52.274" y2="-15.277"/>
<line class="wall" x1="55.459" y1="-15.637" x2="60.893" y2="-15.637"/>
<line class="wall" x1="55.459" y1="-15.277" x2="60.893" y2="-15.277"/>
<line class="wall" x1="61.073" y1="-15.457" x2="61.073" y2="-0.000"/>
<line class="wall" x1="60.713" y1="-15.457" x2="60.713" y2="-0.000"/>
<line class="wall" x1="48.714" y1="-9.829" x2="60.893" y2="-9.829"/>
<line class="wall" x1="48.714" y1="-9.469" x2="60.893" y2="-9.469"/>
<line class="cap" x1="0.000" y1="-44.210" x2="0.000" y2="-43.850"/>
<line class="cap" x1="20.329" y1="-44.210" x2="20.329" y2="-43.850"/>
<line class="cap" x1="23.889" y1="-44.210" x2="23.889" y2="-43.850"/>
<line class="cap" x1="28.760" y1="-44.210" x2="28.760" y2="-43.850"/>
<line class="cap" x1="32.039" y1="-44.210" x2="32.039" y2="-43.850"/>
<line class="cap" x1="44.686" y1="-44.210" x2="44.686" y2="-43.850"/>
<line class="cap" x1="48.433" y1="-44.210" x2="48.433" y2="-43.850"/>
<line class="cap" x1="62.017" y1="-44.210" x2="62.017" y2="-43.850"/>
<line class="cap" x1="67.169" y1="-44.210" x2="67.169" y2="-43.850"/>
<line class="cap" x1="73.352" y1="-44.210" x2="73.352" y2="-43.850"/>
<line class="cap" x1="73.532" y1="-44.030" x2="73.172" y2="-44.030"/>
<line class="cap" x1="73.532" y1="-0.000" x2="73.172" y2="-0.000"/>
<line class="cap" x1="0.000" y1="-0.180" x2="0.000" y2="0.180"/>
<line class="cap" x1="27.355" y1="-0.180" x2="27.355" y2="0.180"/>
<line class="cap" x1="31.289" y1="-0.180" x2="31.289" y2="0.180"/>
<line class="cap" x1="59.675" y1="-0.180" x2="59.675" y2="0.180"/>
<line class="cap" x1="64.359" y1="-0.180" x2="64.359" y2="0.180"/>
<line class="cap" x1="67.450" y1="-0.180" x2="67.450" y2="0.180"/>
<line class="cap" x1="72.509" y1="-0.180" x2="72.509" y2="0.180"/>
<line class="cap" x1="73.352" y1="-0.180" x2="73.352" y2="0.180"/>
<line class="cap" x1="0.180" y1="-44.030" x2="-0.180" y2="-44.030"/>
<line class="cap" x1="0.180" y1="-19.954" x2="-0.180" y2="-19.954"/>
<line class="cap" x1="0.180" y1="-19.954" x2="-0.180" y2="-19.954"/>
<line class="cap" x1="0.180" y1="-17.612" x2="-0.180" y2="-17.612"/>
<line class="cap" x1="0.180" y1="-15.457" x2="-0.180" y2="-15.457"/>
<line class="cap" x1="0.180" y1="-0.000" x2="-0.180" y2="-0.000"/>
<line class="cap" x1="6.738" y1="-44.030" x2="6.378" y2="-44.030"/>
<line class="cap" x1="6.738" y1="-19.954" x2="6.378" y2="-19.954"/>
<line class="cap" x1="0.000" y1="-34.467" x2="0.000" y2="-34.107"/>
<line class="cap" x1="6.558" y1="-34.467" x2="6.558" y2="-34.107"/>
<line class="cap" x1="0.000" y1="-20.134" x2="0.000" y2="-19.774"/>
<line class="cap" x1="6.558" y1="-20.134" x2="6.558" y2="-19.774"/>
<line class="cap" x1="0.000" y1="-15.637" x2="0.000" y2="-15.277"/>
<line class="cap" x1="21.734" y1="-15.637" x2="21.734" y2="-15.277"/>
<line class="cap" x1="0.000" y1="-6.738" x2="0.000" y2="-6.378"/>
<line class="cap" x1="21.734" y1="-6.738" x2="21.734" y2="-6.378"/>
<line class="cap" x1="21.914" y1="-15.457" x2="21.554" y2="-15.457"/>
<line class="cap" x1="21.914" y1="-6.558" x2="21.554" y2="-6.558"/>
<line class="cap" x1="0.000" y1="-6.738" x2="0.000" y2="-6.378"/>
<line class="cap" x1="27.355" y1="-6.738" x2="27.355" y2="-6.378"/>
<line class="cap" x1="6.558" y1="-36.060" x2="6.558" y2="-35.700"/>
<line class="cap" x1="18.924" y1="-36.060" x2="18.924" y2="-35.700"/>
<line class="cap" x1="19.104" y1="-44.030" x2="18.744" y2="-44.030"/>
<line class="cap" x1="19.104" y1="-35.880" x2="18.744" y2="-35.880"/>
<line class="cap" x1="26.598" y1="-44.030" x2="26.238" y2="-44.030"/>
<line class="cap" x1="26.598" y1="-35.880" x2="26.238" y2="-35.880"/>
<line class="cap" x1="18.924" y1="-36.060" x2="18.924" y2="-35.700"/>
<line class="cap" x1="21.547" y1="-36.060" x2="21.547" y2="-35.700"/>
<line class="cap" x1="24.076" y1="-36.060" x2="24.076" y2="-35.700"/>
<line class="cap" x1="26.418" y1="-36.060" x2="26.418" y2="-35.700"/>
<line class="cap" x1="27.066" y1="-44.030" x2="26.706" y2="-44.030"/>
<line class="cap" x1="27.066" y1="-34.662" x2="26.706" y2="-34.662"/>
<line class="cap" x1="26.886" y1="-41.025" x2="26.886" y2="-40.665"/>
<line class="cap" x1="33.912" y1="-41.025" x2="33.912" y2="-40.665"/>
<line class="cap" x1="34.092" y1="-40.845" x2="33.732" y2="-40.845"/>
<line class="cap" x1="34.092" y1="-34.662" x2="33.732" y2="-34.662"/>
<line class="cap" x1="26.886" y1="-34.842" x2="26.886" y2="-34.482"/>
<line class="cap" x1="28.947" y1="-34.842" x2="28.947" y2="-34.482"/>
<line class="cap" x1="31.383" y1="-34.842" x2="31.383" y2="-34.482"/>
<line class="cap" x1="33.912" y1="-34.842" x2="33.912" y2="-34.482"/>
<line class="cap" x1="42.055" y1="-44.030" x2="41.695" y2="-44.030"/>
<line class="cap" x1="42.055" y1="-34.662" x2="41.695" y2="-34.662"/>
<line class="cap" x1="33.912" y1="-34.842" x2="33.912" y2="-34.482"/>
<line class="cap" x1="41.875" y1="-34.842" x2="41.875" y2="-34.482"/>
<line class="cap" x1="58.918" y1="-44.030" x2="58.558" y2="-44.030"/>
<line class="cap" x1="58.918" y1="-34.662" x2="58.558" y2="-34.662"/>
<line class="cap" x1="62.852" y1="-44.030" x2="62.492" y2="-44.030"/>
<line class="cap" x1="62.852" y1="-34.662" x2="62.492" y2="-34.662"/>
<line class="cap" x1="67.630" y1="-44.030" x2="67.270" y2="-44.030"/>
<line class="cap" x1="67.630" y1="-34.662" x2="67.270" y2="-34.662"/>
<line class="cap" x1="62.672" y1="-34.842" x2="62.672" y2="-34.482"/>
<line class="cap" x1="73.352" y1="-34.842" x2="73.352" y2="-34.482"/>
<line class="cap" x1="63.696" y1="-34.662" x2="63.336" y2="-34.662"/>
<line class="cap" x1="63.696" y1="-29.322" x2="63.336" y2="-29.322"/>
<line class="cap" x1="63.516" y1="-29.502" x2="63.516" y2="-29.142"/>
<line class="cap" x1="73.352" y1="-29.502" x2="73.352" y2="-29.142"/>
<line class="cap" x1="63.696" y1="-29.322" x2="63.336" y2="-29.322"/>
<line class="cap" x1="63.696" y1="-18.736" x2="63.336" y2="-18.736"/>
<line class="cap" x1="63.516" y1="-18.916" x2="63.516" y2="-18.556"/>
<line class="cap" x1="73.352" y1="-18.916" x2="73.352" y2="-18.556"/>
<line class="cap" x1="63.696" y1="-18.736" x2="63.336" y2="-18.736"/>
<line class="cap" x1="63.696" y1="-9.649" x2="63.336" y2="-9.649"/>
<line class="cap" x1="63.516" y1="-9.829" x2="63.516" y2="-9.469"/>
<line class="cap" x1="73.352" y1="-9.829" x2="73.352" y2="-9.469"/>
<line class="cap" x1="6.558" y1="-32.313" x2="6.558" y2="-31.953"/>
<line class="cap" x1="18.924" y1="-32.313" x2="18.924" y2="-31.953"/>
<line class="cap" x1="6.558" y1="-26.692" x2="6.558" y2="-26.332"/>
<line class="cap" x1="18.924" y1="-26.692" x2="18.924" y2="-26.332"/>
<line class="cap" x1="12.359" y1="-32.133" x2="11.999" y2="-32.133"/>
<line class="cap" x1="12.359" y1="-26.512" x2="11.999" y2="-26.512"/>
<line class="cap" x1="19.104" y1="-32.133" x2="18.744" y2="-32.133"/>
<line class="cap" x1="19.104" y1="-26.512" x2="18.744" y2="-26.512"/>
<line class="cap" x1="6.558" y1="-21.727" x2="6.558" y2="-21.367"/>
<line class="cap" x1="20.235" y1="-21.727" x2="20.235" y2="-21.367"/>
<line class="cap" x1="20.415" y1="-26.512" x2="20.055" y2="-26.512"/>
<line class="cap" x1="20.415" y1="-21.547" x2="20.055" y2="-21.547"/>
<line class="cap" x1="20.235" y1="-26.692" x2="20.235" y2="-26.332"/>
<line class="cap" x1="27.167" y1="-26.692" x2="27.167" y2="-26.332"/>
<line class="cap" x1="20.235" y1="-21.727" x2="20.235" y2="-21.367"/>
<line class="cap" x1="30.165" y1="-21.727" x2="30.165" y2="-21.367"/>
<line class="cap" x1="30.345" y1="-21.547" x2="29.985" y2="-21.547"/>
<line class="cap" x1="30.345" y1="-17.612" x2="29.985" y2="-17.612"/>
<line class="cap" x1="30.165" y1="-17.792" x2="30.165" y2="-17.432"/>
<line class="cap" x1="41.407" y1="-17.792" x2="41.407" y2="-17.432"/>
<line class="cap" x1="47.496" y1="-17.792" x2="47.496" y2="-17.432"/>
<line class="cap" x1="52.180" y1="-17.792" x2="52.180" y2="-17.432"/>
<line class="cap" x1="55.459" y1="-17.792" x2="55.459" y2="-17.432"/>
<line class="cap" x1="60.893" y1="-17.792" x2="60.893" y2="-17.432"/>
<line class="cap" x1="19.104" y1="-15.457" x2="18.744" y2="-15.457"/>
<line class="cap" x1="19.104" y1="-6.558" x2="18.744" y2="-6.558"/>
<line class="cap" x1="18.924" y1="-15.637" x2="18.924" y2="-15.277"/>
<line class="cap" x1="27.355" y1="-15.637" x2="27.355" y2="-15.277"/>
<line class="cap" x1="27.535" y1="-15.457" x2="27.175" y2="-15.457"/>
<line class="cap" x1="27.535" y1="-6.558" x2="27.175" y2="-6.558"/>
<line class="cap" x1="27.535" y1="-15.457" x2="27.175" y2="-15.457"/>
<line class="cap" x1="27.535" y1="-2.155" x2="27.175" y2="-2.155"/>
<line class="cap" x1="27.355" y1="-15.637" x2="27.355" y2="-15.277"/>
<line class="cap" x1="40.470" y1="-15.637" x2="40.470" y2="-15.277"/>
<line class="cap" x1="40.650" y1="-15.457" x2="40.290" y2="-15.457"/>
<line class="cap" x1="40.650" y1="-2.155" x2="40.290" y2="-2.155"/>
<line class="cap" x1="40.650" y1="-15.457" x2="40.290" y2="-15.457"/>
<line class="cap" x1="40.650" y1="-2.155" x2="40.290" y2="-2.155"/>
<line class="cap" x1="46.458" y1="-15.457" x2="46.098" y2="-15.457"/>
<line class="cap" x1="46.458" y1="-2.155" x2="46.098" y2="-2.155"/>
<line class="cap" x1="40.470" y1="-15.637" x2="40.470" y2="-15.277"/>
<line class="cap" x1="46.278" y1="-15.637" x2="46.278" y2="-15.277"/>
<line class="cap" x1="48.894" y1="-15.457" x2="48.534" y2="-15.457"/>
<line class="cap" x1="48.894" y1="-0.000" x2="48.534" y2="-0.000"/>
<line class="cap" x1="48.714" y1="-15.637" x2="48.714" y2="-15.277"/>
<line class="cap" x1="52.274" y1="-15.637" x2="52.274" y2="-15.277"/>
<line class="cap" x1="55.459" y1="-15.637" x2="55.459" y2="-15.277"/>
<line class="cap" x1="60.893" y1="-15.637" x2="60.893" y2="-15.277"/>
<line class="cap" x1="61.073" y1="-15.457" x2="60.713" y2="-15.457"/>
<line class="cap" x1="61.073" y1="-0.000" x2="60.713" y2="-0.000"/>
<line class="cap" x1="48.714" y1="-9.829" x2="48.714" y2="-9.469"/>
<line class="cap" x1="60.893" y1="-9.829" x2="60.893" y2="-9.469"/>
<line class="gray" x1="12.834" y1="-17.612" x2="30.165" y2="-17.612"/>
<line class="gray" x1="12.834" y1="-21.547" x2="20.235" y2="-21.547"/>
<line class="ref" x1="0.000" y1="-45.529" x2="73.352" y2="-45.529"/>
<line class="ref" x1="0.000" y1="-46.278" x2="73.352" y2="-46.278"/>
<line class="ref" x1="-1.312" y1="-44.030" x2="-1.312" y2="-0.000"/>
<line class="ref" x1="74.664" y1="-44.030" x2="74.664" y2="-0.000"/>
<line class="ref" x1="0.000" y1="-44.030" x2="-1.312" y2="-44.030"/>
<line class="ref" x1="0.000" y1="-0.000" x2="-1.312" y2="-0.000"/>
<line class="ref" x1="73.352" y1="-44.030" x2="74.664" y2="-44.030"/>
<line class="ref" x1="73.352" y1="-0.000" x2="74.664" y2="-0.000"/>
<line class="window" x1="20.329" y1="-44.030" x2="23.889" y2="-44.030"/>
<line class="window" x1="20.329" y1="-44.110" x2="23.889" y2="-44.110"/>
<line class="window" x1="20.329" y1="-43.950" x2="23.889" y2="-43.950"/>
<line class="window" x1="20.149" y1="-44.030" x2="20.329" y2="-44.330"/>
<line class="window" x1="24.069" y1="-44.030" x2="23.889" y2="-44.330"/>
<line class="window" x1="20.329" y1="-43.730" x2="23.889" y2="-43.730"/>
<line class="window" x1="28.760" y1="-44.030" x2="32.039" y2="-44.030"/>
<line class="window" x1="28.760" y1="-44.110" x2="32.039" y2="-44.110"/>
<line class="window" x1="28.760" y1="-43.950" x2="32.039" y2="-43.950"/>
<line class="window" x1="28.580" y1="-44.030" x2="28.760" y2="-44.330"/>
<line class="window" x1="32.219" y1="-44.030" x2="32.039" y2="-44.330"/>
<line class="window" x1="28.760" y1="-43.730" x2="32.039" y2="-43.730"/>
<line class="window" x1="44.686" y1="-44.030" x2="48.433" y2="-44.030"/>
<line class="window" x1="44.686" y1="-44.110" x2="48.433" y2="-44.110"/>
<line class="window" x1="44.686" y1="-43.950" x2="48.433" y2="-43.950"/>
<line class="window" x1="44.506" y1="-44.030" x2="44.686" y2="-44.330"/>
<line class="window" x1="48.613" y1="-44.030" x2="48.433" y2="-44.330"/>
<line class="window" x1="44.686" y1="-43.730" x2="48.433" y2="-43.730"/>
<line class="window" x1="62.017" y1="-44.030" x2="67.169" y2="-44.030"/>
<line class="window" x1="62.017" y1="-44.110" x2="67.169" y2="-44.110"/>
<line class="window" x1="62.017" y1="-43.950" x2="67.169" y2="-43.950"/>
<line class="window" x1="61.837" y1="-44.030" x2="62.017" y2="-44.330"/>
<line class="window" x1="67.349" y1="-44.030" x2="67.169" y2="-44.330"/>
<line class="window" x1="62.017" y1="-43.730" x2="67.169" y2="-43.730"/>
<line class="window" x1="27.355" y1="-0.000" x2="31.289" y2="-0.000"/>
<line class="window" x1="27.355" y1="-0.080" x2="31.289" y2="-0.080"/>
<line class="window" x1="27.355" y1="0.080" x2="31.289" y2="0.080"/>
<line class="window" x1="27.175" y1="-0.000" x2="27.355" y2="-0.300"/>
<line class="window" x1="31.469" y1="-0.000" x2="31.289" y2="-0.300"/>
<line class="window" x1="27.355" y1="0.300" x2="31.289" y2="0.300"/>
<line class="window" x1="59.675" y1="-0.000" x2="64.359" y2="-0.000"/>
<line class="window" x1="59.675" y1="-0.080" x2="64.359" y2="-0.080"/>
<line class="window" x1="59.675" y1="0.080" x2="64.359" y2="0.080"/>
<line class="window" x1="59.495" y1="-0.000" x2="59.675" y2="-0.300"/>
<line class="window" x1="64.539" y1="-0.000" x2="64.359" y2="-0.300"/>
<line class="window" x1="59.675" y1="0.300" x2="64.359" y2="0.300"/>
<line class="window" x1="67.450" y1="-0.000" x2="72.509" y2="-0.000"/>
<line class="window" x1="67.450" y1="-0.080" x2="72.509" y2="-0.080"/>
<line class="window" x1="67.450" y1="0.080" x2="72.509" y2="0.080"/>
<line class="window" x1="67.270" y1="-0.000" x2="67.450" y2="-0.300"/>
<line class="window" x1="72.689" y1="-0.000" x2="72.509" y2="-0.300"/>
<line class="window" x1="67.450" y1="0.300" x2="72.509" y2="0.300"/>
<line class="window" x1="0.000" y1="-42.906" x2="0.000" y2="-35.880"/>
<line class="window" x1="0.080" y1="-42.906" x2="0.080" y2="-35.880"/>
<line class="window" x1="-0.080" y1="-42.906" x2="-0.080" y2="-35.880"/>
<line class="window" x1="0.000" y1="-43.086" x2="0.300" y2="-42.906"/>
<line class="window" x1="0.000" y1="-35.700" x2="0.300" y2="-35.880"/>
<line class="window" x1="-0.300" y1="-42.906" x2="-0.300" y2="-35.880"/>
<line class="window" x1="0.000" y1="-32.133" x2="0.000" y2="-21.547"/>
<line class="window" x1="0.080" y1="-32.133" x2="0.080" y2="-21.547"/>
<line class="window" x1="-0.080" y1="-32.133" x2="-0.080" y2="-21.547"/>
<line class="window" x1="0.000" y1="-32.313" x2="0.300" y2="-32.133"/>
<line class="window" x1="0.000" y1="-21.367" x2="0.300" y2="-21.547"/>
<line class="window" x1="-0.300" y1="-32.133" x2="-0.300" y2="-21.547"/>
<line class="window" x1="73.352" y1="-29.322" x2="73.352" y2="-18.736"/>
<line class="window" x1="73.432" y1="-29.322" x2="73.432" y2="-18.736"/>
<line class="window" x1="73.272" y1="-29.322" x2="73.272" y2="-18.736"/>
<line class="window" x1="73.352" y1="-29.502" x2="73.652" y2="-29.322"/>
<line class="window" x1="73.352" y1="-18.556" x2="73.652" y2="-18.736"/>
<line class="window" x1="73.052" y1="-29.322" x2="73.052" y2="-18.736"/>
<line class="window" x1="73.352" y1="-9.649" x2="73.352" y2="-2.155"/>
<line class="window" x1="73.432" y1="-9.649" x2="73.432" y2="-2.155"/>
<line class="window" x1="73.272" y1="-9.649" x2="73.272" y2="-2.155"/>
<line class="window" x1="73.352" y1="-9.829" x2="73.652" y2="-9.649"/>
<line class="window" x1="73.352" y1="-1.975" x2="73.652" y2="-2.155"/>
<line class="window" x1="73.052" y1="-9.649" x2="73.052" y2="-2.155"/>
<line class="door" x1="6.558" y1="-35.599" x2="6.558" y2="-38.149"/>
<line class="door" x1="6.558" y1="-35.599" x2="4.008" y2="-35.599"/>
<line class="jamb" x1="6.558" y1="-35.769" x2="6.558" y2="-35.429"/>
<line class="jamb" x1="4.008" y1="-35.769" x2="4.008" y2="-35.429"/>
<path class="door" d="M 6.558,-38.149 A 2.550,2.550 0 0 1 4.008,-35.599"/>
<line class="door" x1="0.000" y1="-19.954" x2="0.000" y2="-22.804"/>
<line class="door" x1="0.000" y1="-19.954" x2="2.850" y2="-19.954"/>
<line class="jamb" x1="0.000" y1="-19.784" x2="0.000" y2="-20.124"/>
<line class="jamb" x1="2.850" y1="-19.784" x2="2.850" y2="-20.124"/>
<path class="door" d="M 0.000,-22.804 A 2.850,2.850 0 0 0 2.850,-19.954"/>
<line class="door" x1="6.558" y1="-19.954" x2="6.558" y2="-22.704"/>
<line class="door" x1="6.558" y1="-19.954" x2="3.808" y2="-19.954"/>
<line class="jamb" x1="6.558" y1="-20.124" x2="6.558" y2="-19.784"/>
<line class="jamb" x1="3.808" y1="-20.124" x2="3.808" y2="-19.784"/>
<path class="door" d="M 6.558,-22.704 A 2.750,2.750 0 0 1 3.808,-19.954"/>
<line class="door" x1="18.924" y1="-37.004" x2="18.924" y2="-39.854"/>
<line class="door" x1="18.924" y1="-37.004" x2="16.074" y2="-37.004"/>
<line class="jamb" x1="18.924" y1="-37.174" x2="18.924" y2="-36.834"/>
<line class="jamb" x1="16.074" y1="-37.174" x2="16.074" y2="-36.834"/>
<path class="door" d="M 18.924,-39.854 A 2.850,2.850 0 0 1 16.074,-37.004"/>
<line class="door" x1="12.179" y1="-32.133" x2="14.529" y2="-32.133"/>
<line class="door" x1="12.179" y1="-32.133" x2="12.179" y2="-34.483"/>
<line class="jamb" x1="12.349" y1="-32.133" x2="12.009" y2="-32.133"/>
<line class="jamb" x1="12.349" y1="-34.483" x2="12.009" y2="-34.483"/>
<path class="door" d="M 14.529,-32.133 A 2.350,2.350 0 0 1 12.179,-34.483"/>
<line class="door" x1="14.052" y1="-32.133" x2="11.702" y2="-32.133"/>
<line class="door" x1="14.052" y1="-32.133" x2="14.052" y2="-34.483"/>
<line class="jamb" x1="14.222" y1="-32.133" x2="13.882" y2="-32.133"/>
<line class="jamb" x1="14.222" y1="-34.483" x2="13.882" y2="-34.483"/>
<path class="door" d="M 11.702,-32.133 A 2.350,2.350 0 0 0 14.052,-34.483"/>
<line class="door" x1="26.886" y1="-40.845" x2="24.836" y2="-40.845"/>
<line class="door" x1="26.886" y1="-40.845" x2="26.886" y2="-38.795"/>
<line class="jamb" x1="26.716" y1="-40.845" x2="27.056" y2="-40.845"/>
<line class="jamb" x1="26.716" y1="-38.795" x2="27.056" y2="-38.795"/>
<path class="door" d="M 24.836,-40.845 A 2.050,2.050 0 0 1 26.886,-38.795"/>
<line class="door" x1="28.947" y1="-34.662" x2="30.897" y2="-34.662"/>
<line class="door" x1="28.947" y1="-34.662" x2="28.947" y2="-36.612"/>
<line class="jamb" x1="29.117" y1="-34.662" x2="28.777" y2="-34.662"/>
<line class="jamb" x1="29.117" y1="-36.612" x2="28.777" y2="-36.612"/>
<path class="door" d="M 30.897,-34.662 A 1.950,1.950 0 0 1 28.947,-36.612"/>
<line class="door" x1="31.383" y1="-34.662" x2="29.433" y2="-34.662"/>
<line class="door" x1="31.383" y1="-34.662" x2="31.383" y2="-36.612"/>
<line class="jamb" x1="31.553" y1="-34.662" x2="31.213" y2="-34.662"/>
<line class="jamb" x1="31.553" y1="-36.612" x2="31.213" y2="-36.612"/>
<path class="door" d="M 29.433,-34.662 A 1.950,1.950 0 0 0 31.383,-36.612"/>
<line class="door" x1="41.875" y1="-34.662" x2="41.875" y2="-37.312"/>
<line class="door" x1="41.875" y1="-34.662" x2="39.225" y2="-34.662"/>
<line class="jamb" x1="41.875" y1="-34.832" x2="41.875" y2="-34.492"/>
<line class="jamb" x1="39.225" y1="-34.832" x2="39.225" y2="-34.492"/>
<path class="door" d="M 41.875,-37.312 A 2.650,2.650 0 0 1 39.225,-34.662"/>
<line class="door" x1="62.672" y1="-34.662" x2="62.672" y2="-32.312"/>
<line class="door" x1="62.672" y1="-34.662" x2="65.022" y2="-34.662"/>
<line class="jamb" x1="62.672" y1="-34.492" x2="62.672" y2="-34.832"/>
<line class="jamb" x1="65.022" y1="-34.492" x2="65.022" y2="-34.832"/>
<path class="door" d="M 62.672,-32.312 A 2.350,2.350 0 0 1 65.022,-34.662"/>
<line class="door" x1="67.450" y1="-34.662" x2="69.800" y2="-34.662"/>
<line class="door" x1="67.450" y1="-34.662" x2="67.450" y2="-37.012"/>
<line class="jamb" x1="67.620" y1="-34.662" x2="67.280" y2="-34.662"/>
<line class="jamb" x1="67.620" y1="-37.012" x2="67.280" y2="-37.012"/>
<path class="door" d="M 69.800,-34.662 A 2.350,2.350 0 0 1 67.450,-37.012"/>
<line class="door" x1="63.516" y1="-32.133" x2="63.516" y2="-34.783"/>
<line class="door" x1="63.516" y1="-32.133" x2="60.866" y2="-32.133"/>
<line class="jamb" x1="63.516" y1="-32.303" x2="63.516" y2="-31.963"/>
<line class="jamb" x1="60.866" y1="-32.303" x2="60.866" y2="-31.963"/>
<path class="door" d="M 63.516,-34.783 A 2.650,2.650 0 0 1 60.866,-32.133"/>
<line class="door" x1="63.516" y1="-23.701" x2="63.516" y2="-26.351"/>
<line class="door" x1="63.516" y1="-23.701" x2="60.866" y2="-23.701"/>
<line class="jamb" x1="63.516" y1="-23.871" x2="63.516" y2="-23.531"/>
<line class="jamb" x1="60.866" y1="-23.871" x2="60.866" y2="-23.531"/>
<path class="door" d="M 63.516,-26.351 A 2.650,2.650 0 0 1 60.866,-23.701"/>
<line class="door" x1="30.165" y1="-17.612" x2="30.165" y2="-20.662"/>
<line class="door" x1="30.165" y1="-17.612" x2="27.115" y2="-17.612"/>
<line class="jamb" x1="30.165" y1="-17.782" x2="30.165" y2="-17.442"/>
<line class="jamb" x1="27.115" y1="-17.782" x2="27.115" y2="-17.442"/>
<path class="door" d="M 30.165,-20.662 A 3.050,3.050 0 0 1 27.115,-17.612"/>
<line class="door" x1="20.797" y1="-15.457" x2="22.247" y2="-15.457"/>
<line class="door" x1="20.797" y1="-15.457" x2="20.797" y2="-16.907"/>
<line class="jamb" x1="20.967" y1="-15.457" x2="20.627" y2="-15.457"/>
<line class="jamb" x1="20.967" y1="-16.907" x2="20.627" y2="-16.907"/>
<path class="door" d="M 22.247,-15.457 A 1.450,1.450 0 0 1 20.797,-16.907"/>
<line class="door" x1="22.671" y1="-15.457" x2="21.221" y2="-15.457"/>
<line class="door" x1="22.671" y1="-15.457" x2="22.671" y2="-16.907"/>
<line class="jamb" x1="22.841" y1="-15.457" x2="22.501" y2="-15.457"/>
<line class="jamb" x1="22.841" y1="-16.907" x2="22.501" y2="-16.907"/>
<path class="door" d="M 21.221,-15.457 A 1.450,1.450 0 0 0 22.671,-16.907"/>
<line class="door" x1="40.470" y1="-15.457" x2="43.120" y2="-15.457"/>
<line class="door" x1="40.470" y1="-15.457" x2="40.470" y2="-18.107"/>
<line class="jamb" x1="40.640" y1="-15.457" x2="40.300" y2="-15.457"/>
<line class="jamb" x1="40.640" y1="-18.107" x2="40.300" y2="-18.107"/>
<path class="door" d="M 43.120,-15.457 A 2.650,2.650 0 0 1 40.470,-18.107"/>
<line class="door" x1="46.278" y1="-15.457" x2="44.128" y2="-15.457"/>
<line class="door" x1="46.278" y1="-15.457" x2="46.278" y2="-17.607"/>
<line class="jamb" x1="46.448" y1="-15.457" x2="46.108" y2="-15.457"/>
<line class="jamb" x1="46.448" y1="-17.607" x2="46.108" y2="-17.607"/>
<path class="door" d="M 44.128,-15.457 A 2.150,2.150 0 0 0 46.278,-17.607"/>
<line class="door" x1="52.274" y1="-15.457" x2="54.924" y2="-15.457"/>
<line class="door" x1="52.274" y1="-15.457" x2="52.274" y2="-18.107"/>
<line class="jamb" x1="52.444" y1="-15.457" x2="52.104" y2="-15.457"/>
<line class="jamb" x1="52.444" y1="-18.107" x2="52.104" y2="-18.107"/>
<path class="door" d="M 54.924,-15.457 A 2.650,2.650 0 0 1 52.274,-18.107"/>
<line class="stair" x1="2.998" y1="-14.333" x2="14.239" y2="-14.333"/>
<line class="stair" x1="14.239" y1="-14.333" x2="14.239" y2="-6.558"/>
<line class="stair" x1="14.239" y1="-6.558" x2="2.998" y2="-6.558"/>
<line class="stair" x1="2.998" y1="-6.558" x2="2.998" y2="-14.333"/>
<line class="stair" x1="3.863" y1="-6.558" x2="3.863" y2="-14.333"/>
<line class="stair" x1="4.727" y1="-6.558" x2="4.727" y2="-14.333"/>
<line class="stair" x1="5.592" y1="-6.558" x2="5.592" y2="-14.333"/>
<line class="stair" x1="6.457" y1="-6.558" x2="6.457" y2="-14.333"/>
<line class="stair" x1="7.322" y1="-6.558" x2="7.322" y2="-14.333"/>
<line class="stair" x1="8.186" y1="-6.558" x2="8.186" y2="-14.333"/>
<line class="stair" x1="9.051" y1="-6.558" x2="9.051" y2="-14.333"/>
<line class="stair" x1="9.916" y1="-6.558" x2="9.916" y2="-14.333"/>
<line class="stair" x1="10.781" y1="-6.558" x2="10.781" y2="-14.333"/>
<line class="stair" x1="11.645" y1="-6.558" x2="11.645" y2="-14.333"/>
<line class="stair" x1="12.510" y1="-6.558" x2="12.510" y2="-14.333"/>
<line class="stair" x1="13.375" y1="-6.558" x2="13.375" y2="-14.333"/>
<line class="stair" x1="2.998" y1="-10.445" x2="14.239" y2="-10.445"/>
<line class="stair" x1="13.339" y1="-10.795" x2="13.989" y2="-10.445"/>
<line class="stair" x1="13.339" y1="-10.095" x2="13.989" y2="-10.445"/>
<rect class="detail" x="46.278" y="-2.436" width="1.218" height="1.218"/>
<rect class="detail" x="18.455" y="-15.551" width="0.937" height="2.155"/>
<rect class="detail" x="47.965" y="-15.457" width="0.937" height="0.937"/>
<text class="label" x="2.810" y="-38.971" text-anchor="middle">PANTRY</text>
<text class="label" x="30.165" y="-41.969" text-anchor="middle">washroom</text>
<text class="label" x="30.165" y="-41.449" text-anchor="middle">U</text>
<text class="label" x="64.827" y="-39.814" text-anchor="middle" transform="rotate(90.0 64.827 -39.814)">Washroom M</text>
<text class="label" x="69.980" y="-39.814" text-anchor="middle" transform="rotate(90.0 69.980 -39.814)">Washroom F</text>
<text class="anno" x="0" y="2.8">ULTRA REFINED MATCHED OFFICE FLOORPLAN - ARCHITECTURAL TRACE</text>
<text class="anno" x="0" y="3.4">Units: feet. Approximate source scale. Right wall reference: 44.03 ft. Doors/windows matched visually.</text>
</svg>