<svg xmlns="http://www.w3.org/2000/svg" width="1800" height="1150" viewBox="-4.000 -50.030 83.352 55.030">
<rect x="-100" y="-100" width="300" height="300" fill="#ffffff"/>
<style>text{font-family:Arial,Helvetica,sans-serif}.label{font-size:0.72px;font-weight:700;fill:#111827}.anno{font-size:0.46px;fill:#7c2d12}.wall{fill:#111827;stroke:#111827;stroke-width:.03}.thin{stroke:#111827;stroke-width:.11;fill:none}.door{stroke:#b91c1c;stroke-width:.11;fill:none}.glaz{stroke:#0369a1;stroke-width:.10;fill:none}.dim{stroke:#dc2626;stroke-width:.08;fill:none;stroke-dasharray:.35 .25}</style>
<polygon class="wall" points="0.000,-44.260 73.352,-44.260 73.352,-43.800 0.000,-43.800"/>
<polygon class="wall" points="73.582,-44.030 73.582,-0.000 73.122,-0.000 73.122,-44.030"/>
<polygon class="wall" points="73.352,0.230 0.000,0.230 0.000,-0.230 73.352,-0.230"/>
<polygon class="wall" points="-0.230,-0.000 -0.230,-44.030 0.230,-44.030 0.230,-0.000"/>
<polygon class="wall" points="6.728,-44.030 6.728,-18.080 6.388,-18.080 6.388,-44.030"/>
<polygon class="wall" points="0.000,-33.520 6.558,-33.520 6.558,-33.180 0.000,-33.180"/>
<polygon class="wall" points="0.000,-18.250 6.558,-18.250 6.558,-17.910 0.000,-17.910"/>
<polygon class="wall" points="6.558,-34.832 20.329,-34.832 20.329,-34.492 6.558,-34.492"/>
<polygon class="wall" points="20.499,-44.030 20.499,-34.662 20.159,-34.662 20.159,-44.030"/>
<polygon class="wall" points="28.462,-44.030 28.462,-34.662 28.122,-34.662 28.122,-44.030"/>
<polygon class="wall" points="34.832,-42.718 34.832,-34.662 34.492,-34.662 34.492,-42.718"/>
<polygon class="wall" points="28.292,-41.015 34.662,-41.015 34.662,-40.675 28.292,-40.675"/>
<polygon class="wall" points="34.832,-40.845 34.832,-34.662 34.492,-34.662 34.492,-40.845"/>
<polygon class="wall" points="44.762,-44.030 44.762,-34.662 44.422,-34.662 44.422,-44.030"/>
<polygon class="wall" points="34.662,-34.832 44.592,-34.832 44.592,-34.492 34.662,-34.492"/>
<polygon class="wall" points="62.842,-44.030 62.842,-33.538 62.502,-33.538 62.502,-44.030"/>
<polygon class="wall" points="67.527,-44.030 67.527,-33.538 67.187,-33.538 67.187,-44.030"/>
<polygon class="wall" points="70.431,-44.030 70.431,-33.538 70.091,-33.538 70.091,-44.030"/>
<polygon class="wall" points="62.672,-33.708 73.352,-33.708 73.352,-33.368 62.672,-33.368"/>
<polygon class="wall" points="63.686,-33.538 63.686,-15.457 63.346,-15.457 63.346,-33.538"/>
<polygon class="wall" points="63.516,-27.806 73.352,-27.806 73.352,-27.466 63.516,-27.466"/>
<polygon class="wall" points="63.516,-15.627 73.352,-15.627 73.352,-15.287 63.516,-15.287"/>
<polygon class="wall" points="61.063,-15.457 61.063,-0.000 60.723,-0.000 60.723,-15.457"/>
<polygon class="wall" points="43.544,-15.457 43.544,-0.000 43.204,-0.000 43.204,-15.457"/>
<polygon class="wall" points="48.884,-15.457 48.884,-0.000 48.544,-0.000 48.544,-15.457"/>
<polygon class="wall" points="28.198,-15.627 60.893,-15.627 60.893,-15.287 28.198,-15.287"/>
<polygon class="wall" points="6.558,-14.503 28.198,-14.503 28.198,-14.163 6.558,-14.163"/>
<polygon class="wall" points="28.368,-14.333 28.368,-0.000 28.028,-0.000 28.028,-14.333"/>
<polygon class="wall" points="21.683,-14.333 21.683,-6.558 21.223,-6.558 21.223,-14.333"/>
<polygon class="wall" points="0.000,-6.788 21.453,-6.788 21.453,-6.328 0.000,-6.328"/>
<polygon class="wall" points="21.810,-34.662 21.810,-19.767 21.470,-19.767 21.470,-34.662"/>
<polygon class="wall" points="6.558,-25.651 21.640,-25.651 21.640,-25.311 6.558,-25.311"/>
<polygon class="wall" points="13.473,-30.915 13.473,-25.481 13.133,-25.481 13.133,-30.915"/>
<polygon class="wall" points="20.499,-30.915 20.499,-25.481 20.159,-25.481 20.159,-30.915"/>
<polygon class="wall" points="21.640,-19.937 32.320,-19.937 32.320,-19.597 21.640,-19.597"/>
<polygon class="wall" points="32.490,-19.767 32.490,-15.457 32.150,-15.457 32.150,-19.767"/>
<polygon class="wall" points="32.320,-15.627 43.374,-15.627 43.374,-15.287 32.320,-15.287"/>
<polygon class="wall" points="63.346,-15.457 63.346,-25.200 63.686,-25.200 63.686,-15.457"/>
<polygon class="wall" points="56.302,-15.627 60.799,-15.627 60.799,-15.287 56.302,-15.287"/>
<line class="glaz" x1="20.985" y1="-44.030" x2="24.585" y2="-44.030"/>
<line class="glaz" x1="36.723" y1="-44.030" x2="40.923" y2="-44.030"/>
<line class="glaz" x1="55.459" y1="-44.030" x2="59.659" y2="-44.030"/>
<line class="glaz" x1="40.189" y1="-0.000" x2="45.389" y2="-0.000"/>
<line class="glaz" x1="59.768" y1="-0.000" x2="64.768" y2="-0.000"/>
<line class="glaz" x1="67.731" y1="-0.000" x2="72.231" y2="-0.000"/>
<line class="door" x1="6.558" y1="-34.287" x2="6.558" y2="-37.287"/>
<line class="door" x1="6.558" y1="-34.287" x2="3.558" y2="-34.287"/>
<path class="door" d="M 6.558,-37.287 A 3.000,3.000 0 0 0 3.558,-34.287"/>
<line class="door" x1="6.558" y1="-18.174" x2="6.558" y2="-21.174"/>
<line class="door" x1="6.558" y1="-18.174" x2="3.558" y2="-18.174"/>
<path class="door" d="M 6.558,-21.174 A 3.000,3.000 0 0 0 3.558,-18.174"/>
<line class="door" x1="20.329" y1="-35.786" x2="20.329" y2="-38.786"/>
<line class="door" x1="20.329" y1="-35.786" x2="17.329" y2="-35.786"/>
<path class="door" d="M 20.329,-38.786 A 3.000,3.000 0 0 0 17.329,-35.786"/>
<line class="door" x1="13.303" y1="-30.915" x2="16.303" y2="-30.915"/>
<line class="door" x1="13.303" y1="-30.915" x2="13.303" y2="-33.915"/>
<path class="door" d="M 16.303,-30.915 A 3.000,3.000 0 0 0 13.303,-33.915"/>
<line class="door" x1="13.303" y1="-30.915" x2="16.303" y2="-30.915"/>
<line class="door" x1="13.303" y1="-30.915" x2="13.303" y2="-33.915"/>
<path class="door" d="M 16.303,-30.915 A 3.000,3.000 0 0 0 13.303,-33.915"/>
<line class="door" x1="32.320" y1="-15.457" x2="32.320" y2="-18.457"/>
<line class="door" x1="32.320" y1="-15.457" x2="29.320" y2="-15.457"/>
<path class="door" d="M 32.320,-18.457 A 3.000,3.000 0 0 0 29.320,-15.457"/>
<line class="door" x1="28.292" y1="-40.845" x2="30.692" y2="-40.845"/>
<line class="door" x1="28.292" y1="-40.845" x2="28.292" y2="-43.245"/>
<path class="door" d="M 30.692,-40.845 A 2.400,2.400 0 0 0 28.292,-43.245"/>
<line class="door" x1="34.662" y1="-34.662" x2="34.662" y2="-37.062"/>
<line class="door" x1="34.662" y1="-34.662" x2="32.262" y2="-34.662"/>
<path class="door" d="M 34.662,-37.062 A 2.400,2.400 0 0 0 32.262,-34.662"/>
<line class="door" x1="43.374" y1="-15.457" x2="46.374" y2="-15.457"/>
<line class="door" x1="43.374" y1="-15.457" x2="43.374" y2="-18.457"/>
<path class="door" d="M 46.374,-15.457 A 3.000,3.000 0 0 0 43.374,-18.457"/>
<line class="door" x1="48.714" y1="-15.457" x2="51.714" y2="-15.457"/>
<line class="door" x1="48.714" y1="-15.457" x2="48.714" y2="-18.457"/>
<path class="door" d="M 51.714,-15.457 A 3.000,3.000 0 0 0 48.714,-18.457"/>
<line class="door" x1="63.516" y1="-30.727" x2="63.516" y2="-33.727"/>
<line class="door" x1="63.516" y1="-30.727" x2="60.516" y2="-30.727"/>
<path class="door" d="M 63.516,-33.727 A 3.000,3.000 0 0 0 60.516,-30.727"/>
<line class="door" x1="63.516" y1="-21.078" x2="63.516" y2="-24.078"/>
<line class="door" x1="63.516" y1="-21.078" x2="60.516" y2="-21.078"/>
<path class="door" d="M 63.516,-24.078 A 3.000,3.000 0 0 0 60.516,-21.078"/>
<line class="door" x1="67.357" y1="-33.538" x2="69.857" y2="-33.538"/>
<line class="door" x1="67.357" y1="-33.538" x2="67.357" y2="-36.038"/>
<path class="door" d="M 69.857,-33.538 A 2.500,2.500 0 0 0 67.357,-36.038"/>
<line class="door" x1="70.261" y1="-33.538" x2="72.761" y2="-33.538"/>
<line class="door" x1="70.261" y1="-33.538" x2="70.261" y2="-36.038"/>
<path class="door" d="M 72.761,-33.538 A 2.500,2.500 0 0 0 70.261,-36.038"/>
<polygon class="thin" points="3.185,-14.052 15.176,-14.052 15.176,-6.558 3.185,-6.558"/>
<line class="thin" x1="4.108" y1="-6.558" x2="4.108" y2="-14.052"/>
<line class="thin" x1="5.030" y1="-6.558" x2="5.030" y2="-14.052"/>
<line class="thin" x1="5.952" y1="-6.558" x2="5.952" y2="-14.052"/>
<line class="thin" x1="6.875" y1="-6.558" x2="6.875" y2="-14.052"/>
<line class="thin" x1="7.797" y1="-6.558" x2="7.797" y2="-14.052"/>
<line class="thin" x1="8.720" y1="-6.558" x2="8.720" y2="-14.052"/>
<line class="thin" x1="9.642" y1="-6.558" x2="9.642" y2="-14.052"/>
<line class="thin" x1="10.564" y1="-6.558" x2="10.564" y2="-14.052"/>
<line class="thin" x1="11.487" y1="-6.558" x2="11.487" y2="-14.052"/>
<line class="thin" x1="12.409" y1="-6.558" x2="12.409" y2="-14.052"/>
<line class="thin" x1="13.332" y1="-6.558" x2="13.332" y2="-14.052"/>
<line class="thin" x1="14.254" y1="-6.558" x2="14.254" y2="-14.052"/>
<line class="thin" x1="3.185" y1="-10.305" x2="15.176" y2="-10.305"/>
<text class="label" x="2.810" y="-38.878" text-anchor="middle">PANTRY</text>
<text class="label" x="31.102" y="-42.156" text-anchor="middle">WASHROOM U</text>
<text class="label" x="65.483" y="-39.814" text-anchor="middle" transform="rotate(90.0 65.483 -39.814)">WASH M</text>
<text class="label" x="70.354" y="-39.814" text-anchor="middle" transform="rotate(90.0 70.354 -39.814)">WASH F</text>
<text class="label" x="8.619" y="-10.118" text-anchor="middle">STAIR</text>
<text class="label" x="13.771" y="-39.533" text-anchor="middle">OFFICE</text>
<text class="label" x="24.076" y="-39.533" text-anchor="middle">CABIN</text>
<text class="label" x="39.721" y="-39.533" text-anchor="middle">MEETING</text>
<text class="label" x="45.623" y="-22.296" text-anchor="middle">OPEN OFFICE / LOBBY</text>
<text class="label" x="68.106" y="-23.889" text-anchor="middle">CABIN</text>
<text class="label" x="68.012" y="-9.368" text-anchor="middle">CABIN</text>
<line class="dim" x1="76.152" y1="-44.030" x2="76.152" y2="-0.000"/>
<text class="anno" x="76.152" y="-22.295" text-anchor="middle">RIGHT EXTERIOR WALL = 44.03 ft / 13.420 m</text>
<line class="dim" x1="0.000" y1="2.800" x2="73.352" y2="2.800"/>
<text class="anno" x="36.676" y="2.520" text-anchor="middle">DERIVED OVERALL WIDTH</text>
<text class="anno" x="0" y="4.2">Scale note: right exterior wall fixed at 44.03 ft / 13.420 m; other dimensions derived proportionally from the image.</text>
</svg>