0
SECTION
2
HEADER
9
$ACADVER
1
AC1009
9
$INSUNITS
70
2
0
ENDSEC
0
SECTION
2
TABLES
0
TABLE
2
LAYER
70
7
0
LAYER
2
A-WALL
70
0
62
7
6
CONTINUOUS
0
LAYER
2
A-DOOR
70
0
62
1
6
CONTINUOUS
0
LAYER
2
A-GLAZ
70
0
62
4
6
CONTINUOUS
0
LAYER
2
A-STAIR
70
0
62
3
6
CONTINUOUS
0
LAYER
2
A-TEXT
70
0
62
2
6
CONTINUOUS
0
LAYER
2
A-ANNO
70
0
62
6
6
CONTINUOUS
0
LAYER
2
0
70
0
62
7
6
CONTINUOUS
0
ENDTAB
0
ENDSEC
0
SECTION
2
ENTITIES
0
POLYLINE
8
A-WALL
66
1
70
1
0
VERTEX
8
A-WALL
10
0.0000
20
44.2600
30
0.0
0
VERTEX
8
A-WALL
10
73.3521
20
44.2600
30
0.0
0
VERTEX
8
A-WALL
10
73.3521
20
43.8000
30
0.0
0
VERTEX
8
A-WALL
10
0.0000
20
43.8000
30
0.0
0
SEQEND
0
POLYLINE
8
A-WALL
66
1
70
1
0
VERTEX
8
A-WALL
10
73.5821
20
44.0300
30
0.0
0
VERTEX
8
A-WALL
10
73.5821
20
0.0000
30
0.0
0
VERTEX
8
A-WALL
10
73.1221
20
0.0000
30
0.0
0
VERTEX
8
A-WALL
10
73.1221
20
44.0300
30
0.0
0
SEQEND
0
POLYLINE
8
A-WALL
66
1
70
1
0
VERTEX
8
A-WALL
10
73.3521
20
-0.2300
30
0.0
0
VERTEX
8
A-WALL
10
0.0000
20
-0.2300
30
0.0
0
VERTEX
8
A-WALL
10
0.0000
20
0.2300
30
0.0
0
VERTEX
8
A-WALL
10
73.3521
20
0.2300
30
0.0
0
SEQEND
0
POLYLINE
8
A-WALL
66
1
70
1
0
VERTEX
8
A-WALL
10
-0.2300
20
0.0000
30
0.0
0
VERTEX
8
A-WALL
10
-0.2300
20
44.0300
30
0.0
0
VERTEX
8
A-WALL
10
0.2300
20
44.0300
30
0.0
0
VERTEX
8
A-WALL
10
0.2300
20
0.0000
30
0.0
0
SEQEND
0
POLYLINE
8
A-WALL
66
1
70
1
0
VERTEX
8
A-WALL
10
6.7277
20
44.0300
30
0.0
0
VERTEX
8
A-WALL
10
6.7277
20
18.0804
30
0.0
0
VERTEX
8
A-WALL
10
6.3877
20
18.0804
30
0.0
0
VERTEX
8
A-WALL
10
6.3877
20
44.0300
30
0.0
0
SEQEND
0
POLYLINE
8
A-WALL
66
1
70
1
0
VERTEX
8
A-WALL
10
0.0000
20
33.5204
30
0.0
0
VERTEX
8
A-WALL
10
6.5577
20
33.5204
30
0.0
0
VERTEX
8
A-WALL
10
6.5577
20
33.1804
30
0.0
0
VERTEX
8
A-WALL
10
0.0000
20
33.1804
30
0.0
0
SEQEND
0
POLYLINE
8
A-WALL
66
1
70
1
0
VERTEX
8
A-WALL
10
0.0000
20
18.2504
30
0.0
0
VERTEX
8
A-WALL
10
6.5577
20
18.2504
30
0.0
0
VERTEX
8
A-WALL
10
6.5577
20
17.9104
30
0.0
0
VERTEX
8
A-WALL
10
0.0000
20
17.9104
30
0.0
0
SEQEND
0
POLYLINE
8
A-WALL
66
1
70
1
0
VERTEX
8
A-WALL
10
6.5577
20
34.8319
30
0.0
0
VERTEX
8
A-WALL
10
20.3287
20
34.8319
30
0.0
0
VERTEX
8
A-WALL
10
20.3287
20
34.4919
30
0.0
0
VERTEX
8
A-WALL
10
6.5577
20
34.4919
30
0.0
0
SEQEND
0
POLYLINE
8
A-WALL
66
1
70
1
0
VERTEX
8
A-WALL
10
20.4987
20
44.0300
30
0.0
0
VERTEX
8
A-WALL
10
20.4987
20
34.6619
30
0.0
0
VERTEX
8
A-WALL
10
20.1587
20
34.6619
30
0.0
0
VERTEX
8
A-WALL
10
20.1587
20
44.0300
30
0.0
0
SEQEND
0
POLYLINE
8
A-WALL
66
1
70
1
0
VERTEX
8
A-WALL
10
28.4616
20
44.0300
30
0.0
0
VERTEX
8
A-WALL
10
28.4616
20
34.6619
30
0.0
0
VERTEX
8
A-WALL
10
28.1216
20
34.6619
30
0.0
0
VERTEX
8
A-WALL
10
28.1216
20
44.0300
30
0.0
0
SEQEND
0
POLYLINE
8
A-WALL
66
1
70
1
0
VERTEX
8
A-WALL
10
34.8319
20
42.7185
30
0.0
0
VERTEX
8
A-WALL
10
34.8319
20
34.6619
30
0.0
0
VERTEX
8
A-WALL
10
34.4919
20
34.6619
30
0.0
0
VERTEX
8
A-WALL
10
34.4919
20
42.7185
30
0.0
0
SEQEND
0
POLYLINE
8
A-WALL
66
1
70
1
0
VERTEX
8
A-WALL
10
28.2916
20
41.0149
30
0.0
0
VERTEX
8
A-WALL
10
34.6619
20
41.0149
30
0.0
0
VERTEX
8
A-WALL
10
34.6619
20
40.6749
30
0.0
0
VERTEX
8
A-WALL
10
28.2916
20
40.6749
30
0.0
0
SEQEND
0
POLYLINE
8
A-WALL
66
1
70
1
0
VERTEX
8
A-WALL
10
34.8319
20
40.8449
30
0.0
0
VERTEX
8
A-WALL
10
34.8319
20
34.6619
30
0.0
0
VERTEX
8
A-WALL
10
34.4919
20
34.6619
30
0.0
0
VERTEX
8
A-WALL
10
34.4919
20
40.8449
30
0.0
0
SEQEND
0
POLYLINE
8
A-WALL
66
1
70
1
0
VERTEX
8
A-WALL
10
44.7621
20
44.0300
30
0.0
0
VERTEX
8
A-WALL
10
44.7621
20
34.6619
30
0.0
0
VERTEX
8
A-WALL
10
44.4221
20
34.6619
30
0.0
0
VERTEX
8
A-WALL
10
44.4221
20
44.0300
30
0.0
0
SEQEND
0
POLYLINE
8
A-WALL
66
1
70
1
0
VERTEX
8
A-WALL
10
34.6619
20
34.8319
30
0.0
0
VERTEX
8
A-WALL
10
44.5921
20
34.8319
30
0.0
0
VERTEX
8
A-WALL
10
44.5921
20
34.4919
30
0.0
0
VERTEX
8
A-WALL
10
34.6619
20
34.4919
30
0.0
0
SEQEND
0
POLYLINE
8
A-WALL
66
1
70
1
0
VERTEX
8
A-WALL
10
62.8425
20
44.0300
30
0.0
0
VERTEX
8
A-WALL
10
62.8425
20
33.5377
30
0.0
0
VERTEX
8
A-WALL
10
62.5025
20
33.5377
30
0.0
0
VERTEX
8
A-WALL
10
62.5025
20
44.0300
30
0.0
0
SEQEND
0
POLYLINE
8
A-WALL
66
1
70
1
0
VERTEX
8
A-WALL
10
67.5265
20
44.0300
30
0.0
0
VERTEX
8
A-WALL
10
67.5265
20
33.5377
30
0.0
0
VERTEX
8
A-WALL
10
67.1865
20
33.5377
30
0.0
0
VERTEX
8
A-WALL
10
67.1865
20
44.0300
30
0.0
0
SEQEND
0
POLYLINE
8
A-WALL
66
1
70
1
0
VERTEX
8
A-WALL
10
70.4306
20
44.0300
30
0.0
0
VERTEX
8
A-WALL
10
70.4306
20
33.5377
30
0.0
0
VERTEX
8
A-WALL
10
70.0906
20
33.5377
30
0.0
0
VERTEX
8
A-WALL
10
70.0906
20
44.0300
30
0.0
0
SEQEND
0
POLYLINE
8
A-WALL
66
1
70
1
0
VERTEX
8
A-WALL
10
62.6725
20
33.7077
30
0.0
0
VERTEX
8
A-WALL
10
73.3521
20
33.7077
30
0.0
0
VERTEX
8
A-WALL
10
73.3521
20
33.3677
30
0.0
0
VERTEX
8
A-WALL
10
62.6725
20
33.3677
30
0.0
0
SEQEND
0
POLYLINE
8
A-WALL
66
1
70
1
0
VERTEX
8
A-WALL
10
63.6856
20
33.5377
30
0.0
0
VERTEX
8
A-WALL
10
63.6856
20
15.4573
30
0.0
0
VERTEX
8
A-WALL
10
63.3456
20
15.4573
30
0.0
0
VERTEX
8
A-WALL
10
63.3456
20
33.5377
30
0.0
0
SEQEND
0
POLYLINE
8
A-WALL
66
1
70
1
0
VERTEX
8
A-WALL
10
63.5156
20
27.8059
30
0.0
0
VERTEX
8
A-WALL
10
73.3521
20
27.8059
30
0.0
0
VERTEX
8
A-WALL
10
73.3521
20
27.4659
30
0.0
0
VERTEX
8
A-WALL
10
63.5156
20
27.4659
30
0.0
0
SEQEND
0
POLYLINE
8
A-WALL
66
1
70
1
0
VERTEX
8
A-WALL
10
63.5156
20
15.6273
30
0.0
0
VERTEX
8
A-WALL
10
73.3521
20
15.6273
30
0.0
0
VERTEX
8
A-WALL
10
73.3521
20
15.2873
30
0.0
0
VERTEX
8
A-WALL
10
63.5156
20
15.2873
30
0.0
0
SEQEND
0
POLYLINE
8
A-WALL
66
1
70
1
0
VERTEX
8
A-WALL
10
61.0626
20
15.4573
30
0.0
0
VERTEX
8
A-WALL
10
61.0626
20
0.0000
30
0.0
0
VERTEX
8
A-WALL
10
60.7226
20
0.0000
30
0.0
0
VERTEX
8
A-WALL
10
60.7226
20
15.4573
30
0.0
0
SEQEND
0
POLYLINE
8
A-WALL
66
1
70
1
0
VERTEX
8
A-WALL
10
43.5442
20
15.4573
30
0.0
0
VERTEX
8
A-WALL
10
43.5442
20
0.0000
30
0.0
0
VERTEX
8
A-WALL
10
43.2042
20
0.0000
30
0.0
0
VERTEX
8
A-WALL
10
43.2042
20
15.4573
30
0.0
0
SEQEND
0
POLYLINE
8
A-WALL
66
1
70
1
0
VERTEX
8
A-WALL
10
48.8840
20
15.4573
30
0.0
0
VERTEX
8
A-WALL
10
48.8840
20
0.0000
30
0.0
0
VERTEX
8
A-WALL
10
48.5440
20
0.0000
30
0.0
0
VERTEX
8
A-WALL
10
48.5440
20
15.4573
30
0.0
0
SEQEND
0
POLYLINE
8
A-WALL
66
1
70
1
0
VERTEX
8
A-WALL
10
28.1979
20
15.6273
30
0.0
0
VERTEX
8
A-WALL
10
60.8926
20
15.6273
30
0.0
0
VERTEX
8
A-WALL
10
60.8926
20
15.2873
30
0.0
0
VERTEX
8
A-WALL
10
28.1979
20
15.2873
30
0.0
0
SEQEND
0
POLYLINE
8
A-WALL
66
1
70
1
0
VERTEX
8
A-WALL
10
6.5577
20
14.5032
30
0.0
0
VERTEX
8
A-WALL
10
28.1979
20
14.5032
30
0.0
0
VERTEX
8
A-WALL
10
28.1979
20
14.1632
30
0.0
0
VERTEX
8
A-WALL
10
6.5577
20
14.1632
30
0.0
0
SEQEND
0
POLYLINE
8
A-WALL
66
1
70
1
0
VERTEX
8
A-WALL
10
28.3679
20
14.3332
30
0.0
0
VERTEX
8
A-WALL
10
28.3679
20
0.0000
30
0.0
0
VERTEX
8
A-WALL
10
28.0279
20
0.0000
30
0.0
0
VERTEX
8
A-WALL
10
28.0279
20
14.3332
30
0.0
0
SEQEND
0
POLYLINE
8
A-WALL
66
1
70
1
0
VERTEX
8
A-WALL
10
21.6829
20
14.3332
30
0.0
0
VERTEX
8
A-WALL
10
21.6829
20
6.5577
30
0.0
0
VERTEX
8
A-WALL
10
21.2229
20
6.5577
30
0.0
0
VERTEX
8
A-WALL
10
21.2229
20
14.3332
30
0.0
0
SEQEND
0
POLYLINE
8
A-WALL
66
1
70
1
0
VERTEX
8
A-WALL
10
0.0000
20
6.7877
30
0.0
0
VERTEX
8
A-WALL
10
21.4529
20
6.7877
30
0.0
0
VERTEX
8
A-WALL
10
21.4529
20
6.3277
30
0.0
0
VERTEX
8
A-WALL
10
0.0000
20
6.3277
30
0.0
0
SEQEND
0
POLYLINE
8
A-WALL
66
1
70
1
0
VERTEX
8
A-WALL
10
21.8103
20
34.6619
30
0.0
0
VERTEX
8
A-WALL
10
21.8103
20
19.7667
30
0.0
0
VERTEX
8
A-WALL
10
21.4703
20
19.7667
30
0.0
0
VERTEX
8
A-WALL
10
21.4703
20
34.6619
30
0.0
0
SEQEND
0
POLYLINE
8
A-WALL
66
1
70
1
0
VERTEX
8
A-WALL
10
6.5577
20
25.6512
30
0.0
0
VERTEX
8
A-WALL
10
21.6403
20
25.6512
30
0.0
0
VERTEX
8
A-WALL
10
21.6403
20
25.3112
30
0.0
0
VERTEX
8
A-WALL
10
6.5577
20
25.3112
30
0.0
0
SEQEND
0
POLYLINE
8
A-WALL
66
1
70
1
0
VERTEX
8
A-WALL
10
13.4727
20
30.9147
30
0.0
0
VERTEX
8
A-WALL
10
13.4727
20
25.4812
30
0.0
0
VERTEX
8
A-WALL
10
13.1327
20
25.4812
30
0.0
0
VERTEX
8
A-WALL
10
13.1327
20
30.9147
30
0.0
0
SEQEND
0
POLYLINE
8
A-WALL
66
1
70
1
0
VERTEX
8
A-WALL
10
20.4987
20
30.9147
30
0.0
0
VERTEX
8
A-WALL
10
20.4987
20
25.4812
30
0.0
0
VERTEX
8
A-WALL
10
20.1587
20
25.4812
30
0.0
0
VERTEX
8
A-WALL
10
20.1587
20
30.9147
30
0.0
0
SEQEND
0
POLYLINE
8
A-WALL
66
1
70
1
0
VERTEX
8
A-WALL
10
21.6403
20
19.9367
30
0.0
0
VERTEX
8
A-WALL
10
32.3199
20
19.9367
30
0.0
0
VERTEX
8
A-WALL
10
32.3199
20
19.5967
30
0.0
0
VERTEX
8
A-WALL
10
21.6403
20
19.5967
30
0.0
0
SEQEND
0
POLYLINE
8
A-WALL
66
1
70
1
0
VERTEX
8
A-WALL
10
32.4899
20
19.7667
30
0.0
0
VERTEX
8
A-WALL
10
32.4899
20
15.4573
30
0.0
0
VERTEX
8
A-WALL
10
32.1499
20
15.4573
30
0.0
0
VERTEX
8
A-WALL
10
32.1499
20
19.7667
30
0.0
0
SEQEND
0
POLYLINE
8
A-WALL
66
1
70
1
0
VERTEX
8
A-WALL
10
32.3199
20
15.6273
30
0.0
0
VERTEX
8
A-WALL
10
43.3742
20
15.6273
30
0.0
0
VERTEX
8
A-WALL
10
43.3742
20
15.2873
30
0.0
0
VERTEX
8
A-WALL
10
32.3199
20
15.2873
30
0.0
0
SEQEND
0
POLYLINE
8
A-WALL
66
1
70
1
0
VERTEX
8
A-WALL
10
63.3456
20
15.4573
30
0.0
0
VERTEX
8
A-WALL
10
63.3456
20
25.2001
30
0.0
0
VERTEX
8
A-WALL
10
63.6856
20
25.2001
30
0.0
0
VERTEX
8
A-WALL
10
63.6856
20
15.4573
30
0.0
0
SEQEND
0
POLYLINE
8
A-WALL
66
1
70
1
0
VERTEX
8
A-WALL
10
56.3022
20
15.6273
30
0.0
0
VERTEX
8
A-WALL
10
60.7989
20
15.6273
30
0.0
0
VERTEX
8
A-WALL
10
60.7989
20
15.2873
30
0.0
0
VERTEX
8
A-WALL
10
56.3022
20
15.2873
30
0.0
0
SEQEND
0
LINE
8
A-DOOR
10
6.5577
20
34.2872
30
0.0
11
6.5577
21
37.2872
31
0.0
0
LINE
8
A-DOOR
10
6.5577
20
34.2872
30
0.0
11
3.5577
21
34.2872
31
0.0
0
ARC
8
A-DOOR
10
6.5577
20
34.2872
30
0.0
40
3.0000
50
90.00
51
180.00
0
LINE
8
A-DOOR
10
6.5577
20
18.1741
30
0.0
11
6.5577
21
21.1741
31
0.0
0
LINE
8
A-DOOR
10
6.5577
20
18.1741
30
0.0
11
3.5577
21
18.1741
31
0.0
0
ARC
8
A-DOOR
10
6.5577
20
18.1741
30
0.0
40
3.0000
50
90.00
51
180.00
0
LINE
8
A-DOOR
10
20.3287
20
35.7861
30
0.0
11
20.3287
21
38.7861
31
0.0
0
LINE
8
A-DOOR
10
20.3287
20
35.7861
30
0.0
11
17.3287
21
35.7861
31
0.0
0
ARC
8
A-DOOR
10
20.3287
20
35.7861
30
0.0
40
3.0000
50
90.00
51
180.00
0
LINE
8
A-DOOR
10
13.3027
20
30.9147
30
0.0
11
16.3027
21
30.9147
31
0.0
0
LINE
8
A-DOOR
10
13.3027
20
30.9147
30
0.0
11
13.3027
21
33.9147
31
0.0
0
ARC
8
A-DOOR
10
13.3027
20
30.9147
30
0.0
40
3.0000
50
0.00
51
90.00
0
LINE
8
A-DOOR
10
13.3027
20
30.9147
30
0.0
11
16.3027
21
30.9147
31
0.0
0
LINE
8
A-DOOR
10
13.3027
20
30.9147
30
0.0
11
13.3027
21
33.9147
31
0.0
0
ARC
8
A-DOOR
10
13.3027
20
30.9147
30
0.0
40
3.0000
50
0.00
51
90.00
0
LINE
8
A-DOOR
10
32.3199
20
15.4573
30
0.0
11
32.3199
21
18.4573
31
0.0
0
LINE
8
A-DOOR
10
32.3199
20
15.4573
30
0.0
11
29.3199
21
15.4573
31
0.0
0
ARC
8
A-DOOR
10
32.3199
20
15.4573
30
0.0
40
3.0000
50
90.00
51
180.00
0
LINE
8
A-DOOR
10
28.2916
20
40.8449
30
0.0
11
30.6916
21
40.8449
31
0.0
0
LINE
8
A-DOOR
10
28.2916
20
40.8449
30
0.0
11
28.2916
21
43.2449
31
0.0
0
ARC
8
A-DOOR
10
28.2916
20
40.8449
30
0.0
40
2.4000
50
0.00
51
90.00
0
LINE
8
A-DOOR
10
34.6619
20
34.6619
30
0.0
11
34.6619
21
37.0619
31
0.0
0
LINE
8
A-DOOR
10
34.6619
20
34.6619
30
0.0
11
32.2619
21
34.6619
31
0.0
0
ARC
8
A-DOOR
10
34.6619
20
34.6619
30
0.0
40
2.4000
50
90.00
51
180.00
0
LINE
8
A-DOOR
10
43.3742
20
15.4573
30
0.0
11
46.3742
21
15.4573
31
0.0
0
LINE
8
A-DOOR
10
43.3742
20
15.4573
30
0.0
11
43.3742
21
18.4573
31
0.0
0
ARC
8
A-DOOR
10
43.3742
20
15.4573
30
0.0
40
3.0000
50
0.00
51
90.00
0
LINE
8
A-DOOR
10
48.7140
20
15.4573
30
0.0
11
51.7140
21
15.4573
31
0.0
0
LINE
8
A-DOOR
10
48.7140
20
15.4573
30
0.0
11
48.7140
21
18.4573
31
0.0
0
ARC
8
A-DOOR
10
48.7140
20
15.4573
30
0.0
40
3.0000
50
0.00
51
90.00
0
LINE
8
A-DOOR
10
63.5156
20
30.7273
30
0.0
11
63.5156
21
33.7273
31
0.0
0
LINE
8
A-DOOR
10
63.5156
20
30.7273
30
0.0
11
60.5156
21
30.7273
31
0.0
0
ARC
8
A-DOOR
10
63.5156
20
30.7273
30
0.0
40
3.0000
50
90.00
51
180.00
0
LINE
8
A-DOOR
10
63.5156
20
21.0782
30
0.0
11
63.5156
21
24.0782
31
0.0
0
LINE
8
A-DOOR
10
63.5156
20
21.0782
30
0.0
11
60.5156
21
21.0782
31
0.0
0
ARC
8
A-DOOR
10
63.5156
20
21.0782
30
0.0
40
3.0000
50
90.00
51
180.00
0
LINE
8
A-DOOR
10
67.3565
20
33.5377
30
0.0
11
69.8565
21
33.5377
31
0.0
0
LINE
8
A-DOOR
10
67.3565
20
33.5377
30
0.0
11
67.3565
21
36.0377
31
0.0
0
ARC
8
A-DOOR
10
67.3565
20
33.5377
30
0.0
40
2.5000
50
0.00
51
90.00
0
LINE
8
A-DOOR
10
70.2606
20
33.5377
30
0.0
11
72.7606
21
33.5377
31
0.0
0
LINE
8
A-DOOR
10
70.2606
20
33.5377
30
0.0
11
70.2606
21
36.0377
31
0.0
0
ARC
8
A-DOOR
10
70.2606
20
33.5377
30
0.0
40
2.5000
50
0.00
51
90.00
0
LINE
8
A-GLAZ
10
20.9845
20
44.1500
30
0.0
11
24.5845
21
44.1500
31
0.0
0
LINE
8
A-GLAZ
10
20.9845
20
43.9100
30
0.0
11
24.5845
21
43.9100
31
0.0
0
LINE
8
A-GLAZ
10
36.7229
20
44.1500
30
0.0
11
40.9229
21
44.1500
31
0.0
0
LINE
8
A-GLAZ
10
36.7229
20
43.9100
30
0.0
11
40.9229
21
43.9100
31
0.0
0
LINE
8
A-GLAZ
10
55.4591
20
44.1500
30
0.0
11
59.6591
21
44.1500
31
0.0
0
LINE
8
A-GLAZ
10
55.4591
20
43.9100
30
0.0
11
59.6591
21
43.9100
31
0.0
0
LINE
8
A-GLAZ
10
40.1891
20
0.1200
30
0.0
11
45.3891
21
0.1200
31
0.0
0
LINE
8
A-GLAZ
10
40.1891
20
-0.1200
30
0.0
11
45.3891
21
-0.1200
31
0.0
0
LINE
8
A-GLAZ
10
59.7684
20
0.1200
30
0.0
11
64.7684
21
0.1200
31
0.0
0
LINE
8
A-GLAZ
10
59.7684
20
-0.1200
30
0.0
11
64.7684
21
-0.1200
31
0.0
0
LINE
8
A-GLAZ
10
67.7313
20
0.1200
30
0.0
11
72.2313
21
0.1200
31
0.0
0
LINE
8
A-GLAZ
10
67.7313
20
-0.1200
30
0.0
11
72.2313
21
-0.1200
31
0.0
0
POLYLINE
8
A-STAIR
66
1
70
1
0
VERTEX
8
A-STAIR
10
3.1851
20
14.0521
30
0.0
0
VERTEX
8
A-STAIR
10
15.1763
20
14.0521
30
0.0
0
VERTEX
8
A-STAIR
10
15.1763
20
6.5577
30
0.0
0
VERTEX
8
A-STAIR
10
3.1851
20
6.5577
30
0.0
0
SEQEND
0
LINE
8
A-STAIR
10
4.1075
20
6.5577
30
0.0
11
4.1075
21
14.0521
31
0.0
0
LINE
8
A-STAIR
10
5.0299
20
6.5577
30
0.0
11
5.0299
21
14.0521
31
0.0
0
LINE
8
A-STAIR
10
5.9523
20
6.5577
30
0.0
11
5.9523
21
14.0521
31
0.0
0
LINE
8
A-STAIR
10
6.8747
20
6.5577
30
0.0
11
6.8747
21
14.0521
31
0.0
0
LINE
8
A-STAIR
10
7.7971
20
6.5577
30
0.0
11
7.7971
21
14.0521
31
0.0
0
LINE
8
A-STAIR
10
8.7195
20
6.5577
30
0.0
11
8.7195
21
14.0521
31
0.0
0
LINE
8
A-STAIR
10
9.6419
20
6.5577
30
0.0
11
9.6419
21
14.0521
31
0.0
0
LINE
8
A-STAIR
10
10.5643
20
6.5577
30
0.0
11
10.5643
21
14.0521
31
0.0
0
LINE
8
A-STAIR
10
11.4867
20
6.5577
30
0.0
11
11.4867
21
14.0521
31
0.0
0
LINE
8
A-STAIR
10
12.4091
20
6.5577
30
0.0
11
12.4091
21
14.0521
31
0.0
0
LINE
8
A-STAIR
10
13.3315
20
6.5577
30
0.0
11
13.3315
21
14.0521
31
0.0
0
LINE
8
A-STAIR
10
14.2539
20
6.5577
30
0.0
11
14.2539
21
14.0521
31
0.0
0
LINE
8
A-STAIR
10
3.1851
20
10.3049
30
0.0
11
15.1763
21
10.3049
31
0.0
0
TEXT
8
A-TEXT
10
2.8104
20
38.8776
30
0.0
40
0.7800
1
PANTRY
50
0.00
0
TEXT
8
A-TEXT
10
31.1020
20
42.1564
30
0.0
40
0.5500
1
WASHROOM U
50
0.00
0
TEXT
8
A-TEXT
10
65.4829
20
39.8144
30
0.0
40
0.4600
1
WASH M
50
-90.00
0
TEXT
8
A-TEXT
10
70.3543
20
39.8144
30
0.0
40
0.4600
1
WASH F
50
-90.00
0
TEXT
8
A-TEXT
10
8.6186
20
10.1175
30
0.0
40
0.7000
1
STAIR
50
0.00
0
TEXT
8
A-TEXT
10
13.7711
20
39.5333
30
0.0
40
0.6500
1
OFFICE
50
0.00
0
TEXT
8
A-TEXT
10
24.0760
20
39.5333
30
0.0
40
0.6200
1
CABIN
50
0.00
0
TEXT
8
A-TEXT
10
39.7207
20
39.5333
30
0.0
40
0.6200
1
MEETING
50
0.00
0
TEXT
8
A-TEXT
10
45.6226
20
22.2960
30
0.0
40
0.7500
1
OPEN OFFICE / LOBBY
50
0.00
0
TEXT
8
A-TEXT
10
68.1060
20
23.8886
30
0.0
40
0.6200
1
CABIN
50
0.00
0
TEXT
8
A-TEXT
10
68.0123
20
9.3681
30
0.0
40
0.6200
1
CABIN
50
0.00
0
TEXT
8
A-ANNO
10
0.0000
20
-4.2000
30
0.0
40
0.5200
1
SCALE NOTE: RIGHT EXTERIOR WALL SET TO 44.03 FT (13.420 M); OTHER DIMENSIONS DERIVED PROPORTIONALLY.
50
0.00
0
LINE
8
A-ANNO
10
76.1521
20
44.0300
30
0.0
11
76.1521
21
0.0000
31
0.0
0
LINE
8
A-ANNO
10
73.3521
20
44.0300
30
0.0
11
76.1521
21
44.0300
31
0.0
0
LINE
8
A-ANNO
10
73.3521
20
0.0000
30
0.0
11
76.1521
21
0.0000
31
0.0
0
TEXT
8
A-ANNO
10
70.5521
20
22.2650
30
0.0
40
0.4500
1
RIGHT EXTERIOR WALL = 44.03 ft / 13.420 m
50
-90.00
0
LINE
8
A-ANNO
10
0.0000
20
-2.8000
30
0.0
11
73.3521
21
-2.8000
31
0.0
0
LINE
8
A-ANNO
10
0.0000
20
0.0000
30
0.0
11
0.0000
21
-2.8000
31
0.0
0
LINE
8
A-ANNO
10
73.3521
20
0.0000
30
0.0
11
73.3521
21
-2.8000
31
0.0
0
TEXT
8
A-ANNO
10
31.0761
20
-2.5500
30
0.0
40
0.4500
1
DERIVED OVERALL WIDTH
50
0.00
0
ENDSEC
0
EOF
