<svg xmlns="http://www.w3.org/2000/svg" width="1800" height="1150" viewBox="-4 -50.030 84.352 56.030">
<rect x="-100" y="-100" width="300" height="300" fill="white"/>
<style>text{font-family:Arial,Helvetica,sans-serif}.wall{fill:#111827;stroke:#111827;stroke-width:.025}.door{stroke:#b91c1c;stroke-width:.10;fill:none}.glaz{stroke:#0369a1;stroke-width:.10;fill:none}.stair{stroke:#374151;stroke-width:.06;fill:none}.label{font-size:.55px;font-weight:700;fill:#111827}.anno{font-size:.42px;fill:#7c2d12}.dim{stroke:#dc2626;stroke-width:.07;fill:none;stroke-dasharray:.35 .25}</style>
<polygon class="wall" points="0.000,-44.280 20.610,-44.280 20.610,-43.780 0.000,-43.780"/>
<polygon class="wall" points="24.170,-44.280 28.573,-44.280 28.573,-43.780 24.170,-43.780"/>
<polygon class="wall" points="31.851,-44.280 44.686,-44.280 44.686,-43.780 31.851,-43.780"/>
<polygon class="wall" points="48.714,-44.280 62.017,-44.280 62.017,-43.780 48.714,-43.780"/>
<polygon class="wall" points="66.888,-44.280 73.352,-44.280 73.352,-43.780 66.888,-43.780"/>
<polygon class="wall" points="73.602,-44.030 73.602,-0.000 73.102,-0.000 73.102,-44.030"/>
<polygon class="wall" points="0.000,-0.250 27.355,-0.250 27.355,0.250 0.000,0.250"/>
<polygon class="wall" points="31.289,-0.250 59.675,-0.250 59.675,0.250 31.289,0.250"/>
<polygon class="wall" points="64.452,-0.250 67.450,-0.250 67.450,0.250 64.452,0.250"/>
<polygon class="wall" points="72.509,-0.250 73.352,-0.250 73.352,0.250 72.509,0.250"/>
<polygon class="wall" points="0.250,-44.030 0.250,-19.860 -0.250,-19.860 -0.250,-44.030"/>
<polygon class="wall" points="0.250,-19.860 0.250,-18.080 -0.250,-18.080 -0.250,-19.860"/>
<polygon class="wall" points="0.250,-15.457 0.250,-0.000 -0.250,-0.000 -0.250,-15.457"/>
<polygon class="wall" points="6.718,-44.030 6.718,-19.954 6.398,-19.954 6.398,-44.030"/>
<polygon class="wall" points="0.000,-34.447 6.558,-34.447 6.558,-34.127 0.000,-34.127"/>
<polygon class="wall" points="0.000,-20.114 6.558,-20.114 6.558,-19.794 0.000,-19.794"/>
<polygon class="wall" points="0.000,-15.707 21.734,-15.707 21.734,-15.207 0.000,-15.207"/>
<polygon class="wall" points="0.000,-6.808 21.734,-6.808 21.734,-6.308 0.000,-6.308"/>
<polygon class="wall" points="21.984,-15.457 21.984,-6.558 21.484,-6.558 21.484,-15.457"/>
<polygon class="wall" points="0.000,-6.808 27.355,-6.808 27.355,-6.308 0.000,-6.308"/>
<polygon class="wall" points="6.558,-36.040 18.924,-36.040 18.924,-35.720 6.558,-35.720"/>
<polygon class="wall" points="19.084,-44.030 19.084,-35.880 18.764,-35.880 18.764,-44.030"/>
<polygon class="wall" points="26.297,-44.030 26.297,-35.880 25.977,-35.880 25.977,-44.030"/>
<polygon class="wall" points="18.924,-36.040 21.547,-36.040 21.547,-35.720 18.924,-35.720"/>
<polygon class="wall" points="24.076,-36.040 26.137,-36.040 26.137,-35.720 24.076,-35.720"/>
<polygon class="wall" points="26.765,-44.030 26.765,-34.662 26.445,-34.662 26.445,-44.030"/>
<polygon class="wall" points="26.605,-41.005 33.725,-41.005 33.725,-40.685 26.605,-40.685"/>
<polygon class="wall" points="33.885,-40.845 33.885,-34.662 33.565,-34.662 33.565,-40.845"/>
<polygon class="wall" points="26.605,-34.822 28.947,-34.822 28.947,-34.502 26.605,-34.502"/>
<polygon class="wall" points="31.383,-34.822 33.725,-34.822 33.725,-34.502 31.383,-34.502"/>
<polygon class="wall" points="41.942,-44.030 41.942,-34.662 41.622,-34.662 41.622,-44.030"/>
<polygon class="wall" points="33.725,-34.822 41.782,-34.822 41.782,-34.502 33.725,-34.502"/>
<polygon class="wall" points="58.898,-44.030 58.898,-34.662 58.578,-34.662 58.578,-44.030"/>
<polygon class="wall" points="62.832,-44.030 62.832,-34.662 62.512,-34.662 62.512,-44.030"/>
<polygon class="wall" points="67.610,-44.030 67.610,-34.662 67.290,-34.662 67.290,-44.030"/>
<polygon class="wall" points="62.672,-34.822 73.352,-34.822 73.352,-34.502 62.672,-34.502"/>
<polygon class="wall" points="63.676,-34.662 63.676,-29.322 63.356,-29.322 63.356,-34.662"/>
<polygon class="wall" points="63.516,-29.482 73.352,-29.482 73.352,-29.162 63.516,-29.162"/>
<polygon class="wall" points="63.676,-29.322 63.676,-18.736 63.356,-18.736 63.356,-29.322"/>
<polygon class="wall" points="63.516,-18.896 73.352,-18.896 73.352,-18.576 63.516,-18.576"/>
<polygon class="wall" points="63.676,-18.736 63.676,-9.649 63.356,-9.649 63.356,-18.736"/>
<polygon class="wall" points="63.516,-9.809 73.352,-9.809 73.352,-9.489 63.516,-9.489"/>
<polygon class="wall" points="6.558,-32.293 18.924,-32.293 18.924,-31.973 6.558,-31.973"/>
<polygon class="wall" points="6.558,-26.672 18.924,-26.672 18.924,-26.352 6.558,-26.352"/>
<polygon class="wall" points="12.339,-32.133 12.339,-26.512 12.019,-26.512 12.019,-32.133"/>
<polygon class="wall" points="19.084,-32.133 19.084,-26.512 18.764,-26.512 18.764,-32.133"/>
<polygon class="wall" points="6.558,-21.707 20.235,-21.707 20.235,-21.387 6.558,-21.387"/>
<polygon class="wall" points="20.235,-26.672 27.167,-26.672 27.167,-26.352 20.235,-26.352"/>
<polygon class="wall" points="20.395,-26.512 20.395,-21.547 20.075,-21.547 20.075,-26.512"/>
<polygon class="wall" points="20.235,-21.707 30.165,-21.707 30.165,-21.387 20.235,-21.387"/>
<polygon class="wall" points="30.325,-21.547 30.325,-17.612 30.005,-17.612 30.005,-21.547"/>
<polygon class="wall" points="30.165,-17.772 41.407,-17.772 41.407,-17.452 30.165,-17.452"/>
<polygon class="wall" points="19.084,-15.457 19.084,-6.558 18.764,-6.558 18.764,-15.457"/>
<polygon class="wall" points="18.924,-15.617 27.355,-15.617 27.355,-15.297 18.924,-15.297"/>
<polygon class="wall" points="27.515,-15.457 27.515,-6.558 27.195,-6.558 27.195,-15.457"/>
<polygon class="wall" points="27.515,-15.457 27.515,-2.155 27.195,-2.155 27.195,-15.457"/>
<polygon class="wall" points="27.355,-15.617 40.470,-15.617 40.470,-15.297 27.355,-15.297"/>
<polygon class="wall" points="40.630,-15.457 40.630,-2.155 40.310,-2.155 40.310,-15.457"/>
<polygon class="wall" points="40.630,-15.457 40.630,-2.155 40.310,-2.155 40.310,-15.457"/>
<polygon class="wall" points="46.438,-15.457 46.438,-2.155 46.118,-2.155 46.118,-15.457"/>
<polygon class="wall" points="40.470,-15.617 46.278,-15.617 46.278,-15.297 40.470,-15.297"/>
<polygon class="wall" points="48.874,-15.457 48.874,-0.000 48.554,-0.000 48.554,-15.457"/>
<polygon class="wall" points="48.714,-15.617 52.274,-15.617 52.274,-15.297 48.714,-15.297"/>
<polygon class="wall" points="55.459,-15.617 60.893,-15.617 60.893,-15.297 55.459,-15.297"/>
<polygon class="wall" points="61.053,-15.457 61.053,-0.000 60.733,-0.000 60.733,-15.457"/>
<polygon class="wall" points="48.714,-9.809 60.893,-9.809 60.893,-9.489 48.714,-9.489"/>
<line class="glaz" x1="20.610" y1="-44.030" x2="24.170" y2="-44.030"/>
<line class="glaz" x1="28.573" y1="-44.030" x2="31.851" y2="-44.030"/>
<line class="glaz" x1="44.686" y1="-44.030" x2="48.714" y2="-44.030"/>
<line class="glaz" x1="62.017" y1="-44.030" x2="66.888" y2="-44.030"/>
<line class="glaz" x1="27.355" y1="-0.000" x2="31.289" y2="-0.000"/>
<line class="glaz" x1="59.675" y1="-0.000" x2="64.452" y2="-0.000"/>
<line class="glaz" x1="67.450" y1="-0.000" x2="72.509" y2="-0.000"/>
<line class="glaz" x1="73.352" y1="-29.322" x2="73.352" y2="-18.736"/>
<line class="glaz" x1="0.000" y1="-43.093" x2="0.000" y2="-35.880"/>
<line class="glaz" x1="0.000" y1="-32.133" x2="0.000" y2="-21.547"/>
<line class="glaz" x1="0.000" y1="-6.558" x2="0.000" y2="-1.218"/>
<line class="glaz" x1="73.352" y1="-9.649" x2="73.352" y2="-2.155"/>
<line class="door" x1="6.558" y1="-35.224" x2="6.558" y2="-38.224"/>
<line class="door" x1="6.558" y1="-35.224" x2="3.558" y2="-35.224"/>
<path class="door" d="M 6.558,-38.224 A 3.000,3.000 0 0 0 3.558,-35.224"/>
<line class="door" x1="0.000" y1="-18.080" x2="0.000" y2="-14.480"/>
<line class="door" x1="0.000" y1="-18.080" x2="3.600" y2="-18.080"/>
<path class="door" d="M 0.000,-14.480 A 3.600,3.600 0 0 0 3.600,-18.080"/>
<line class="door" x1="6.558" y1="-19.954" x2="6.558" y2="-16.654"/>
<line class="door" x1="6.558" y1="-19.954" x2="9.858" y2="-19.954"/>
<path class="door" d="M 6.558,-16.654 A 3.300,3.300 0 0 0 9.858,-19.954"/>
<line class="door" x1="18.924" y1="-36.910" x2="18.924" y2="-39.910"/>
<line class="door" x1="18.924" y1="-36.910" x2="15.924" y2="-36.910"/>
<path class="door" d="M 18.924,-39.910 A 3.000,3.000 0 0 0 15.924,-36.910"/>
<line class="door" x1="12.179" y1="-32.133" x2="14.879" y2="-32.133"/>
<line class="door" x1="12.179" y1="-32.133" x2="12.179" y2="-34.833"/>
<path class="door" d="M 14.879,-32.133 A 2.700,2.700 0 0 0 12.179,-34.833"/>
<line class="door" x1="26.605" y1="-40.845" x2="24.205" y2="-40.845"/>
<line class="door" x1="26.605" y1="-40.845" x2="26.605" y2="-38.445"/>
<path class="door" d="M 24.205,-40.845 A 2.400,2.400 0 0 0 26.605,-38.445"/>
<line class="door" x1="30.165" y1="-34.662" x2="32.565" y2="-34.662"/>
<line class="door" x1="30.165" y1="-34.662" x2="30.165" y2="-37.062"/>
<path class="door" d="M 32.565,-34.662 A 2.400,2.400 0 0 0 30.165,-37.062"/>
<line class="door" x1="41.782" y1="-34.662" x2="41.782" y2="-37.662"/>
<line class="door" x1="41.782" y1="-34.662" x2="38.782" y2="-34.662"/>
<path class="door" d="M 41.782,-37.662 A 3.000,3.000 0 0 0 38.782,-34.662"/>
<line class="door" x1="62.672" y1="-34.662" x2="62.672" y2="-31.862"/>
<line class="door" x1="62.672" y1="-34.662" x2="65.472" y2="-34.662"/>
<path class="door" d="M 62.672,-31.862 A 2.800,2.800 0 0 0 65.472,-34.662"/>
<line class="door" x1="67.450" y1="-34.662" x2="70.250" y2="-34.662"/>
<line class="door" x1="67.450" y1="-34.662" x2="67.450" y2="-37.462"/>
<path class="door" d="M 70.250,-34.662 A 2.800,2.800 0 0 0 67.450,-37.462"/>
<line class="door" x1="63.516" y1="-32.133" x2="63.516" y2="-35.133"/>
<line class="door" x1="63.516" y1="-32.133" x2="60.516" y2="-32.133"/>
<path class="door" d="M 63.516,-35.133 A 3.000,3.000 0 0 0 60.516,-32.133"/>
<line class="door" x1="63.516" y1="-23.701" x2="63.516" y2="-26.701"/>
<line class="door" x1="63.516" y1="-23.701" x2="60.516" y2="-23.701"/>
<path class="door" d="M 63.516,-26.701 A 3.000,3.000 0 0 0 60.516,-23.701"/>
<line class="door" x1="30.165" y1="-17.612" x2="30.165" y2="-21.012"/>
<line class="door" x1="30.165" y1="-17.612" x2="26.765" y2="-17.612"/>
<path class="door" d="M 30.165,-21.012 A 3.400,3.400 0 0 0 26.765,-17.612"/>
<line class="door" x1="40.470" y1="-15.457" x2="43.670" y2="-15.457"/>
<line class="door" x1="40.470" y1="-15.457" x2="40.470" y2="-18.657"/>
<path class="door" d="M 43.670,-15.457 A 3.200,3.200 0 0 0 40.470,-18.657"/>
<line class="door" x1="46.278" y1="-15.457" x2="48.878" y2="-15.457"/>
<line class="door" x1="46.278" y1="-15.457" x2="46.278" y2="-18.057"/>
<path class="door" d="M 48.878,-15.457 A 2.600,2.600 0 0 0 46.278,-18.057"/>
<line class="door" x1="6.558" y1="-32.133" x2="6.558" y2="-29.333"/>
<line class="door" x1="6.558" y1="-32.133" x2="9.358" y2="-32.133"/>
<path class="door" d="M 6.558,-29.333 A 2.800,2.800 0 0 0 9.358,-32.133"/>
<line class="door" x1="18.924" y1="-15.457" x2="18.924" y2="-13.057"/>
<line class="door" x1="18.924" y1="-15.457" x2="21.324" y2="-15.457"/>
<path class="door" d="M 18.924,-13.057 A 2.400,2.400 0 0 0 21.324,-15.457"/>
<line class="door" x1="21.734" y1="-15.457" x2="21.734" y2="-17.857"/>
<line class="door" x1="21.734" y1="-15.457" x2="19.334" y2="-15.457"/>
<path class="door" d="M 21.734,-17.857 A 2.400,2.400 0 0 0 19.334,-15.457"/>
<line class="door" x1="52.274" y1="-15.457" x2="55.274" y2="-15.457"/>
<line class="door" x1="52.274" y1="-15.457" x2="52.274" y2="-18.457"/>
<path class="door" d="M 55.274,-15.457 A 3.000,3.000 0 0 0 52.274,-18.457"/>
<polygon class="stair" points="2.810,-14.333 14.239,-14.333 14.239,-6.558 2.810,-6.558"/>
<line class="stair" x1="3.690" y1="-6.558" x2="3.690" y2="-14.333"/>
<line class="stair" x1="4.569" y1="-6.558" x2="4.569" y2="-14.333"/>
<line class="stair" x1="5.448" y1="-6.558" x2="5.448" y2="-14.333"/>
<line class="stair" x1="6.327" y1="-6.558" x2="6.327" y2="-14.333"/>
<line class="stair" x1="7.206" y1="-6.558" x2="7.206" y2="-14.333"/>
<line class="stair" x1="8.085" y1="-6.558" x2="8.085" y2="-14.333"/>
<line class="stair" x1="8.965" y1="-6.558" x2="8.965" y2="-14.333"/>
<line class="stair" x1="9.844" y1="-6.558" x2="9.844" y2="-14.333"/>
<line class="stair" x1="10.723" y1="-6.558" x2="10.723" y2="-14.333"/>
<line class="stair" x1="11.602" y1="-6.558" x2="11.602" y2="-14.333"/>
<line class="stair" x1="12.481" y1="-6.558" x2="12.481" y2="-14.333"/>
<line class="stair" x1="13.360" y1="-6.558" x2="13.360" y2="-14.333"/>
<text class="label" x="2.810" y="-38.971" text-anchor="middle">PANTRY</text>
<text class="label" x="30.165" y="-42.344" text-anchor="middle">washroom U</text>
<text class="label" x="64.827" y="-40.095" text-anchor="middle" transform="rotate(90.0 64.827 -40.095)">Washroom M</text>
<text class="label" x="69.980" y="-40.095" text-anchor="middle" transform="rotate(90.0 69.980 -40.095)">Washroom F</text>
<text class="label" x="8.431" y="-10.305" text-anchor="middle">STAIR</text>
<text class="label" x="24.076" y="-11.054" text-anchor="middle">ENTRANCE</text>
<text class="label" x="47.965" y="-25.106" text-anchor="middle">OPEN OFFICE</text>
<line class="dim" x1="76.352" y1="-44.030" x2="76.352" y2="-0.000"/>
<text class="anno" x="76.352" y="-22.265" text-anchor="middle">RIGHT EXTERIOR WALL = 44.03 ft / 13.420 m</text>
<line class="dim" x1="0.000" y1="3.000" x2="73.352" y2="3.000"/>
<text class="anno" x="36.676" y="2.750" text-anchor="middle">DERIVED WIDTH = 73.35 ft</text>
<line class="dim" x1="0.000" y1="-45.904" x2="29.697" y2="-45.904"/>
<text class="anno" x="14.848" y="-46.154" text-anchor="middle">FIELD NOTE: BALCONY 29.7 ft</text>
<line class="dim" x1="48.714" y1="-42.437" x2="69.324" y2="-42.437"/>
<text class="anno" x="59.019" y="-42.687" text-anchor="middle">FIELD NOTE: TOP RUN 20.6 ft</text>
<line class="dim" x1="48.714" y1="-38.690" x2="59.300" y2="-38.690"/>
<text class="anno" x="54.007" y="-38.940" text-anchor="middle">FIELD NOTE: ROOM WIDTH 10.6 ft</text>
<line class="dim" x1="62.017" y1="-22.296" x2="72.228" y2="-22.296"/>
<text class="anno" x="67.122" y="-22.546" text-anchor="middle">FIELD NOTE: RIGHT ROOM 10.2 ft</text>
<line class="dim" x1="27.355" y1="-16.300" x2="43.655" y2="-16.300"/>
<text class="anno" x="35.505" y="-16.550" text-anchor="middle">FIELD NOTE: 16.3 ft</text>
<line class="dim" x1="43.655" y1="-16.300" x2="50.307" y2="-16.300"/>
<text class="anno" x="46.981" y="-16.550" text-anchor="middle">FIELD NOTE: 6.7 ft</text>
<line class="dim" x1="50.307" y1="-16.300" x2="62.298" y2="-16.300"/>
<text class="anno" x="56.302" y="-16.550" text-anchor="middle">FIELD NOTE: 12 ft</text>
<line class="dim" x1="62.298" y1="-16.300" x2="73.352" y2="-16.300"/>
<text class="anno" x="67.825" y="-16.550" text-anchor="middle">FIELD NOTE: 13.1 ft</text>
<line class="dim" x1="0.000" y1="3.560" x2="12.834" y2="3.560"/>
<text class="anno" x="6.417" y="3.310" text-anchor="middle">FIELD NOTE: 12.8 ft</text>
<line class="dim" x1="36.723" y1="3.560" x2="69.043" y2="3.560"/>
<text class="anno" x="52.883" y="3.310" text-anchor="middle">FIELD NOTE: 32.3 ft BOTTOM NOTE</text>
<line class="dim" x1="-1.499" y1="-11.054" x2="-1.499" y2="-0.000"/>
<text class="anno" x="-1.499" y="-5.777" text-anchor="middle">FIELD NOTE: LEFT VERTICAL 12 ft</text>
<line class="dim" x1="-1.499" y1="-26.512" x2="-1.499" y2="-11.054"/>
<text class="anno" x="-1.499" y="-19.033" text-anchor="middle">FIELD NOTE: LEFT VERTICAL 18.7 ft</text>
<text class="anno" x="0" y="4.2">Reference office trace. Right exterior wall fixed at 44.03 ft / 13.420 m.</text></svg>