<?xml version="1.0" encoding="UTF-8"?>
<svg xmlns="http://www.w3.org/2000/svg" width="2400" height="1200" viewBox="0 0 2400 1200">
  <defs>
    <pattern id="glassHatch" patternUnits="userSpaceOnUse" width="12" height="12">
      <path d="M0,12 L12,0 M-3,3 L3,-3 M9,15 L15,9" stroke="#38bdf8" stroke-width="1.2" opacity="0.35"/>
    </pattern>
    <pattern id="solidHatch" patternUnits="userSpaceOnUse" width="14" height="14">
      <path d="M0,14 L14,0 M2,2 L12,12 M6,0 L14,8 M0,6 L8,14" stroke="#94a3b8" stroke-width="1" opacity="0.18"/>
    </pattern>
  </defs>

  <rect width="2400" height="1200" fill="#020617"/>

  <g transform="translate(60, 40)">
    <text x="0" y="0" fill="#e2e8f0" font-family="ui-monospace, Menlo, monospace" font-size="28" font-weight="bold">KITCHEN ELEVATION A — UPPER + BASE RUN</text>
    <rect x="0" y="8" width="1800" height="520" fill="#0f172a" stroke="#334155" stroke-width="1.5"/>

    <rect x="20" y="28" width="700" height="180" fill="url(#solidHatch)" stroke="#94a3b8" stroke-width="1.5"/>
    <text x="36" y="62" fill="#e2e8f0" font-family="ui-monospace, Menlo, monospace" font-size="18">900</text>

    <rect x="740" y="28" width="650" height="110" fill="url(#solidHatch)" stroke="#94a3b8" stroke-width="1.5"/>
    <text x="860" y="62" fill="#e2e8f0" font-family="ui-monospace, Menlo, monospace" font-size="18">700</text>

    <rect x="740" y="148" width="650" height="60" fill="#1e293b" stroke="#94a3b8" stroke-width="1.5"/>
    <text x="1030" y="178" fill="#e2e8f0" font-family="ui-monospace, Menlo, monospace" font-size="18">Range zone</text>

    <rect x="1410" y="28" width="360" height="180" fill="url(#glassHatch)" stroke="#38bdf8" stroke-width="1.5"/>
    <text x="1450" y="62" fill="#e2e8f0" font-family="ui-monospace, Menlo, monospace" font-size="18">250</text>

    <rect x="20" y="228" width="1750" height="50" fill="#1e293b" stroke="#94a3b8" stroke-width="1.5"/>
    <text x="560" y="258" fill="#e2e8f0" font-family="ui-monospace, Menlo, monospace" font-size="18">Countertop run</text>

    <rect x="20" y="288" width="1000" height="240" fill="#1e293b" stroke="#94a3b8" stroke-width="1.5"/>
    <text x="460" y="408" fill="#e2e8f0" font-family="ui-monospace, Menlo, monospace" font-size="18">1000 wide drawer stack</text>

    <rect x="1040" y="288" width="730" height="240" fill="#1e293b" stroke="#94a3b8" stroke-width="1.5"/>
    <text x="1340" y="408" fill="#e2e8f0" font-family="ui-monospace, Menlo, monospace" font-size="18">Cabinets</text>

    <rect x="20" y="28" width="1380" height="680" fill="none" stroke="#94a3b8" stroke-width="1" stroke-dasharray="6,6"/>
  </g>

  <g transform="translate(60, 640)">
    <text x="0" y="0" fill="#e2e8f0" font-family="ui-monospace, Menlo, monospace" font-size="28" font-weight="bold">KITCHEN ELEVATION B — BASE RUN / END UNIT</text>
    <rect x="0" y="8" width="2100" height="520" fill="#0f172a" stroke="#334155" stroke-width="1.5"/>

    <rect x="20" y="28" width="400" height="480" fill="#1e293b" stroke="#94a3b8" stroke-width="1.5"/>
    <text x="60" y="268" fill="#e2e8f0" font-family="ui-monospace, Menlo, monospace" font-size="18">400</text>

    <rect x="440" y="28" width="400" height="480" fill="#1e293b" stroke="#94a3b8" stroke-width="1.5"/>
    <text x="480" y="268" fill="#e2e8f0" font-family="ui-monospace, Menlo, monospace" font-size="18">400</text>

    <rect x="860" y="28" width="450" height="480" fill="url(#glassHatch)" stroke="#38bdf8" stroke-width="1.5"/>
    <text x="920" y="268" fill="#e2e8f0" font-family="ui-monospace, Menlo, monospace" font-size="18">450</text>

    <rect x="1330" y="28" width="450" height="480" fill="url(#glassHatch)" stroke="#38bdf8" stroke-width="1.5"/>
    <text x="1390" y="268" fill="#e2e8f0" font-family="ui-monospace, Menlo, monospace" font-size="18">450</text>

    <rect x="1810" y="28" width="260" height="480" fill="#1e293b" stroke="#94a3b8" stroke-width="1.5"/>
    <text x="1900" y="268" fill="#e2e8f0" font-family="ui-monospace, Menlo, monospace" font-size="18">End</text>
  </g>

  <g transform="translate(60, 1160)">
    <rect x="0" y="0" width="1800" height="36" fill="#0f172a" stroke="#334155" stroke-width="1"/>
    <text x="20" y="24" fill="#64748b" font-family="ui-monospace, Menlo, monospace" font-size="14">TEST OUTPUT — AURA sketch-to-2D path — not for production fabrication without verification</text>
  </g>
</svg>
