<svg xmlns="http://www.w3.org/2000/svg" viewBox="0 0 1200 850">
  <defs>
    <linearGradient id="wall" x1="0" y1="0" x2="1" y2="1">
      <stop offset="0" stop-color="#b88a2f"/>
      <stop offset="1" stop-color="#e5dac4"/>
    </linearGradient>
    <linearGradient id="wood" x1="0" y1="0" x2="1" y2="0">
      <stop offset="0" stop-color="#7a4c2a"/>
      <stop offset="1" stop-color="#5f3b22"/>
    </linearGradient>
    <filter id="shadow" x="-20%" y="-20%" width="140%" height="140%">
      <feDropShadow dx="0" dy="18" stdDeviation="18" flood-color="#1d211d" flood-opacity=".22"/>
    </filter>
  </defs>
  <rect width="1200" height="850" fill="url(#wall)"/>
  <path d="M0 650 C250 590 390 690 620 640 C835 594 930 590 1200 652 L1200 850 L0 850Z" fill="#d2c3aa"/>
  <rect x="78" y="80" width="1044" height="620" rx="30" fill="#fffaf0" opacity=".34"/>
  <rect x="120" y="130" width="310" height="500" rx="18" fill="url(#wood)" filter="url(#shadow)"/>
  <g opacity=".7">
    <rect x="150" y="155" width="20" height="450" fill="#2a1b11"/>
    <rect x="205" y="155" width="20" height="450" fill="#2a1b11"/>
    <rect x="260" y="155" width="20" height="450" fill="#2a1b11"/>
    <rect x="315" y="155" width="20" height="450" fill="#2a1b11"/>
    <rect x="370" y="155" width="20" height="450" fill="#2a1b11"/>
  </g>
  <rect x="490" y="150" width="455" height="270" rx="20" fill="#f7f2e8" filter="url(#shadow)"/>
  <rect x="535" y="192" width="365" height="188" rx="12" fill="#141614"/>
  <rect x="495" y="470" width="480" height="105" rx="16" fill="#7a4c2a" filter="url(#shadow)"/>
  <rect x="535" y="492" width="110" height="60" rx="8" fill="#8da48c" opacity=".85"/>
  <rect x="675" y="492" width="110" height="60" rx="8" fill="#f5f0df" opacity=".95"/>
  <rect x="815" y="492" width="110" height="60" rx="8" fill="#f7f2e8" opacity=".82"/>
  <circle cx="1015" cy="240" r="60" fill="#8da48c" opacity=".9"/>
  <rect x="970" y="330" width="90" height="235" rx="45" fill="#7a4c2a" opacity=".94"/>
  <rect x="690" y="610" width="220" height="48" rx="24" fill="#8da48c" opacity=".9"/>
  <text x="78" y="760" font-family="Outfit, Arial, sans-serif" font-size="38" font-weight="700" fill="#1d211d"></text>
  <text x="78" y="805" font-family="Plus Jakarta Sans, Arial, sans-serif" font-size="20" font-weight="600" fill="#5c6258">Balcony - indian-contemporary - </text>
  <text x="620" y="770" font-family="Plus Jakarta Sans, Arial, sans-serif" font-size="18" fill="#5c6258">luxury indian-contemporary interior design, photorealistic, 8k, Balcony with 600mm x 187mm floor area, natural light, </text>
</svg>