<svg xmlns="http://www.w3.org/2000/svg" viewBox="0 0 64 64">
  <rect width="64" height="64" rx="14" fill="#0b0d0c"/>
  <g fill="none" stroke="#d2ad67" stroke-width="3" stroke-linecap="round" stroke-linejoin="round">
    <circle cx="32" cy="32" r="7"/>
    <path d="M32 8c6 8 6 14 0 24-6-10-6-16 0-24Z"/>
    <path d="M32 56c-6-8-6-14 0-24 6 10 6 16 0 24Z"/>
    <path d="M8 32c8-6 14-6 24 0-10 6-16 6-24 0Z"/>
    <path d="M56 32c-8 6-14 6-24 0 10-6 16-6 24 0Z"/>
    <path d="M15 15c10 1 15 5 17 17-12-2-16-7-17-17Z"/>
    <path d="M49 49c-10-1-15-5-17-17 12 2 16 7 17 17Z"/>
    <path d="M49 15c-1 10-5 15-17 17 2-12 7-16 17-17Z"/>
    <path d="M15 49c1-10 5-15 17-17-2 12-7 16-17 17Z"/>
  </g>
</svg>
