<svg xmlns="http://www.w3.org/2000/svg" viewBox="0 0 680 360" role="img" aria-labelledby="title desc">
  <title id="title">Apartment floor plan preview</title>
  <desc id="desc">A simplified apartment floor plan used as a design-preview visual.</desc>
  <rect width="680" height="360" fill="#fbfaf6"/>
  <g fill="none" stroke="#153226" stroke-width="8" stroke-linecap="square">
    <path d="M64 42h552v272H64z"/>
    <path d="M64 137h168V42"/>
    <path d="M232 42v128h126V42"/>
    <path d="M358 42v115h130V42"/>
    <path d="M488 42v132h128"/>
    <path d="M64 137h126v177"/>
    <path d="M190 210h170v104"/>
    <path d="M360 157v157"/>
    <path d="M360 224h128v90"/>
    <path d="M488 174v140"/>
  </g>
  <g fill="#153226" font-family="Arial, sans-serif" font-size="17" font-weight="700">
    <text x="88" y="92">BEDROOM</text>
    <text x="258" y="101">KITCHEN</text>
    <text x="391" y="98">DINING</text>
    <text x="512" y="106">BALCONY</text>
    <text x="96" y="230">LIVING</text>
    <text x="230" y="270">FOYER</text>
    <text x="393" y="274">MASTER</text>
    <text x="512" y="254">BATH</text>
  </g>
  <g fill="none" stroke="#b8873b" stroke-width="4">
    <path d="M190 170c28 0 51-23 51-51"/>
    <path d="M360 224c32 0 58-26 58-58"/>
    <path d="M488 174c29 0 52 23 52 52"/>
    <path d="M190 210c32 0 58 26 58 58"/>
  </g>
</svg>
