{"asset":{"version":"2.0","generator":"Arena StudioOS category lowpoly generator"},"buffers":[{"byteLength":648,"uri":"data:application/octet-stream;base64,"}],"bufferViews":[{"buffer":0,"byteOffset":0,"byteLength":288,"target":34962},{"buffer":0,"byteOffset":288,"byteLength":288,"target":34962},{"buffer":0,"byteOffset":576,"byteLength":72,"target":34963}],"accessors":[{"bufferView":0,"componentType":5126,"count":24,"type":"VEC3","min":[-0.5,-0.5,-0.5],"max":[0.5,0.5,0.5]},{"bufferView":1,"componentType":5126,"count":24,"type":"VEC3"},{"bufferView":2,"componentType":5123,"count":36,"type":"SCALAR"}],"meshes":[{"name":"UnitCube","primitives":[{"attributes":{"POSITION":0,"NORMAL":1},"indices":2,"mode":4}]}],"materials":[{"pbrMetallicRoughness":{"baseColorFactor":[0.8,0.8,0.8,1],"metallicFactor":0.05,"roughnessFactor":0.7}}],"scene":0,"scenes":[{"nodes":[0]}],"nodes":[{"name":"sofa_lshape_lowpoly","children":[1,2,3,4,5]},{"mesh":0,"translation":[-0.16,0.22,0.08],"scale":[0.72,0.22,0.46]},{"mesh":0,"translation":[0.32,0.22,-0.22],"scale":[0.42,0.22,0.96]},{"mesh":0,"translation":[-0.16,0.52,-0.1],"scale":[0.72,0.42,0.12]},{"mesh":0,"translation":[0.5,0.52,-0.22],"scale":[0.12,0.42,0.96]},{"mesh":0,"translation":[-0.46,0.42,0.08],"scale":[0.1,0.42,0.46]}]}